<?xml version="1.0" encoding="utf-8"?>
<!-- Generator: Adobe Illustrator 28.0.0, SVG Export Plug-In . SVG Version: 6.00 Build 0)  -->
<svg version="1.1" id="Layer_1" xmlns="http://www.w3.org/2000/svg" xmlns:xlink="http://www.w3.org/1999/xlink" x="0px" y="0px"
	 viewBox="0 0 132 121" style="enable-background:new 0 0 132 121;" xml:space="preserve">
<path d="M66,0.6C29.9,0.6,0.6,30.2,0.6,66.5c0,1.1,0.7,2.1,1.7,2.5c0.3,0.1,0.7,0.2,1,0.2c0.7,0,1.4-0.3,1.9-0.8
	c3.6-3.7,9.7-5.8,16.3-5.8c6.6,0,12.6,2.2,16.3,5.8c0.5,0.5,1.2,0.8,1.9,0.8c0.7,0,1.4-0.3,1.9-0.8c5.6-5.6,13.6-8.7,21.8-9.2v31.6
	c-1.8,1-3,2.8-3,5v19c0,3.2,2.6,5.7,5.7,5.7s5.7-2.6,5.7-5.7v-19c0-2.2-1.2-4.1-3-5V59.2c8.2,0.6,16.2,3.6,21.8,9.2
	c1.1,1.1,2.8,1.1,3.8,0c7.7-7.8,24.8-7.8,32.5,0c0.8,0.8,1.9,1,2.9,0.6c1-0.4,1.7-1.4,1.7-2.5C131.4,30.2,102.1,0.6,66,0.6z
	 M89.6,60.7C83,56.2,74.9,54,66.6,53.9c-0.2-0.1-0.4-0.1-0.6-0.1s-0.4,0-0.6,0.1c-8.2,0.1-16.4,2.4-22.9,6.9C43.6,27.8,55.2,6,66,6
	C76.8,6,88.3,27.8,89.6,60.7z M6.2,61C8.7,34.6,27.8,13.2,52.9,7.5c-8.9,10-15,29.9-15.8,53.7c-4.3-2.6-9.7-4-15.6-4
	C15.8,57.2,10.5,58.5,6.2,61z M95,61.2c-0.8-23.8-7-43.7-15.8-53.7c25,5.7,44.2,27.1,46.6,53.5C116.8,55.9,103.8,56,95,61.2z"/>
</svg>
