<?xml version="1.0" encoding="utf-8"?>
<!-- Generator: Adobe Illustrator 28.0.0, SVG Export Plug-In . SVG Version: 6.00 Build 0)  -->
<svg version="1.1" id="Layer_1" xmlns="http://www.w3.org/2000/svg" xmlns:xlink="http://www.w3.org/1999/xlink" x="0px" y="0px"
	 viewBox="0 0 106 121" style="enable-background:new 0 0 106 121;" xml:space="preserve">
<style type="text/css">
	.st0{clip-path:url(#SVGID_00000044161717396815246370000010080565517321065873_);}
</style>
<g>
	<defs>
		<rect id="SVGID_1_" y="0.5" width="105.6" height="120"/>
	</defs>
	<clipPath id="SVGID_00000114765832749539829180000018327506678909947264_">
		<use xlink:href="#SVGID_1_"  style="overflow:visible;"/>
	</clipPath>
	<g style="clip-path:url(#SVGID_00000114765832749539829180000018327506678909947264_);">
		<path d="M52.8,82.2c-22.5,0-40.9-18.3-40.9-40.9S30.2,0.5,52.8,0.5s40.9,18.3,40.9,40.9S75.3,82.2,52.8,82.2z M52.8,5.5
			C33,5.5,16.9,21.6,16.9,41.4c0,19.8,16.1,35.9,35.9,35.9c19.8,0,35.9-16.1,35.9-35.9C88.6,21.6,72.6,5.5,52.8,5.5z"/>
		<path d="M68.2,120.5c-0.6,0-1.1-0.2-1.5-0.5l-13.8-10.9L38.9,120c-0.8,0.6-1.8,0.7-2.6,0.3c-0.9-0.4-1.4-1.3-1.4-2.2V76.5
			c0-0.8,0.4-1.6,1.1-2.1c0.7-0.5,1.6-0.5,2.4-0.2c9.1,4,19.6,4,28.7,0c0.8-0.3,1.7-0.3,2.4,0.2c0.7,0.5,1.1,1.2,1.1,2.1V118
			c0,1-0.5,1.8-1.4,2.2C68.9,120.4,68.5,120.5,68.2,120.5z M52.8,103.4c0.5,0,1.1,0.2,1.5,0.5l11.3,8.9V80.2
			c-8.3,2.8-17.5,2.8-25.8,0v32.7l11.3-8.9C51.7,103.6,52.2,103.4,52.8,103.4z"/>
		<path d="M52.8,72.2c-17,0-30.9-13.8-30.9-30.9c0-17,13.8-30.9,30.9-30.9c17,0,30.9,13.8,30.9,30.9C83.6,58.4,69.8,72.2,52.8,72.2z
			 M52.8,15.5c-14.3,0-25.9,11.6-25.9,25.9c0,14.3,11.6,25.9,25.9,25.9c14.3,0,25.9-11.6,25.9-25.9C78.6,27.1,67,15.5,52.8,15.5z"/>
		<path d="M62.8,59.3c-0.5,0-1-0.2-1.5-0.5l-8.6-6.2l-8.6,6.2c-0.9,0.6-2.1,0.6-2.9,0c-0.9-0.6-1.2-1.8-0.9-2.8L43.6,46l-8.6-6.2
			c-0.9-0.6-1.2-1.8-0.9-2.8c0.3-1,1.3-1.7,2.4-1.7h10.6l3.3-10.1c0.3-1,1.3-1.7,2.4-1.7c1.1,0,2,0.7,2.4,1.7l3.3,10.1H69
			c1.1,0,2,0.7,2.4,1.7c0.3,1,0,2.2-0.9,2.8L61.9,46l3.3,10.1c0.3,1,0,2.2-0.9,2.8C63.8,59.2,63.3,59.3,62.8,59.3z M44.2,40.2L48,43
			c0.9,0.6,1.2,1.8,0.9,2.8l-1.5,4.5l3.8-2.8c0.9-0.6,2.1-0.6,2.9,0l3.8,2.8l-1.5-4.5c-0.3-1,0-2.2,0.9-2.8l3.8-2.8h-4.7
			c-1.1,0-2-0.7-2.4-1.7L52.8,34l-1.5,4.5c-0.3,1-1.3,1.7-2.4,1.7H44.2z"/>
		<path d="M52.8,95.7c-1.4,0-2.5-1.1-2.5-2.5V79.7c0-1.4,1.1-2.5,2.5-2.5s2.5,1.1,2.5,2.5v13.5C55.3,94.6,54.2,95.7,52.8,95.7z"/>
	</g>
</g>
</svg>
