<?xml version="1.0" encoding="utf-8"?>
<!-- Generator: Adobe Illustrator 28.0.0, SVG Export Plug-In . SVG Version: 6.00 Build 0)  -->
<svg version="1.1" id="Layer_1" xmlns="http://www.w3.org/2000/svg" xmlns:xlink="http://www.w3.org/1999/xlink" x="0px" y="0px"
	 viewBox="0 0 154 179" style="enable-background:new 0 0 154 179;" xml:space="preserve">
<path d="M115.1,41.9c0.3,0,0.5,0,0.8-0.1l5.7-1.6c1.5-0.4,2.4-2,1.9-3.4c-0.4-1.5-2-2.3-3.5-1.9l-5.7,1.6c-1.5,0.4-2.4,2-1.9,3.4
	C112.7,41.1,113.8,41.9,115.1,41.9z M153.9,81.1C153.9,81.1,153.9,81.1,153.9,81.1c0-0.1,0-0.1,0-0.1c0,0,0,0,0,0c0,0,0,0,0,0
	c0,0,0,0,0-0.1c0,0,0,0,0,0c0,0,0,0,0,0c0,0,0,0,0-0.1c0,0,0,0,0,0c0,0,0,0,0-0.1c0,0,0,0,0-0.1v0c0,0,0,0,0-0.1c0,0,0,0,0-0.1v0
	c0,0,0,0,0-0.1c0,0,0,0,0,0v0c0,0,0,0,0-0.1c0,0,0,0,0,0c0,0,0,0,0,0c0,0,0,0,0-0.1c0,0,0,0,0,0c0,0,0,0,0,0c0,0,0,0,0-0.1
	c0,0,0,0,0,0c0,0,0,0,0,0c0,0,0,0,0-0.1c0,0,0,0,0,0c0,0,0,0,0,0c0,0,0,0,0-0.1c0,0,0,0,0-0.1c0,0,0,0,0,0c0,0,0-0.1,0-0.1
	c0,0,0,0,0,0c0,0,0-0.1-0.1-0.1c0,0,0,0,0,0c0,0,0-0.1-0.1-0.1c0,0,0,0,0,0c0,0,0-0.1-0.1-0.1c0,0,0,0,0,0c0,0,0,0,0,0c0,0,0,0,0,0
	l0,0c-0.1-0.1-0.2-0.2-0.3-0.3l-16.7-12.5V7.8c0-4.2-3.5-7.7-7.7-7.7H25.7c-4.3,0-7.7,3.4-7.7,7.7v58.5L1.3,78.9
	C1.2,78.9,1.1,79,1.1,79l0,0c0,0,0,0-0.1,0.1c0,0,0,0,0,0c0,0,0,0,0,0c0,0,0,0,0,0.1c0,0,0,0,0,0c0,0,0,0.1-0.1,0.1c0,0,0,0,0,0
	c0,0,0,0.1-0.1,0.1c0,0,0,0,0,0c0,0,0,0.1-0.1,0.1c0,0,0,0,0,0c0,0,0,0.1-0.1,0.1c0,0,0,0,0,0c0,0,0,0,0,0.1c0,0,0,0,0,0
	c0,0,0,0,0,0.1c0,0,0,0,0,0.1c0,0,0,0,0,0v0c0,0,0,0,0,0.1c0,0,0,0,0,0c0,0,0,0,0,0c0,0,0,0,0,0.1c0,0,0,0,0,0c0,0,0,0,0,0
	c0,0,0,0,0,0.1c0,0,0,0,0,0c0,0,0,0,0,0c0,0,0,0,0,0.1c0,0,0,0,0,0s0,0,0,0c0,0,0,0,0,0.1c0,0,0,0,0,0c0,0,0,0,0,0c0,0,0,0,0,0.1
	c0,0,0,0,0,0c0,0,0,0,0,0c0,0,0,0,0,0.1c0,0,0,0,0,0c0,0,0,0,0,0c0,0,0,0,0,0c0,0,0,0,0,0c0,0,0,0,0,0c0,0,0,0,0,0c0,0,0,0,0,0v0
	c0,0,0,0,0,0v90.2c0,1.8,0.7,3.5,1.9,4.7c0,0,0,0,0,0c0.1,0.1,0.2,0.2,0.2,0.2c1.2,1.1,2.8,1.8,4.6,1.8h140.2c1.8,0,3.4-0.7,4.6-1.8
	c0.1-0.1,0.2-0.2,0.2-0.2c0,0,0,0,0,0c1.2-1.2,1.9-2.9,1.9-4.7V81.1z M148.2,168.9L97,122.5l51.3-36V168.9z M5.8,86.5l51.3,36
	L5.8,168.9V86.5z M61.7,125.8l6.7,4.7c2.6,1.8,5.6,2.7,8.6,2.7c3,0,6-0.9,8.6-2.7l6.7-4.7l51.5,46.7H10.2L61.7,125.8z M146.3,81
	L136,88.3V73.3L146.3,81z M25.7,5.7h102.5c1.2,0,2.1,0.9,2.1,2.1v59.9c0,0,0,0,0,0v24.5L90.8,120l-8.5,6c-3.2,2.3-7.5,2.3-10.7,0
	l-48-33.7V67.7c0,0,0,0,0,0V7.8C23.6,6.7,24.6,5.7,25.7,5.7z M18,88.3L7.7,81L18,73.3V88.3z M38.3,68.3c0.7,0,1.3-0.1,2-0.3l0.5,1.9
	c0.2,0.7,0.7,1.3,1.3,1.7c0.4,0.2,0.9,0.4,1.4,0.4c0.3,0,0.5,0,0.8-0.1l2.1-0.6l9.3,32.5c0.5,1.8,1.7,3.4,3.4,4.3
	c1.1,0.6,2.3,0.9,3.5,0.9c0.7,0,1.3-0.1,2-0.3c1.9-0.5,3.4-1.7,4.4-3.4c0.9-1.7,1.2-3.6,0.7-5.4l-9.3-32.5l3.5-1l31.7,5.8
	c0.6,1,1.5,1.8,2.5,2.4c1,0.6,2.2,0.9,3.3,0.9c0.6,0,1.3-0.1,1.9-0.3c3.6-1,5.8-4.8,4.7-8.4l-3.8-13.2c1.8-1,3.3-2.5,4.3-4.3
	c1.5-2.7,1.9-5.7,1-8.7c-1.5-5.1-6.3-8.4-11.4-8.3l-3.8-13.2c-1-3.6-4.8-5.7-8.5-4.7c-1.8,0.5-3.2,1.6-4.1,3.2
	c-0.6,1-0.9,2.2-0.9,3.3L57,42.3l-19.5,5.4c-1.5,0.4-2.4,2-1.9,3.4L36,53c-4.1,1.2-6.5,5.5-5.4,9.6C31.7,66.1,34.8,68.3,38.3,68.3z
	 M64.2,101.4c0.1,0.4,0.1,0.8-0.1,1.2c-0.2,0.4-0.6,0.6-1,0.8c-0.4,0.1-0.9,0.1-1.2-0.1c-0.4-0.2-0.7-0.6-0.8-1l-9.3-32.5l3.1-0.9
	L64.2,101.4z M93.6,66.1l-27.7-5l-4.4-15.5l21-18.5L93.6,66.1z M104.3,42.1c0.4,1.5,0.2,3.1-0.5,4.4c-0.3,0.5-0.6,0.9-1,1.3L99.9,38
	C101.9,38.5,103.6,40,104.3,42.1z M86.8,20.4c0.1-0.2,0.3-0.5,0.7-0.6c0.1,0,0.2,0,0.3,0c0.5,0,1,0.3,1.2,0.9l4.4,15.5l4.7,16.6
	c0,0,0,0,0,0l4.4,15.5c0.2,0.6-0.2,1.3-0.9,1.5c-0.4,0.1-0.8,0-0.9-0.1c-0.2-0.1-0.5-0.3-0.6-0.7v0L86.7,21.3
	C86.6,20.9,86.7,20.6,86.8,20.4z M56.4,48.2l3.8,13.4l-4.1,1.2h0h0l-8.5,2.4l-2.1,0.6l-3.8-13.4L56.4,48.2z M37.6,58.3l1.2,4.4
	c-1.2,0.3-2.4-0.4-2.7-1.6C35.8,59.9,36.4,58.7,37.6,58.3z M104.2,29.6c0.4,0.2,0.9,0.4,1.4,0.4c1,0,1.9-0.5,2.5-1.4l2.9-5.1
	c0.8-1.3,0.3-3-1.1-3.8c-1.3-0.8-3.1-0.3-3.8,1.1l-2.9,5.1C102.3,27.2,102.8,28.9,104.2,29.6z M119.8,54.7l-5.2-2.9
	c-1.4-0.8-3.1-0.3-3.8,1.1c-0.8,1.3-0.3,3,1.1,3.8l5.2,2.9c0.4,0.2,0.9,0.4,1.4,0.4c1,0,1.9-0.5,2.5-1.4
	C121.7,57.1,121.2,55.4,119.8,54.7z"/>
</svg>
