<?xml version="1.0" encoding="utf-8"?>
<!-- Generator: Adobe Illustrator 28.0.0, SVG Export Plug-In . SVG Version: 6.00 Build 0)  -->
<svg version="1.1" id="Layer_1" xmlns="http://www.w3.org/2000/svg" xmlns:xlink="http://www.w3.org/1999/xlink" x="0px" y="0px"
	 viewBox="0 0 136 121" style="enable-background:new 0 0 136 121;" xml:space="preserve">
<style type="text/css">
	.st0{clip-path:url(#SVGID_00000032646681870651266860000012072055043878893238_);}
</style>
<g>
	<defs>
		<rect id="SVGID_1_" x="0.5" y="0.5" width="135" height="120"/>
	</defs>
	<clipPath id="SVGID_00000070800027454762567790000011207408368338775475_">
		<use xlink:href="#SVGID_1_"  style="overflow:visible;"/>
	</clipPath>
	<g style="clip-path:url(#SVGID_00000070800027454762567790000011207408368338775475_);">
		<path d="M114.9,44C113.1,20.7,94.3,2.1,71.1,0.6C57.9-0.3,45.5,4.2,35.9,13.2C26.4,22,21,34.4,21,47.5c0,15.2,7.4,29.5,19.7,38.2
			c3.9,2.7,7.2,6.5,9.8,10.8l10.3,17.8c0.4,0.7,0.9,1.3,1.4,1.9h-7.4c-1.2,0-2.2,1-2.2,2.2s1,2.2,2.2,2.2h26c1.2,0,2.2-1,2.2-2.2
			s-0.9-2.2-2-2.2h-7.7c0.6-0.6,1.2-1.2,1.4-1.9l10-17.4c2.6-4.5,5.9-8.2,9.8-10.8C108.5,76.7,116,60.9,114.9,44z M92.2,82.6
			c-4.3,3-8.1,7.1-11.1,12.3l-10,17.4c-0.7,1.2-1.9,1.9-3.2,1.9s-2.6-0.7-3.2-1.9L54.3,94.3c-2.9-4.9-6.5-9-11-12.1
			c-11.3-8-17.9-21-17.9-34.7c0-11.9,4.8-23,13.5-31.1C46.8,8.8,57,4.8,68,4.8c0.9,0,1.9,0,2.7,0.1c21.1,1.3,38.2,18.2,39.8,39.3
			C111.7,59.6,104.7,73.9,92.2,82.6z M68,9.1c-21.1,0-38.3,17.2-38.3,38.3c0,21.1,17.2,38.3,38.3,38.3c21.1,0,38.3-17.1,38.3-38.3
			C106.3,26.2,89.1,9.1,68,9.1z M68,81.5c-18.8,0-34-15.2-34-34c0-18.8,15.2-34,34-34c18.8,0,34,15.3,34,34S86.7,81.5,68,81.5z
			 M90.9,33.9l-21.4-5.6c-1-0.3-2-0.3-3,0L45,33.9c-2,0.6-3.3,2.7-2.7,4.8c0.4,1.3,1.4,2.5,2.7,2.7l3.5,1v8.7c0,0.9,0.6,1.6,1.3,1.9
			c0.4,0.1,11.9,4.3,18.4,4.3c3.3-0.1,6.7-0.7,9.8-1.7v2c-3,1.2-4.6,4.5-3.6,7.5c1.2,3,4.5,4.6,7.5,3.6c3-1,4.6-4.5,3.6-7.5
			c-0.6-1.7-1.9-3-3.6-3.6v-3.2c2.6-0.9,4.5-1.4,4.6-1.6c0.7-0.3,1.3-1,1.3-1.9v-8.5l3.2-0.9c2-0.6,3.3-2.7,2.7-4.8
			C93.3,35.3,92.3,34.3,90.9,33.9z M79.9,65.3c-1.2,0-2-0.9-2-2s0.9-2,2-2c1.2,0,2,0.9,2,2C81.8,64.4,80.9,65.3,79.9,65.3z M68,53.4
			c-4.6,0-12.6-2.6-15.8-3.8v-6.4L66.4,47c1,0.3,2,0.3,3,0l8.2-2.2v6.7C74.7,52.7,71.3,53.2,68,53.4z M83.8,49.8
			c-0.6,0.1-1.2,0.4-2,0.7V44l2-0.6V49.8z M81,40.1c-0.1-0.1-0.3-0.3-0.6-0.3l-11.7-3.9c-1-0.3-2.2,0.1-2.5,1.3
			c-0.4,0.9,0.1,2,1.2,2.3l6.9,2.3l-5.8,1.6c-0.3,0.1-0.7,0.1-1,0l-21.4-5.6l21.4-5.6c0.3-0.1,0.7-0.1,1,0L90,37.8L81,40.1z"/>
	</g>
</g>
</svg>
