<?xml version="1.0" encoding="utf-8"?>
<!-- Generator: Adobe Illustrator 28.0.0, SVG Export Plug-In . SVG Version: 6.00 Build 0)  -->
<svg version="1.1" id="Layer_1" xmlns="http://www.w3.org/2000/svg" xmlns:xlink="http://www.w3.org/1999/xlink" x="0px" y="0px"
	 viewBox="0 0 671.7 246.6" style="enable-background:new 0 0 671.7 246.6;" xml:space="preserve">
<style type="text/css">
	.st0{fill:#FFFFFF;}
	.st1{fill:none;}
	.st2{fill:#818181;}
	.st3{fill:#FB7920;}
	.st4{fill:#13AF4D;}
</style>
<path class="st0" d="M548.3,246.6h-425C55.2,246.6,0,191.4,0,123.3v0C0,55.2,55.2,0,123.3,0h425c68.1,0,123.3,55.2,123.3,123.3v0
	C671.7,191.4,616.5,246.6,548.3,246.6z"/>
<rect y="116.5" class="st1" width="19.8" height="19.8"/>
<rect x="651.8" y="116.5" class="st1" width="19.8" height="19.8"/>
<rect x="114.3" y="226.8" class="st1" width="19.8" height="19.8"/>
<rect x="114.3" class="st1" width="19.8" height="19.8"/>
<g>
	<g>
		<path class="st2" d="M259.2,125.9c-0.3,0-0.5-0.2-0.5-0.5l-4-24.3h-0.1l-4.1,24.3c-0.1,0.3-0.2,0.5-0.5,0.5h-2.7
			c-0.3,0-0.5-0.2-0.5-0.5l-5.4-33.2c-0.1-0.3,0.1-0.5,0.4-0.5h3.1c0.3,0,0.5,0.2,0.6,0.5l3.3,24.6h0.1l4.2-24.6
			c0.1-0.4,0.2-0.5,0.5-0.5h2.2c0.3,0,0.5,0.2,0.5,0.5l4.2,24.6h0.1l3.4-24.6c0.1-0.4,0.3-0.5,0.6-0.5h3c0.4,0,0.5,0.2,0.4,0.5
			l-5.4,33.2c-0.1,0.3-0.2,0.5-0.5,0.5H259.2z"/>
		<path class="st2" d="M270.3,121.7c-0.4-1.3-0.5-2.4-0.5-7.9c0-5.5,0.1-6.6,0.5-7.9c1-2.9,3.3-4.6,6.6-4.6s5.7,1.7,6.6,4.6
			c0.4,1.3,0.5,2.4,0.5,7.9c0,5.5-0.1,6.6-0.5,7.9c-1,3-3.3,4.6-6.6,4.6S271.3,124.7,270.3,121.7z M279.9,120.6
			c0.3-0.9,0.3-1.5,0.3-6.8c0-5.2-0.1-5.9-0.3-6.7c-0.5-1.4-1.5-2.1-3-2.1s-2.5,0.8-3,2.1c-0.3,0.9-0.3,1.5-0.3,6.7
			c0,5.3,0.1,5.9,0.3,6.8c0.5,1.4,1.5,2.1,3,2.1S279.5,122,279.9,120.6z"/>
		<path class="st2" d="M289.8,125.9c-0.3,0-0.5-0.2-0.5-0.5v-23.1c0-0.3,0.2-0.5,0.5-0.5h2.9c0.3,0,0.5,0.2,0.5,0.5v2.3h0.1
			c0.8-1.9,2.4-3.2,4.8-3.2c0.3,0,0.8,0.1,1,0.1c0.3,0.1,0.4,0.3,0.3,0.6l-0.7,2.9c-0.1,0.4-0.3,0.5-0.6,0.5h-0.8
			c-2.4,0-4.1,1.7-4.1,5.2v14.9c0,0.3-0.2,0.5-0.5,0.5H289.8z"/>
		<path class="st2" d="M309,126.1c-4.4-0.2-6-2-6-6.6V92.2c0-0.3,0.2-0.5,0.5-0.5h2.9c0.3,0,0.5,0.2,0.5,0.5v27.5
			c0,1.7,0.6,2.5,2.1,2.8l0.3,0c0.3,0.1,0.5,0.3,0.5,0.6v2.6c0,0.3-0.2,0.5-0.5,0.5L309,126.1z"/>
		<path class="st2" d="M324.5,125.9c-0.3,0-0.5-0.2-0.5-0.5v-2h-0.1c-0.7,1.6-2,2.9-4.6,2.9s-4.4-1.3-5.2-3.9
			c-0.5-1.4-0.6-2.7-0.6-8.6s0.2-7.2,0.6-8.6c0.9-2.7,2.6-3.9,5.2-3.9s3.9,1.3,4.6,2.9h0.1V92.2c0-0.3,0.2-0.5,0.5-0.5h2.9
			c0.3,0,0.5,0.2,0.5,0.5v33.2c0,0.3-0.2,0.5-0.5,0.5H324.5z M323.6,120.6c0.3-0.9,0.4-1.5,0.4-6.8c0-5.2-0.1-5.9-0.4-6.7
			c-0.5-1.3-1.5-2.1-2.9-2.1c-1.5,0-2.5,0.8-3,2.1c-0.3,0.9-0.4,1.5-0.4,6.7c0,5.3,0.1,5.9,0.4,6.8c0.5,1.4,1.5,2.1,3,2.1
			C322.2,122.7,323.2,121.9,323.6,120.6z"/>
		<path class="st2" d="M347.6,125.9c-0.3,0-0.5-0.2-0.6-0.5l-3.1-15.8h-0.1l-3,15.8c0,0.4-0.2,0.5-0.6,0.5h-2.5
			c-0.4,0-0.5-0.2-0.6-0.5l-5.2-23.1c-0.1-0.3,0.1-0.5,0.4-0.5h3c0.3,0,0.5,0.2,0.5,0.5l3.2,16.4h0.1l3.2-16.4
			c0-0.3,0.2-0.5,0.6-0.5h2.1c0.3,0,0.5,0.2,0.5,0.5l3.2,16.4h0l3.2-16.4c0-0.3,0.2-0.5,0.6-0.5h3c0.3,0,0.5,0.2,0.4,0.5l-5.2,23.1
			c-0.1,0.4-0.2,0.5-0.6,0.5H347.6z"/>
		<path class="st2" d="M360.5,96.3c-0.3,0-0.5-0.2-0.5-0.5v-3.6c0-0.3,0.2-0.5,0.5-0.5h3.2c0.3,0,0.5,0.2,0.5,0.5v3.6
			c0,0.3-0.2,0.5-0.5,0.5H360.5z M360.6,125.9c-0.3,0-0.5-0.2-0.5-0.5v-23.1c0-0.3,0.2-0.5,0.5-0.5h2.9c0.3,0,0.5,0.2,0.5,0.5v23.1
			c0,0.3-0.2,0.5-0.5,0.5H360.6z"/>
		<path class="st2" d="M380.2,125.9c-0.3,0-0.5-0.2-0.5-0.5v-2h-0.1c-0.7,1.6-2,2.9-4.6,2.9c-2.6,0-4.4-1.3-5.2-3.9
			c-0.5-1.4-0.6-2.7-0.6-8.6s0.2-7.2,0.6-8.6c0.9-2.7,2.6-3.9,5.2-3.9c2.6,0,3.9,1.3,4.6,2.9h0.1V92.2c0-0.3,0.2-0.5,0.5-0.5h2.9
			c0.3,0,0.5,0.2,0.5,0.5v33.2c0,0.3-0.2,0.5-0.5,0.5H380.2z M379.3,120.6c0.3-0.9,0.4-1.5,0.4-6.8c0-5.2-0.1-5.9-0.4-6.7
			c-0.5-1.3-1.5-2.1-2.9-2.1c-1.5,0-2.5,0.8-3,2.1c-0.3,0.9-0.4,1.5-0.4,6.7c0,5.3,0.1,5.9,0.4,6.8c0.5,1.4,1.5,2.1,3,2.1
			C377.9,122.7,378.9,121.9,379.3,120.6z"/>
		<path class="st2" d="M389.3,121.8c-0.4-1.1-0.6-2.4-0.6-8c0-5.6,0.2-6.8,0.6-8c1-2.9,3.2-4.5,6.5-4.5c3.4,0,5.5,1.6,6.5,4.5
			c0.4,1.1,0.6,2.4,0.6,8.7c0,0.3-0.2,0.5-0.5,0.5h-9.5c-0.2,0-0.3,0.1-0.3,0.3c0,3.9,0.2,4.7,0.4,5.3c0.5,1.4,1.4,2.1,2.8,2.1
			c1.7,0,2.7-0.9,3.2-2.7c0.1-0.4,0.3-0.5,0.6-0.4l2.7,0.6c0.3,0.1,0.4,0.3,0.4,0.6c-0.7,3.5-3.2,5.6-6.9,5.6
			C392.4,126.4,390.3,124.8,389.3,121.8z M399,111.5c0-3.1-0.2-3.9-0.4-4.6c-0.4-1.3-1.4-2-2.8-2c-1.5,0-2.5,0.8-2.9,2
			c-0.2,0.7-0.4,1.5-0.4,4.6c0,0.2,0.1,0.3,0.3,0.3h5.8C398.9,111.8,399,111.7,399,111.5z"/>
		<path class="st2" d="M417.6,92.2c0-0.3,0.2-0.5,0.5-0.5H431c0.3,0,0.5,0.2,0.5,0.5V95c0,0.3-0.2,0.5-0.5,0.5H422
			c-0.2,0-0.3,0.1-0.3,0.3v10.7c0,0.2,0.1,0.3,0.3,0.3h7.8c0.3,0,0.5,0.2,0.5,0.5v2.8c0,0.3-0.2,0.5-0.5,0.5H422
			c-0.2,0-0.3,0.1-0.3,0.3v11c0,0.2,0.1,0.3,0.3,0.3h9.1c0.3,0,0.5,0.2,0.5,0.5v2.8c0,0.3-0.2,0.5-0.5,0.5h-12.9
			c-0.3,0-0.5-0.2-0.5-0.5V92.2z"/>
		<path class="st2" d="M446.3,125.9c-0.3,0-0.5-0.2-0.5-0.5v-2h-0.1c-0.7,1.6-2,2.9-4.6,2.9c-2.6,0-4.4-1.3-5.2-3.9
			c-0.5-1.4-0.6-2.7-0.6-8.6s0.2-7.2,0.6-8.6c0.9-2.7,2.6-3.9,5.2-3.9c2.6,0,3.9,1.3,4.6,2.9h0.1V92.2c0-0.3,0.2-0.5,0.5-0.5h2.9
			c0.3,0,0.5,0.2,0.5,0.5v33.2c0,0.3-0.2,0.5-0.5,0.5H446.3z M445.4,120.6c0.3-0.9,0.4-1.5,0.4-6.8c0-5.2-0.1-5.9-0.4-6.7
			c-0.5-1.3-1.5-2.1-2.9-2.1c-1.5,0-2.5,0.8-3,2.1c-0.3,0.9-0.4,1.5-0.4,6.7c0,5.3,0.1,5.9,0.4,6.8c0.5,1.4,1.5,2.1,3,2.1
			C444,122.7,445,121.9,445.4,120.6z"/>
		<path class="st2" d="M465.9,125.9c-0.3,0-0.5-0.2-0.5-0.5v-1.9h0c-0.7,1.6-2.1,2.9-4.5,2.9c-3.7,0-5.5-2.3-5.5-7.4v-16.6
			c0-0.3,0.2-0.5,0.5-0.5h2.9c0.3,0,0.5,0.2,0.5,0.5v16c0,2.9,1,4.4,3.1,4.4c2,0,3.1-1.5,3.1-4.4v-16c0-0.3,0.2-0.5,0.5-0.5h2.9
			c0.3,0,0.5,0.2,0.5,0.5v23.1c0,0.3-0.2,0.5-0.5,0.5H465.9z"/>
		<path class="st2" d="M475,121.9c-0.5-1.4-0.6-2.3-0.6-8c0-5.8,0.1-6.6,0.6-8c1-2.9,3.1-4.5,6.4-4.5c3.8,0,6.4,2.4,6.7,6.2
			c0,0.3-0.1,0.5-0.4,0.6l-2.7,0.5c-0.3,0.1-0.6-0.1-0.6-0.4c-0.4-2.3-1.4-3.2-3.1-3.2c-1.4,0-2.4,0.6-2.8,2
			c-0.3,0.9-0.3,1.5-0.3,6.9s0,6,0.3,6.9c0.5,1.4,1.5,2,2.8,2c1.7,0,2.7-1,3.1-3.2c0.1-0.4,0.3-0.5,0.6-0.4l2.7,0.5
			c0.3,0.1,0.4,0.3,0.4,0.6c-0.4,3.8-2.9,6.2-6.7,6.2C478.1,126.4,476,124.8,475,121.9z"/>
		<path class="st2" d="M502.4,125.9c-0.3,0-0.5-0.2-0.5-0.5v-2.1h-0.1c-0.7,1.9-2.4,3-4.5,3c-2.9,0-5.7-1.8-5.7-7.1
			c0-5.4,3.1-7.4,7.1-7.4h2.9c0.2,0,0.3-0.1,0.3-0.3v-2c0-3.2-1-4.6-3.6-4.6c-1.8,0-2.9,0.7-4.1,1.6c-0.3,0.2-0.7,0.2-0.8-0.2l-1-2
			c-0.2-0.3-0.2-0.6,0.1-0.8c1.4-1.3,3.6-2.2,6.2-2.2c4.8,0,6.8,2.2,6.8,7.9v16.1c0,0.3-0.2,0.5-0.5,0.5H502.4z M501.9,118.7v-3.3
			c0-0.2-0.1-0.3-0.3-0.3h-2.3c-2.9,0-4,1.4-4,4.1c0,2.6,1.1,3.9,3,3.9C500.5,123,501.9,121.3,501.9,118.7z"/>
		<path class="st2" d="M517.3,126.2c-3.7,0-5.3-1.7-5.3-5.7v-15.2c0-0.2-0.1-0.3-0.3-0.3h-1.5c-0.3,0-0.5-0.2-0.5-0.5v-2.1
			c0-0.3,0.2-0.5,0.5-0.5h1.5c0.2,0,0.3-0.1,0.3-0.3v-6.8c0-0.3,0.2-0.5,0.5-0.5h2.9c0.3,0,0.5,0.2,0.5,0.5v6.8
			c0,0.2,0.1,0.3,0.3,0.3h2.4c0.3,0,0.5,0.2,0.5,0.5v2.1c0,0.3-0.2,0.5-0.5,0.5h-2.4c-0.2,0-0.3,0.1-0.3,0.3v15.2
			c0,1.4,0.6,2.1,2,2.1h0.7c0.3,0,0.5,0.2,0.5,0.5v2.7c0,0.3-0.2,0.5-0.5,0.5H517.3z"/>
		<path class="st2" d="M523.8,96.3c-0.3,0-0.5-0.2-0.5-0.5v-3.6c0-0.3,0.2-0.5,0.5-0.5h3.2c0.3,0,0.5,0.2,0.5,0.5v3.6
			c0,0.3-0.2,0.5-0.5,0.5H523.8z M524,125.9c-0.3,0-0.5-0.2-0.5-0.5v-23.1c0-0.3,0.2-0.5,0.5-0.5h2.9c0.3,0,0.5,0.2,0.5,0.5v23.1
			c0,0.3-0.2,0.5-0.5,0.5H524z"/>
		<path class="st2" d="M533,121.7c-0.4-1.3-0.5-2.4-0.5-7.9c0-5.5,0.1-6.6,0.5-7.9c1-2.9,3.3-4.6,6.6-4.6s5.7,1.7,6.6,4.6
			c0.4,1.3,0.5,2.4,0.5,7.9c0,5.5-0.1,6.6-0.5,7.9c-1,3-3.3,4.6-6.6,4.6S534,124.7,533,121.7z M542.6,120.6c0.3-0.9,0.3-1.5,0.3-6.8
			c0-5.2-0.1-5.9-0.3-6.7c-0.5-1.4-1.5-2.1-3-2.1c-1.5,0-2.5,0.8-3,2.1c-0.3,0.9-0.3,1.5-0.3,6.7c0,5.3,0,5.9,0.3,6.8
			c0.5,1.4,1.5,2.1,3,2.1C541.2,122.7,542.2,122,542.6,120.6z"/>
		<path class="st2" d="M562.7,125.9c-0.3,0-0.5-0.2-0.5-0.5v-16c0-2.9-1-4.4-3.2-4.4c-2,0-3.2,1.4-3.2,4.4v16c0,0.3-0.2,0.5-0.5,0.5
			h-2.9c-0.3,0-0.5-0.2-0.5-0.5v-23.1c0-0.3,0.2-0.5,0.5-0.5h2.9c0.3,0,0.5,0.2,0.5,0.5v1.9h0c0.8-1.6,2.2-2.9,4.6-2.9
			c3.7,0,5.6,2.3,5.6,7.4v16.7c0,0.3-0.2,0.5-0.5,0.5H562.7z"/>
		<path class="st2" d="M581.4,92.2c0-0.3,0.2-0.5,0.5-0.5h12.9c0.3,0,0.5,0.2,0.5,0.5V95c0,0.3-0.2,0.5-0.5,0.5h-9.1
			c-0.2,0-0.3,0.1-0.3,0.3v10.9c0,0.2,0.1,0.3,0.3,0.3h7.8c0.3,0,0.5,0.2,0.5,0.5v2.8c0,0.3-0.2,0.5-0.5,0.5h-7.8
			c-0.2,0-0.3,0.1-0.3,0.3v14.4c0,0.3-0.2,0.5-0.5,0.5h-3.1c-0.3,0-0.5-0.2-0.5-0.5V92.2z"/>
		<path class="st2" d="M609.1,125.9c-0.3,0-0.5-0.2-0.5-0.5v-1.9h0c-0.7,1.6-2.1,2.9-4.5,2.9c-3.7,0-5.5-2.3-5.5-7.4v-16.6
			c0-0.3,0.2-0.5,0.5-0.5h2.9c0.3,0,0.5,0.2,0.5,0.5v16c0,2.9,1,4.4,3.1,4.4c2,0,3.1-1.5,3.1-4.4v-16c0-0.3,0.2-0.5,0.5-0.5h2.9
			c0.3,0,0.5,0.2,0.5,0.5v23.1c0,0.3-0.2,0.5-0.5,0.5H609.1z"/>
		<path class="st2" d="M629.1,125.9c-0.3,0-0.5-0.2-0.5-0.5v-16c0-2.9-1-4.4-3.2-4.4c-2,0-3.2,1.4-3.2,4.4v16c0,0.3-0.2,0.5-0.5,0.5
			h-2.9c-0.3,0-0.5-0.2-0.5-0.5v-23.1c0-0.3,0.2-0.5,0.5-0.5h2.9c0.3,0,0.5,0.2,0.5,0.5v1.9h0c0.8-1.6,2.2-2.9,4.6-2.9
			c3.7,0,5.6,2.3,5.6,7.4v16.7c0,0.3-0.2,0.5-0.5,0.5H629.1z"/>
		<path class="st2" d="M648.5,125.9c-0.3,0-0.5-0.2-0.5-0.5v-2h-0.1c-0.7,1.6-2,2.9-4.6,2.9c-2.6,0-4.4-1.3-5.2-3.9
			c-0.5-1.4-0.6-2.7-0.6-8.6s0.2-7.2,0.6-8.6c0.9-2.7,2.6-3.9,5.2-3.9c2.6,0,3.9,1.3,4.6,2.9h0.1V92.2c0-0.3,0.2-0.5,0.5-0.5h2.9
			c0.3,0,0.5,0.2,0.5,0.5v33.2c0,0.3-0.2,0.5-0.5,0.5H648.5z M647.6,120.6c0.3-0.9,0.4-1.5,0.4-6.8c0-5.2-0.1-5.9-0.4-6.7
			c-0.5-1.3-1.5-2.1-2.9-2.1c-1.5,0-2.5,0.8-3,2.1c-0.3,0.9-0.4,1.5-0.4,6.7c0,5.3,0.1,5.9,0.4,6.8c0.5,1.4,1.5,2.1,3,2.1
			C646.1,122.7,647.1,121.9,647.6,120.6z"/>
		<path class="st3" d="M242.9,163.2c-0.4-1.3-0.5-2.4-0.5-7.9c0-5.5,0.1-6.6,0.5-7.9c1-2.9,3.3-4.6,6.6-4.6s5.7,1.7,6.6,4.6
			c0.4,1.3,0.5,2.4,0.5,7.9c0,5.5-0.1,6.6-0.5,7.9c-1,3-3.3,4.6-6.6,4.6S243.8,166.1,242.9,163.2z M252.5,162
			c0.3-0.9,0.3-1.5,0.3-6.8c0-5.2-0.1-5.9-0.3-6.7c-0.5-1.4-1.5-2.1-3-2.1s-2.5,0.8-3,2.1c-0.3,0.9-0.3,1.5-0.3,6.7
			c0,5.3,0.1,5.9,0.3,6.8c0.5,1.4,1.5,2.1,3,2.1S252,163.4,252.5,162z"/>
		<path class="st3" d="M263.1,167.3c-0.3,0-0.5-0.2-0.5-0.5v-20.2c0-0.2-0.1-0.3-0.3-0.3h-1.5c-0.3,0-0.5-0.2-0.5-0.5v-2.1
			c0-0.3,0.2-0.5,0.5-0.5h1.5c0.2,0,0.3-0.1,0.3-0.3v-3.2c0-4.2,1.8-6.6,6.3-6.6h0.9c0.3,0,0.5,0.2,0.5,0.5v2.7
			c0,0.3-0.2,0.5-0.5,0.5h-1.2c-1.6,0-2.2,0.6-2.2,2.3v3.9c0,0.2,0.1,0.3,0.3,0.3h3c0.3,0,0.5,0.2,0.5,0.5v2.1
			c0,0.3-0.2,0.5-0.5,0.5h-3c-0.2,0-0.3,0.1-0.3,0.3v20.2c0,0.3-0.2,0.5-0.5,0.5H263.1z"/>
		<path class="st3" d="M287.9,167.3c-0.3,0-0.5-0.2-0.5-0.5v-29.6c0-0.2-0.1-0.3-0.3-0.3h-5.6c-0.3,0-0.5-0.2-0.5-0.5v-2.8
			c0-0.3,0.2-0.5,0.5-0.5h15.9c0.3,0,0.5,0.2,0.5,0.5v2.8c0,0.3-0.2,0.5-0.5,0.5h-5.6c-0.2,0-0.3,0.1-0.3,0.3v29.6
			c0,0.3-0.2,0.5-0.5,0.5H287.9z"/>
		<path class="st3" d="M312.4,167.3c-0.3,0-0.5-0.2-0.5-0.5v-16c0-2.9-1-4.4-3.2-4.4c-2,0-3.2,1.4-3.2,4.4v16c0,0.3-0.2,0.5-0.5,0.5
			h-2.9c-0.3,0-0.5-0.2-0.5-0.5v-33.2c0-0.3,0.2-0.5,0.5-0.5h2.9c0.3,0,0.5,0.2,0.5,0.5v12h0.1c0.8-1.6,2.2-2.9,4.6-2.9
			c3.7,0,5.6,2.3,5.6,7.4v16.7c0,0.3-0.2,0.5-0.5,0.5H312.4z"/>
		<path class="st3" d="M321.3,163.3c-0.4-1.1-0.6-2.4-0.6-8c0-5.6,0.2-6.8,0.6-8c1-2.9,3.2-4.5,6.5-4.5s5.5,1.6,6.5,4.5
			c0.4,1.1,0.6,2.4,0.6,8.7c0,0.3-0.2,0.5-0.5,0.5h-9.5c-0.2,0-0.3,0.1-0.3,0.3c0,3.9,0.2,4.7,0.4,5.3c0.5,1.4,1.4,2.1,2.8,2.1
			c1.7,0,2.7-0.9,3.2-2.7c0.1-0.4,0.3-0.5,0.6-0.4l2.7,0.6c0.3,0.1,0.4,0.3,0.4,0.6c-0.7,3.5-3.2,5.6-6.9,5.6
			C324.4,167.8,322.3,166.2,321.3,163.3z M331,152.9c0-3.1-0.2-3.9-0.4-4.6c-0.4-1.3-1.4-2-2.8-2c-1.5,0-2.5,0.8-2.9,2
			c-0.2,0.7-0.4,1.5-0.4,4.6c0,0.2,0.1,0.3,0.3,0.3h5.8C330.9,153.2,331,153.1,331,152.9z"/>
		<path class="st3" d="M349.6,133.6c0-0.3,0.2-0.5,0.5-0.5h7.1c4.3,0,6.8,1.8,7.9,5.3c0.6,1.9,0.8,4.1,0.8,11.8s-0.2,9.9-0.8,11.8
			c-1.1,3.5-3.6,5.3-7.9,5.3h-7.1c-0.3,0-0.5-0.2-0.5-0.5V133.6z M353.9,163.6h2.8c2.3,0,3.6-0.9,4.3-2.9c0.5-1.4,0.7-3.3,0.7-10.4
			s-0.2-9-0.7-10.4c-0.7-2-2-2.9-4.3-2.9h-2.8c-0.2,0-0.3,0.1-0.3,0.3v26.1C353.6,163.5,353.7,163.6,353.9,163.6z"/>
		<path class="st3" d="M381.1,167.3c-0.3,0-0.5-0.2-0.5-0.5v-2.1h-0.1c-0.7,1.9-2.4,3-4.5,3c-2.9,0-5.7-1.8-5.7-7.1
			c0-5.4,3.1-7.4,7.1-7.4h2.9c0.2,0,0.3-0.1,0.3-0.3v-2c0-3.2-1-4.6-3.6-4.6c-1.8,0-2.9,0.7-4.1,1.6c-0.3,0.2-0.7,0.2-0.8-0.2l-1-2
			c-0.2-0.3-0.2-0.6,0.1-0.8c1.4-1.3,3.6-2.2,6.2-2.2c4.8,0,6.8,2.2,6.8,7.9v16.1c0,0.3-0.2,0.5-0.5,0.5H381.1z M380.6,160.1v-3.3
			c0-0.2-0.1-0.3-0.3-0.3H378c-2.9,0-4,1.4-4,4.1c0,2.6,1.1,3.9,3,3.9C379.1,164.5,380.6,162.7,380.6,160.1z"/>
		<path class="st3" d="M395.9,167.5c-4.4-0.2-6-2-6-6.6v-27.3c0-0.3,0.2-0.5,0.5-0.5h2.9c0.3,0,0.5,0.2,0.5,0.5v27.5
			c0,1.7,0.6,2.5,2.1,2.8l0.3,0c0.3,0.1,0.5,0.3,0.5,0.6v2.6c0,0.3-0.2,0.5-0.5,0.5L395.9,167.5z"/>
		<path class="st3" d="M406.9,167.5c-4.4-0.2-6-2-6-6.6v-27.3c0-0.3,0.2-0.5,0.5-0.5h2.9c0.3,0,0.5,0.2,0.5,0.5v27.5
			c0,1.7,0.6,2.5,2.1,2.8l0.3,0c0.3,0.1,0.5,0.3,0.5,0.6v2.6c0,0.3-0.2,0.5-0.5,0.5L406.9,167.5z"/>
		<path class="st3" d="M421.9,167.3c-0.3,0-0.5-0.2-0.5-0.5v-2.1h-0.1c-0.7,1.9-2.4,3-4.5,3c-2.9,0-5.7-1.8-5.7-7.1
			c0-5.4,3.1-7.4,7.1-7.4h2.9c0.2,0,0.3-0.1,0.3-0.3v-2c0-3.2-1-4.6-3.6-4.6c-1.8,0-2.9,0.7-4.1,1.6c-0.3,0.2-0.7,0.2-0.8-0.2l-1-2
			c-0.2-0.3-0.2-0.6,0.1-0.8c1.4-1.3,3.6-2.2,6.2-2.2c4.8,0,6.8,2.2,6.8,7.9v16.1c0,0.3-0.2,0.5-0.5,0.5H421.9z M421.4,160.1v-3.3
			c0-0.2-0.1-0.3-0.3-0.3h-2.3c-2.9,0-4,1.4-4,4.1c0,2.6,1.1,3.9,3,3.9C419.9,164.5,421.4,162.7,421.4,160.1z"/>
		<path class="st3" d="M429.5,161.6c-0.1-0.3,0.1-0.6,0.4-0.6l2.6-0.5c0.3-0.1,0.6,0.1,0.6,0.4c0.3,2.5,1.7,3.5,3.4,3.5
			c2,0,3.2-1.2,3.2-3.5c0-1.9-0.7-3-2.8-3.8l-2-0.8c-3.1-1.2-5-3.3-5-6.8c0-3.9,2.5-6.8,6.6-6.8c4,0,6.1,2.5,6.4,5.4
			c0.1,0.4-0.1,0.6-0.4,0.7l-2.4,0.5c-0.3,0-0.5-0.1-0.6-0.4c-0.5-1.8-1.2-2.8-3.1-2.8c-1.9,0-2.9,1.3-2.9,3.2
			c0,1.5,0.6,2.6,2.8,3.5l2,0.8c3.7,1.4,4.9,3.6,4.9,7.1c0,4.2-2.5,7.1-6.9,7.1C432.4,167.8,429.9,165.6,429.5,161.6z"/>
		<path class="st3" d="M457.6,133.6c0-0.3,0.2-0.5,0.5-0.5H471c0.3,0,0.5,0.2,0.5,0.5v2.8c0,0.3-0.2,0.5-0.5,0.5H462
			c-0.2,0-0.3,0.1-0.3,0.3v10.9c0,0.2,0.1,0.3,0.3,0.3h7.8c0.3,0,0.5,0.2,0.5,0.5v2.8c0,0.3-0.2,0.5-0.5,0.5H462
			c-0.2,0-0.3,0.1-0.3,0.3v14.4c0,0.3-0.2,0.5-0.5,0.5h-3.1c-0.3,0-0.5-0.2-0.5-0.5V133.6z"/>
		<path class="st3" d="M474.5,163.2c-0.4-1.3-0.5-2.4-0.5-7.9c0-5.5,0.1-6.6,0.5-7.9c1-2.9,3.3-4.6,6.6-4.6s5.7,1.7,6.6,4.6
			c0.4,1.3,0.5,2.4,0.5,7.9c0,5.5-0.1,6.6-0.5,7.9c-1,3-3.3,4.6-6.6,4.6S475.4,166.1,474.5,163.2z M484.1,162
			c0.3-0.9,0.3-1.5,0.3-6.8c0-5.2-0.1-5.9-0.3-6.7c-0.5-1.4-1.5-2.1-3-2.1c-1.5,0-2.5,0.8-3,2.1c-0.3,0.9-0.3,1.5-0.3,6.7
			c0,5.3,0,5.9,0.3,6.8c0.5,1.4,1.5,2.1,3,2.1C482.6,164.2,483.6,163.4,484.1,162z"/>
		<path class="st3" d="M503.8,167.3c-0.3,0-0.5-0.2-0.5-0.5v-1.9h0c-0.7,1.6-2.1,2.9-4.5,2.9c-3.7,0-5.5-2.3-5.5-7.4v-16.6
			c0-0.3,0.2-0.5,0.5-0.5h2.9c0.3,0,0.5,0.2,0.5,0.5v16c0,2.9,1,4.4,3.1,4.4c2,0,3.1-1.5,3.1-4.4v-16c0-0.3,0.2-0.5,0.5-0.5h2.9
			c0.3,0,0.5,0.2,0.5,0.5v23.1c0,0.3-0.2,0.5-0.5,0.5H503.8z"/>
		<path class="st3" d="M523.8,167.3c-0.3,0-0.5-0.2-0.5-0.5v-16c0-2.9-1-4.4-3.2-4.4c-2,0-3.2,1.4-3.2,4.4v16c0,0.3-0.2,0.5-0.5,0.5
			h-2.9c-0.3,0-0.5-0.2-0.5-0.5v-23.1c0-0.3,0.2-0.5,0.5-0.5h2.9c0.3,0,0.5,0.2,0.5,0.5v1.9h0c0.8-1.6,2.2-2.9,4.6-2.9
			c3.7,0,5.6,2.3,5.6,7.4v16.7c0,0.3-0.2,0.5-0.5,0.5H523.8z"/>
		<path class="st3" d="M543.2,167.3c-0.3,0-0.5-0.2-0.5-0.5v-2h-0.1c-0.7,1.6-2,2.9-4.6,2.9c-2.6,0-4.4-1.3-5.2-3.9
			c-0.5-1.4-0.6-2.7-0.6-8.6c0-5.9,0.2-7.2,0.6-8.6c0.9-2.7,2.6-3.9,5.2-3.9c2.6,0,3.9,1.3,4.6,2.9h0.1v-12.1c0-0.3,0.2-0.5,0.5-0.5
			h2.9c0.3,0,0.5,0.2,0.5,0.5v33.2c0,0.3-0.2,0.5-0.5,0.5H543.2z M542.3,162c0.3-0.9,0.4-1.5,0.4-6.8c0-5.2-0.1-5.9-0.4-6.7
			c-0.5-1.3-1.5-2.1-2.9-2.1c-1.5,0-2.5,0.8-3,2.1c-0.3,0.9-0.4,1.5-0.4,6.7c0,5.3,0.1,5.9,0.4,6.8c0.5,1.4,1.5,2.1,3,2.1
			C540.9,164.2,541.9,163.4,542.3,162z"/>
		<path class="st3" d="M562.2,167.3c-0.3,0-0.5-0.2-0.5-0.5v-2.1h-0.1c-0.7,1.9-2.4,3-4.5,3c-2.9,0-5.7-1.8-5.7-7.1
			c0-5.4,3.1-7.4,7.1-7.4h2.9c0.2,0,0.3-0.1,0.3-0.3v-2c0-3.2-1-4.6-3.6-4.6c-1.8,0-2.9,0.7-4.1,1.6c-0.3,0.2-0.7,0.2-0.8-0.2l-1-2
			c-0.2-0.3-0.2-0.6,0.1-0.8c1.4-1.3,3.6-2.2,6.2-2.2c4.8,0,6.8,2.2,6.8,7.9v16.1c0,0.3-0.2,0.5-0.5,0.5H562.2z M561.7,160.1v-3.3
			c0-0.2-0.1-0.3-0.3-0.3h-2.3c-2.9,0-4,1.4-4,4.1c0,2.6,1.1,3.9,3,3.9C560.3,164.5,561.7,162.7,561.7,160.1z"/>
		<path class="st3" d="M577.1,167.6c-3.7,0-5.3-1.7-5.3-5.7v-15.2c0-0.2-0.1-0.3-0.3-0.3H570c-0.3,0-0.5-0.2-0.5-0.5v-2.1
			c0-0.3,0.2-0.5,0.5-0.5h1.5c0.2,0,0.3-0.1,0.3-0.3v-6.8c0-0.3,0.2-0.5,0.5-0.5h2.9c0.3,0,0.5,0.2,0.5,0.5v6.8
			c0,0.2,0.1,0.3,0.3,0.3h2.4c0.3,0,0.5,0.2,0.5,0.5v2.1c0,0.3-0.2,0.5-0.5,0.5H576c-0.2,0-0.3,0.1-0.3,0.3v15.2
			c0,1.4,0.6,2.1,2,2.1h0.7c0.3,0,0.5,0.2,0.5,0.5v2.7c0,0.3-0.2,0.5-0.5,0.5H577.1z"/>
		<path class="st3" d="M583.6,137.7c-0.3,0-0.5-0.2-0.5-0.5v-3.6c0-0.3,0.2-0.5,0.5-0.5h3.2c0.3,0,0.5,0.2,0.5,0.5v3.6
			c0,0.3-0.2,0.5-0.5,0.5H583.6z M583.8,167.3c-0.3,0-0.5-0.2-0.5-0.5v-23.1c0-0.3,0.2-0.5,0.5-0.5h2.9c0.3,0,0.5,0.2,0.5,0.5v23.1
			c0,0.3-0.2,0.5-0.5,0.5H583.8z"/>
		<path class="st3" d="M592.8,163.2c-0.4-1.3-0.5-2.4-0.5-7.9c0-5.5,0.1-6.6,0.5-7.9c1-2.9,3.3-4.6,6.6-4.6s5.7,1.7,6.6,4.6
			c0.4,1.3,0.5,2.4,0.5,7.9c0,5.5-0.1,6.6-0.5,7.9c-1,3-3.3,4.6-6.6,4.6S593.8,166.1,592.8,163.2z M602.4,162
			c0.3-0.9,0.3-1.5,0.3-6.8c0-5.2-0.1-5.9-0.3-6.7c-0.5-1.4-1.5-2.1-3-2.1c-1.5,0-2.5,0.8-3,2.1c-0.3,0.9-0.3,1.5-0.3,6.7
			c0,5.3,0,5.9,0.3,6.8c0.5,1.4,1.5,2.1,3,2.1C601,164.2,602,163.4,602.4,162z"/>
		<path class="st3" d="M622.6,167.3c-0.3,0-0.5-0.2-0.5-0.5v-16c0-2.9-1-4.4-3.2-4.4c-2,0-3.2,1.4-3.2,4.4v16c0,0.3-0.2,0.5-0.5,0.5
			h-2.9c-0.3,0-0.5-0.2-0.5-0.5v-23.1c0-0.3,0.2-0.5,0.5-0.5h2.9c0.3,0,0.5,0.2,0.5,0.5v1.9h0c0.8-1.6,2.2-2.9,4.6-2.9
			c3.7,0,5.6,2.3,5.6,7.4v16.7c0,0.3-0.2,0.5-0.5,0.5H622.6z"/>
	</g>
</g>
<circle class="st0" cx="214.9" cy="123.3" r="3.5"/>
<circle class="st0" cx="31.8" cy="123.3" r="3.5"/>
<g>
	<circle class="st0" cx="123.3" cy="123.3" r="103.5"/>
</g>
<path class="st3" d="M119.7,83.2c0-2,1.6-3.6,3.6-3.6c2,0,3.6,1.6,3.6,3.6c0,2-1.6,3.6-3.6,3.6C121.4,86.8,119.8,85.2,119.7,83.2
	 M132.2,77.6c0,0.1,0,0.1,0,0.2c0,0.1-0.1,0.1-0.1,0.1c-0.1,0-0.1,0.1-0.2,0.1c-0.1,0-0.1,0-0.2,0c-2.8-1.1-5.5-1.2-8.2,0
	c0,0-0.1,0-0.2,0c-0.1,0-0.1,0-0.2,0c-2.9-1-5.6-1-8.1,0c-0.1,0-0.1,0-0.2,0c-0.1,0-0.1,0-0.2-0.1c-0.1,0-0.1-0.1-0.1-0.1
	c0-0.1,0-0.1,0-0.2l0-11.4c0-0.1,0-0.2,0.1-0.3c0.1-0.1,0.1-0.1,0.2-0.1c2.9-0.8,5.8-0.7,8.5-0.1c1.2-0.4,2.5-0.6,3.9-0.6
	c1.5,0,3.1,0.2,4.7,0.6c0.1,0,0.2,0.1,0.2,0.1c0.1,0.1,0.1,0.2,0.1,0.3L132.2,77.6z M122.2,76.1l0-8.9c-1.1-0.2-2.2-0.3-3.2-0.3
	l-0.1,0c-1,0-2,0.1-3,0.3l0,8.9c0.9-0.2,1.9-0.4,2.9-0.4l0,0C120,75.7,121.1,75.9,122.2,76.1z M130.6,76.1l0-8.9
	c-1.2-0.3-2.3-0.4-3.4-0.4l-0.1,0c-1,0-1.9,0.1-2.8,0.4l0,8.9c0.9-0.3,1.9-0.4,2.9-0.4h0C128.4,75.6,129.5,75.8,130.6,76.1z
	 M126.6,99.2c0-2.3-0.1-4.6,0.3-6.4c0.6-3.3,2.7-5.1,4.8-6.5c0.6-0.4,0-1.5-0.5-1.3c-0.1,0-0.2,0.1-0.4,0.1
	c-1.1,0.4-4.6,1.8-7.5,5.1c-2.9-3.3-6.4-4.7-7.5-5c-0.1-0.1-0.3-0.1-0.4-0.1c-0.5-0.2-1.1,0.9-0.5,1.3c2.1,1.4,4.2,3.1,4.9,6.4
	c0.3,1.8,0.4,4.1,0.3,6.4C122.3,98.9,124.5,98.9,126.6,99.2z M85.5,114.4c-1.9-0.6-2.9-2.6-2.3-4.5c0.6-1.9,2.6-2.9,4.5-2.3
	c1.9,0.6,2.9,2.6,2.3,4.5C89.4,113.9,87.4,115,85.5,114.4 M84.3,101.5c-1.9,2.3-2.9,4.8-2.6,7.8c0,0.1,0,0.1,0,0.2
	c0,0.1,0,0.1-0.1,0.1c-1.8,2.4-2.7,5-2.5,7.7c0,0.1,0,0.1,0,0.2c0,0.1-0.1,0.1-0.1,0.2c-0.1,0-0.1,0.1-0.2,0.1c-0.1,0-0.1,0-0.2,0
	l-10.8-3.5c-0.1,0-0.2-0.1-0.2-0.2c0-0.1-0.1-0.2-0.1-0.3c0.1-3,1.1-5.7,2.6-8.1c0-1.3,0.2-2.6,0.6-3.9c0.5-1.4,1.2-2.8,2.1-4.2
	c0-0.1,0.1-0.1,0.2-0.2c0.1,0,0.2,0,0.3,0l10.8,3.5c0.1,0,0.1,0.1,0.2,0.1c0,0,0.1,0.1,0.1,0.2c0,0.1,0,0.1,0,0.2
	C84.4,101.4,84.4,101.4,84.3,101.5z M79.6,109.8l-8.5-2.8c-0.6,1-1,2-1.3,2.9l0,0c-0.3,1-0.5,1.9-0.6,2.9l8.5,2.8
	c0.1-1,0.3-1.9,0.6-2.9C78.5,111.8,79,110.8,79.6,109.8z M82.2,101.8L73.7,99c-0.6,1.1-1.1,2.1-1.4,3.1l0,0
	c-0.3,0.9-0.5,1.8-0.5,2.7l8.5,2.8c0-1,0.2-1.9,0.5-2.9C81,103.8,81.5,102.8,82.2,101.8z M96.9,110.6c-3-1.7-4-4.2-4.6-6.6
	c-0.2-0.7-1.4-0.4-1.4,0.1c0,0.1,0,0.2,0,0.4c0,1.2,0.2,4.9,2.5,8.7c-4.1,1.8-6.4,4.6-7.1,5.6c-0.1,0.1-0.2,0.2-0.2,0.3
	c-0.3,0.4,0.5,1.3,1,0.9c2-1.6,4.3-3,7.6-2.6c1.4,0.2,3.1,0.7,4.8,1.2c0.4-2.1,1.1-4.2,2.1-6.2C99.8,111.9,98.1,111.3,96.9,110.6z
	 M103.6,158c-1.2,1.6-3.4,2-5,0.8s-2-3.4-0.8-5c1.2-1.6,3.4-2,5-0.8S104.7,156.4,103.6,158 M104.7,165.4c0,0.1,0,0.1-0.1,0.2
	l-6.7,9.2c-0.1,0.1-0.1,0.1-0.2,0.2c-0.1,0-0.2,0-0.3,0c-2.8-1.1-5.1-2.8-6.9-5c-1.3-0.4-2.4-1-3.5-1.8c-1.2-0.9-2.3-2-3.4-3.3
	c-0.1-0.1-0.1-0.2-0.1-0.2c0-0.1,0-0.2,0.1-0.3l6.7-9.2c0-0.1,0.1-0.1,0.2-0.1c0.1,0,0.1,0,0.2,0c0.1,0,0.1,0,0.2,0.1
	c0.1,0,0.1,0.1,0.1,0.1c1.6,2.5,3.7,4.2,6.6,4.8c0.1,0,0.1,0,0.1,0.1c0,0,0.1,0.1,0.1,0.1c1.8,2.5,3.9,4.1,6.6,4.8
	c0.1,0,0.1,0,0.2,0.1c0,0,0.1,0.1,0.1,0.2C104.7,165.3,104.7,165.4,104.7,165.4z M95.6,161.1c-0.9-0.3-1.8-0.8-2.6-1.4
	c-0.9-0.6-1.7-1.4-2.4-2.3l-5.2,7.2c0.8,0.9,1.7,1.7,2.5,2.3l0,0c0.8,0.6,1.6,1,2.4,1.3L95.6,161.1z M102.4,166
	c-0.9-0.4-1.8-0.8-2.6-1.4c-0.9-0.6-1.7-1.4-2.4-2.3l-5.2,7.2c0.8,0.8,1.6,1.5,2.4,2.1l0,0c0.8,0.6,1.7,1.1,2.6,1.5L102.4,166z
	 M107.1,141.5c-1.2,1.7-2.5,3.4-3.7,4.6c-2.5,2.3-5.2,2.5-7.7,2.4c-0.7,0-0.8,1.2-0.3,1.3c0.1,0.1,0.2,0.1,0.4,0.1
	c1.1,0.4,4.7,1.3,9.1,0.3c0.4,4.4,2.4,7.5,3.1,8.5c0.1,0.1,0.2,0.2,0.2,0.3c0.3,0.4,1.4,0,1.2-0.7c-0.9-2.4-1.6-5-0.1-8.1
	c0.7-1.6,2-3.4,3.3-5.1c-1.2-0.6-2.4-1.3-3.5-2.1C108.4,142.5,107.7,142,107.1,141.5z M148.9,153.8c1.2,1.6,0.8,3.8-0.8,5
	c-1.6,1.2-3.8,0.8-5-0.8s-0.8-3.8,0.8-5C145.5,151.9,147.7,152.2,148.9,153.8 M163.2,164.6c0,0.1,0,0.2-0.1,0.2
	c-1.9,2.4-4.3,4-6.9,5.1c-0.8,1.1-1.7,2-2.8,2.8c-1.2,0.9-2.6,1.6-4.2,2.2c-0.1,0-0.2,0-0.3,0c-0.1,0-0.2-0.1-0.2-0.2l-6.7-9.2
	c0-0.1-0.1-0.1-0.1-0.2c0-0.1,0-0.1,0-0.2c0-0.1,0.1-0.1,0.1-0.2c0,0,0.1-0.1,0.2-0.1c2.9-0.8,5.2-2.2,6.6-4.8c0,0,0.1-0.1,0.1-0.1
	s0.1-0.1,0.1-0.1c2.9-0.9,5.1-2.5,6.6-4.8c0-0.1,0.1-0.1,0.1-0.1c0.1,0,0.1-0.1,0.2-0.1c0.1,0,0.1,0,0.2,0c0.1,0,0.1,0.1,0.2,0.1
	l6.7,9.2C163.2,164.4,163.2,164.5,163.2,164.6z M154.6,169.6l-5.2-7.2c-0.6,0.8-1.3,1.4-2.1,2c-0.9,0.6-1.8,1.2-2.9,1.6l5.3,7.2
	c1.1-0.5,2.1-1.1,3-1.7l0,0C153.3,170.9,154,170.3,154.6,169.6z M161.4,164.5l-5.2-7.2c-0.6,0.8-1.3,1.4-2.1,2
	c-0.9,0.6-1.8,1.2-2.9,1.6l5.3,7.2c1-0.5,1.9-1,2.8-1.6l0,0C160,166,160.7,165.3,161.4,164.5z M137.5,150.3c1.4,3.1,0.8,5.7-0.1,8.1
	c-0.2,0.7,0.9,1.2,1.2,0.7c0.1-0.1,0.1-0.2,0.2-0.3c0.7-1,2.7-4.1,3.1-8.5c4.3,1,7.9,0,9.1-0.3c0.1,0,0.3-0.1,0.4-0.1
	c0.5-0.1,0.4-1.4-0.3-1.3c-2.5,0.1-5.2,0-7.7-2.4c-1.2-1.1-2.5-2.8-3.7-4.6c-1.7,1.5-3.5,2.7-5.4,3.7
	C135.5,146.9,136.8,148.7,137.5,150.3z M158.9,107.6c1.9-0.6,3.9,0.4,4.5,2.3s-0.4,3.9-2.3,4.5s-3.9-0.4-4.5-2.3
	C156,110.2,157,108.2,158.9,107.6 M179.1,113.8c0,0.1,0,0.2-0.1,0.3c0,0.1-0.1,0.1-0.2,0.2l-10.8,3.5c-0.1,0-0.1,0-0.2,0
	c-0.1,0-0.1,0-0.2-0.1c-0.1,0-0.1-0.1-0.1-0.2c0-0.1,0-0.1,0-0.2c0.2-3-0.5-5.6-2.5-7.8c0,0-0.1-0.1-0.1-0.1c0,0,0-0.1,0-0.2
	c0.1-3.1-0.7-5.6-2.5-7.7c0-0.1-0.1-0.1-0.1-0.2c0-0.1,0-0.1,0-0.2c0-0.1,0.1-0.1,0.1-0.2c0,0,0.1-0.1,0.2-0.1l10.8-3.5
	c0.1,0,0.2,0,0.3,0c0.1,0,0.2,0.1,0.2,0.2c1.7,2.5,2.4,5.3,2.7,8.1c0.8,1,1.4,2.2,1.8,3.5C178.8,110.5,179,112.1,179.1,113.8z
	 M166.4,107.7l8.5-2.8c-0.1-1.1-0.4-2.2-0.7-3.1l0,0c-0.3-1-0.7-1.9-1.2-2.7l-8.5,2.8c0.5,0.8,0.9,1.7,1.2,2.7
	C166.1,105.5,166.3,106.6,166.4,107.7z M177.5,113c-0.1-1.2-0.3-2.4-0.7-3.3l0,0c-0.3-0.9-0.7-1.8-1.2-2.5l-8.5,2.7
	c0.5,0.8,1,1.7,1.3,2.6c0.3,1,0.5,2.1,0.6,3.3L177.5,113z M160.7,119.1c0-0.1-0.1-0.2-0.2-0.3c-0.7-1-3.1-3.8-7.1-5.6
	c2.3-3.8,2.5-7.5,2.5-8.7c0-0.1,0-0.3,0-0.4c0-0.5-1.2-0.8-1.4-0.1c-0.7,2.5-1.7,5-4.6,6.6c-1.3,0.7-2.9,1.3-4.7,1.9
	c1,2,1.7,4,2.1,6.2c1.7-0.6,3.4-1,4.8-1.2c3.4-0.4,5.7,1,7.6,2.6C160.2,120.4,161,119.5,160.7,119.1z"/>
<g>
	<path class="st4" d="M184.1,39.6C137.8,6,73.1,16.3,39.6,62.6s-23.3,111,23,144.5s111,23.3,144.5-23S230.3,73.1,184.1,39.6z
		 M187.8,170.1c-25.8,35.6-75.6,43.5-111.2,17.7S33.1,112.2,58.9,76.6s75.6-43.5,111.2-17.7S213.6,134.5,187.8,170.1z M123.4,51.4
		c14.6,0,29.4,4.5,42.2,13.7c32.2,23.3,39.3,68.3,16,100.5c-14.1,19.4-36,29.7-58.3,29.7c-14.6,0-29.4-4.5-42.2-13.7
		c-32.2-23.3-39.3-68.3-16-100.5C79.2,61.7,101.1,51.4,123.4,51.4 M123.4,49.2v2.1V49.2L123.4,49.2c-23.7,0-46.1,11.4-60,30.6
		c-24,33.1-16.6,79.5,16.5,103.4c12.7,9.2,27.7,14.1,43.4,14.1c23.7,0,46.1-11.4,60-30.6c24-33.1,16.6-79.5-16.5-103.4
		C154.1,54.1,139.1,49.2,123.4,49.2L123.4,49.2z M41.8,104.5c0,0.1-0.1,0.2-0.3,0.2l-11-0.5l0,0l10.2,4c0.1,0,0.2,0.1,0.2,0.3
		l-0.2,1.2c0,0.1-0.1,0.2-0.3,0.2l-14.9-0.6c-0.1,0-0.2-0.1-0.2-0.2l0.3-1.3c0-0.1,0.1-0.2,0.3-0.2l11,0.8l0,0l-10.3-4
		c-0.1-0.1-0.2-0.1-0.2-0.3l0.2-1c0-0.1,0.1-0.2,0.3-0.2l11.1,0.4l0,0l-10.4-3.7c-0.1-0.1-0.2-0.2-0.2-0.3l0.3-1.3
		c0-0.2,0.1-0.2,0.3-0.1l14,5.3c0.1,0,0.2,0.1,0.2,0.3L41.8,104.5z M41.7,97.1c-0.7,0-1.3-0.1-5.3-1.6c-4.1-1.5-4.6-1.7-5.1-2.2
		c-1.2-0.9-1.6-2.3-1-3.9c0.6-1.6,1.7-2.4,3.3-2.4c0.7,0,1.3,0.1,5.3,1.6c4.1,1.5,4.6,1.7,5.1,2.2c1.2,0.9,1.6,2.3,1,3.9
		C44.4,96.3,43.2,97.1,41.7,97.1z M42.9,92.2c-0.4-0.3-0.7-0.4-4.7-1.9c-4-1.5-4.3-1.5-4.8-1.6c-0.7,0-1.3,0.4-1.6,1.1
		c-0.3,0.8-0.1,1.4,0.5,1.9c0.4,0.3,0.7,0.5,4.7,1.9c4,1.5,4.3,1.5,4.8,1.5c0.7,0,1.3-0.4,1.6-1.1C43.6,93.4,43.5,92.7,42.9,92.2z
		 M50.1,83c-0.1,0.1-0.1,0.2-0.3,0.1l-6.5-1.2c-0.1,0.2-0.2,0.4-0.3,0.6l-0.4,0.8c0,0.1,0,0.1,0.1,0.2l5.4,2.8
		c0.1,0.1,0.2,0.2,0.1,0.3l-0.6,1.2c-0.1,0.1-0.2,0.2-0.3,0.1l-13.1-6.8C34,81,34,80.9,34.1,80.8l1.2-2.4c1.2-2.4,2.9-3.1,5.8-1.6
		c1.8,0.9,2.6,2.1,2.6,3.4l7,1.2c0.1,0,0.2,0.1,0.1,0.2L50.1,83z M40.2,78.4c-1.8-0.9-2.7-0.6-3.5,0.8L36.3,80c0,0.1,0,0.1,0.1,0.2
		l4.6,2.4c0.1,0,0.1,0,0.2-0.1l0.4-0.9C42.3,80.3,42.1,79.4,40.2,78.4z M40.2,70.2c-0.1-0.1-0.1-0.2-0.1-0.3l0.8-1.1
		c0.1-0.1,0.2-0.1,0.3-0.1l10.9,7.4c0.1,0.1,0.1,0,0.2,0l2.2-3.3c0.1-0.1,0.2-0.1,0.3-0.1l1,0.7c0.1,0.1,0.1,0.2,0.1,0.3l-3.2,4.7
		c-0.1,0.1-0.2,0.1-0.3,0.1L40.2,70.2z M46.8,61.1c-0.1-0.1-0.1-0.2,0-0.3l2.1-2.4c1.3-1.5,2.6-1.7,4.1-1.1c0.8,0.3,1.6,0.9,4.2,3.2
		s3.3,3,3.7,3.7c0.9,1.4,0.7,2.8-0.5,4.2l-2.1,2.4c-0.1,0.1-0.2,0.1-0.3,0L46.8,61.1z M58.1,68.4l0.8-0.9c0.7-0.8,0.8-1.5,0.3-2.3
		c-0.3-0.6-0.9-1.2-3.3-3.3c-2.4-2.1-3.1-2.6-3.7-2.8c-0.9-0.4-1.6-0.2-2.2,0.6l-0.8,0.9c-0.1,0.1-0.1,0.1,0,0.2l8.7,7.6
		C58,68.4,58,68.4,58.1,68.4z M70.7,58.3c-0.1,0.1-0.2,0.1-0.3,0L62,51.2l0,0l5.6,9.4c0.1,0.1,0.1,0.2,0,0.3l-0.9,0.8
		c-0.1,0.1-0.2,0.1-0.3,0l-11.4-9.7c-0.1-0.1-0.1-0.2,0-0.3l1-0.9c0.1-0.1,0.2-0.1,0.3,0l8.2,7.4l0,0l-5.7-9.5
		c-0.1-0.1-0.1-0.2,0-0.3l0.7-0.6c0.1-0.1,0.2-0.1,0.3,0l8.5,7.1l0,0l-5.9-9.3c-0.1-0.1-0.1-0.2,0-0.3l1-0.9
		c0.1-0.1,0.2-0.1,0.3,0.1l7.7,12.8c0.1,0.1,0.1,0.2,0,0.3L70.7,58.3z M68.2,41.6c-0.1-0.1,0-0.2,0.1-0.3l1.1-0.8
		c0.1-0.1,0.2,0,0.3,0.1l8.1,12.3c0.1,0.1,0,0.2-0.1,0.3l-1.1,0.8c-0.1,0.1-0.2,0-0.3-0.1L68.2,41.6z M74.3,37.7
		c-0.1-0.1,0-0.2,0.1-0.3l2.8-1.5c1.7-0.9,3-0.7,4.2,0.5c0.6,0.6,1.2,1.5,2.8,4.5c1.6,3,2,3.9,2.1,4.8c0.3,1.6-0.3,2.8-2,3.7
		l-2.8,1.5c-0.1,0.1-0.2,0-0.3-0.1L74.3,37.7z M82.2,48.6l1.1-0.6c0.9-0.5,1.2-1.1,1.1-2c-0.1-0.6-0.4-1.4-1.9-4.2
		c-1.5-2.8-1.9-3.5-2.4-4c-0.7-0.6-1.4-0.7-2.3-0.3l-1.1,0.6c-0.1,0-0.1,0.1-0.1,0.2L82,48.5C82.1,48.6,82.1,48.6,82.2,48.6z
		 M85.6,32.2c0-0.1,0-0.2,0.1-0.3l5.4-2c0.1,0,0.2,0,0.3,0.1l0.4,1.1c0,0.1,0,0.2-0.1,0.3L88,32.8c-0.1,0-0.1,0.1-0.1,0.2l1.7,4.4
		c0,0.1,0.1,0.1,0.2,0.1l3.3-1.2c0.1,0,0.2,0,0.3,0.1l0.4,1.1c0,0.1,0,0.2-0.1,0.3l-3.3,1.2c-0.1,0-0.1,0.1-0.1,0.2l1.7,4.6
		c0,0.1,0.1,0.1,0.2,0.1l3.8-1.4c0.1,0,0.2,0,0.3,0.1l0.4,1.1c0,0.1,0,0.2-0.1,0.3l-5.4,2c-0.1,0-0.2,0-0.3-0.1L85.6,32.2z
		 M104.9,26.4c0-0.1,0.1-0.2,0.2-0.3l5.7-0.9c0.1,0,0.2,0.1,0.3,0.2l0.2,1.2c0,0.1-0.1,0.2-0.2,0.3l-4,0.6c-0.1,0-0.1,0.1-0.1,0.2
		l0.8,4.7c0,0.1,0.1,0.1,0.2,0.1l3.4-0.6c0.1,0,0.2,0.1,0.3,0.2l0.2,1.2c0,0.1-0.1,0.2-0.2,0.3l-3.4,0.6c-0.1,0-0.1,0.1-0.1,0.2
		l0.8,4.8c0,0.1,0.1,0.1,0.2,0.1l4-0.6c0.1,0,0.2,0.1,0.3,0.2l0.2,1.2c0,0.1-0.1,0.2-0.2,0.3l-5.7,0.9c-0.1,0-0.2-0.1-0.3-0.2
		L104.9,26.4z M116.1,24.9c0-0.1,0.1-0.2,0.2-0.2l3.2-0.1c1.9-0.1,3,0.7,3.6,2.2c0.3,0.8,0.4,1.8,0.6,5.2c0.1,3.4,0.1,4.4-0.2,5.2
		c-0.4,1.6-1.5,2.4-3.4,2.5l-3.2,0.1c-0.1,0-0.2-0.1-0.2-0.2L116.1,24.9z M118.6,38.1l1.3,0c1,0,1.6-0.5,1.9-1.4
		c0.2-0.6,0.2-1.5,0.1-4.6c-0.1-3.2-0.2-4-0.5-4.6c-0.3-0.9-0.9-1.3-2-1.2l-1.3,0c-0.1,0-0.1,0-0.1,0.1l0.4,11.6
		C118.4,38.1,118.5,38.2,118.6,38.1z M127.8,36l1-11.2c0-0.1,0.1-0.2,0.2-0.2l1.4,0.1c0.1,0,0.2,0.1,0.2,0.2l-1,11.4
		c-0.1,1.3,0.5,2.1,1.6,2.2c1.1,0.1,1.8-0.5,1.9-1.8l1-11.4c0-0.1,0.1-0.2,0.2-0.2l1.4,0.1c0.1,0,0.2,0.1,0.2,0.2l-1,11.2
		c-0.2,2.6-1.7,3.8-3.9,3.6C128.8,40.1,127.5,38.6,127.8,36z M139.7,33.5c0.9-4.2,1.1-4.8,1.4-5.4c0.8-1.3,2-1.9,3.7-1.5
		c1.9,0.4,2.9,1.7,2.6,4c0,0.2-0.1,0.2-0.2,0.2l-1.3,0c-0.1,0-0.2-0.1-0.2-0.2c0.2-1.4-0.2-2.1-1.2-2.3c-0.8-0.2-1.3,0.1-1.7,0.7
		c-0.2,0.4-0.4,0.8-1.3,4.9c-0.9,4.1-0.9,4.5-0.9,5c0.1,0.7,0.5,1.2,1.3,1.4c1,0.2,1.7-0.3,2.1-1.6c0-0.1,0.2-0.2,0.3-0.1l1.2,0.5
		c0.1,0.1,0.2,0.2,0.1,0.3c-0.7,2.2-2.1,3-4,2.6c-1.7-0.4-2.6-1.4-2.7-2.9C138.7,38.3,138.7,37.7,139.7,33.5z M155.3,30
		c0.1-0.1,0.2-0.2,0.3-0.1l1.3,0.4c0.1,0,0.2,0.2,0.2,0.3l-1.9,15c0,0.1-0.1,0.2-0.3,0.1l-1.3-0.4c-0.1-0.1-0.2-0.2-0.2-0.3l0.5-3.4
		l-3.2-1.1l-1.7,2.9c-0.1,0.1-0.2,0.2-0.3,0.1l-1.3-0.4c-0.1,0-0.2-0.2-0.1-0.3L155.3,30z M154.1,40.1l1-6.7l-0.1,0l-3.5,5.8
		L154.1,40.1z M159.1,47.7c-0.1-0.1-0.2-0.2-0.1-0.3l5.7-11.9c0-0.1,0-0.1-0.1-0.2l-2.3-1.1c-0.1-0.1-0.2-0.2-0.1-0.3l0.5-1.1
		c0.1-0.1,0.2-0.2,0.3-0.1l6.4,3.1c0.1,0.1,0.2,0.2,0.1,0.3l-0.5,1.1c-0.1,0.1-0.2,0.2-0.3,0.1l-2.3-1.1c-0.1,0-0.1,0-0.2,0.1
		l-5.7,11.9c-0.1,0.1-0.2,0.2-0.3,0.1L159.1,47.7z M173.8,38.6c0.1-0.1,0.2-0.1,0.3-0.1l1.2,0.7c0.1,0.1,0.1,0.2,0.1,0.3l-7.7,12.6
		c-0.1,0.1-0.2,0.1-0.3,0.1l-1.2-0.7c-0.1-0.1-0.1-0.2-0.1-0.3L173.8,38.6z M172.2,52.9c0.2-0.7,0.5-1.2,3.1-4.6
		c2.6-3.4,3-3.9,3.6-4.3c1.3-0.9,2.6-0.8,4,0.2c1.4,1,1.8,2.4,1.3,3.8c-0.2,0.7-0.5,1.2-3.1,4.6c-2.6,3.4-3,3.9-3.6,4.3
		c-1.2,0.9-2.6,0.8-4-0.2C172.1,55.6,171.7,54.3,172.2,52.9z M176.4,55.4c0.4-0.3,0.6-0.5,3.2-3.9c2.6-3.4,2.7-3.7,2.9-4.1
		c0.2-0.7,0-1.3-0.6-1.8c-0.6-0.5-1.3-0.5-1.9-0.1c-0.4,0.3-0.6,0.5-3.2,3.9c-2.6,3.4-2.7,3.7-2.9,4.1c-0.2,0.7,0,1.3,0.6,1.8
		S175.9,55.9,176.4,55.4z M189.7,50.3c0.1-0.1,0.2-0.1,0.3,0l1.2,1.2c0.1,0.1,0.2,0.3,0.1,0.4l-5.6,10.5l0.1,0.1l8-8.2
		c0.1-0.1,0.2-0.1,0.3,0l0.8,0.8c0.1,0.1,0.1,0.2,0,0.3L184.6,66c-0.1,0.1-0.2,0.1-0.3,0l-1.1-1.1c-0.1-0.1-0.2-0.3-0.1-0.4
		l5.5-10.6l-0.1-0.1l-8,8.2c-0.1,0.1-0.2,0.1-0.3,0l-0.8-0.8c-0.1-0.1-0.1-0.2,0-0.3L189.7,50.3z M204.2,66.8c0.1-0.1,0.2,0,0.3,0.1
		l3.2,4.8c0.1,0.1,0,0.2-0.1,0.3l-1,0.7c-0.1,0.1-0.2,0-0.3-0.1l-2.2-3.4c0-0.1-0.1-0.1-0.2,0l-4,2.7c-0.1,0-0.1,0.1,0,0.2l1.9,2.9
		c0.1,0.1,0,0.2-0.1,0.3l-1,0.7c-0.1,0.1-0.2,0-0.3-0.1l-1.9-2.9c0-0.1-0.1-0.1-0.2,0l-5.3,3.5c-0.1,0.1-0.2,0-0.3-0.1l-0.8-1.1
		c-0.1-0.1,0-0.2,0.1-0.3L204.2,66.8z M200.1,81.4l10.1-5c0.1-0.1,0.2,0,0.3,0.1l0.6,1.2c0.1,0.1,0,0.2-0.1,0.3l-10.3,5.1
		c-1.2,0.6-1.5,1.5-1,2.5c0.5,1,1.4,1.3,2.6,0.7l10.3-5.1c0.1-0.1,0.2,0,0.3,0.1l0.6,1.2c0.1,0.1,0,0.2-0.1,0.3l-10.1,5
		c-2.3,1.2-4.1,0.5-5.1-1.4C197.2,84.4,197.7,82.6,200.1,81.4z M215.5,88c0.1,0,0.2,0,0.3,0.1l0.5,1.6c0.1,0.2,0,0.3-0.1,0.4
		l-9.7,6.9l0,0.1l10.8-3.7c0.1,0,0.2,0,0.3,0.1l0.4,1.1c0,0.1,0,0.2-0.1,0.3l-14,4.8c-0.1,0-0.2,0-0.3-0.1l-0.5-1.5
		c-0.1-0.2,0-0.3,0.1-0.4l9.7-7l0-0.1L202,94.4c-0.1,0-0.2,0-0.3-0.1l-0.4-1.1c0-0.1,0-0.2,0.1-0.3L215.5,88z M219.3,100.5
		c0.1,0,0.2,0,0.3,0.2l0.6,3.1c0.4,1.9-0.2,3.1-1.6,3.9c-0.8,0.4-1.7,0.7-5.1,1.4c-3.3,0.7-4.3,0.8-5.2,0.7c-1.6-0.2-2.6-1.1-3-3
		l-0.6-3.1c0-0.1,0-0.2,0.2-0.3L219.3,100.5z M206.6,105l0.2,1.2c0.2,1,0.7,1.5,1.7,1.6c0.7,0.1,1.5,0,4.6-0.6
		c3.1-0.6,3.9-0.9,4.5-1.2c0.8-0.5,1.1-1.1,0.9-2.1l-0.2-1.2c0-0.1-0.1-0.1-0.2-0.1l-11.4,2.3C206.7,104.9,206.6,104.9,206.6,105z
		 M218.3,123.3c0,1.9-1.5,3.5-3.5,3.5c-1.9,0-3.5-1.5-3.5-3.5s1.5-3.5,3.5-3.5C216.8,119.9,218.3,121.4,218.3,123.3z M35.2,123.3
		c0,1.9-1.5,3.5-3.5,3.5s-3.5-1.5-3.5-3.5s1.5-3.5,3.5-3.5S35.2,121.4,35.2,123.3z M25.6,138.3c0-0.1,0-0.2,0.2-0.3l14.5-2.7
		c0.1,0,0.2,0,0.3,0.2l0.5,2.6c0.5,2.6-0.4,4.3-3.7,4.9c-3.2,0.6-4.8-0.6-5.2-3.2l-0.2-0.9c0-0.1-0.1-0.1-0.2-0.1l-5.6,1
		c-0.1,0-0.2,0-0.3-0.2L25.6,138.3z M37,141.3c2.1-0.4,2.7-1.2,2.4-2.8l-0.2-0.9c0-0.1-0.1-0.1-0.2-0.1l-5.4,1
		c-0.1,0-0.1,0.1-0.1,0.2l0.2,0.9C34,141.2,34.9,141.7,37,141.3z M29.3,153.7c0-0.1,0-0.2,0.1-0.3l5.5-3.6c-0.1-0.2-0.1-0.4-0.2-0.6
		l-0.3-0.9c0-0.1-0.1-0.1-0.2-0.1l-5.9,1.8c-0.1,0-0.2,0-0.3-0.2l-0.4-1.3c0-0.1,0-0.2,0.2-0.3l14.1-4.2c0.1,0,0.2,0,0.3,0.2
		l0.8,2.6c0.8,2.6,0.1,4.3-3,5.2c-2,0.6-3.3,0.3-4.2-0.7l-5.8,4c-0.1,0.1-0.2,0.1-0.2,0L29.3,153.7z M39.5,150.2
		c2-0.6,2.4-1.4,1.9-3l-0.3-0.9c0-0.1-0.1-0.1-0.2-0.1l-4.9,1.5c-0.1,0-0.1,0.1-0.1,0.2l0.3,0.9C36.7,150.3,37.5,150.8,39.5,150.2z
		 M32.9,157.8c0.5-0.5,1-0.7,5-2.4s4.5-1.8,5.2-1.9c1.5-0.1,2.7,0.6,3.4,2.2c0.7,1.6,0.4,3-0.8,4c-0.5,0.5-1,0.7-5,2.4
		c-4,1.7-4.5,1.8-5.2,1.9c-1.5,0.2-2.7-0.6-3.4-2.2C31.4,160.2,31.7,158.8,32.9,157.8z M35.2,162.2c0.5,0,0.8-0.1,4.7-1.8
		c3.9-1.6,4.2-1.8,4.6-2.1c0.6-0.5,0.7-1.2,0.4-1.9c-0.3-0.7-0.9-1.1-1.6-1c-0.5,0-0.8,0.1-4.7,1.8c-3.9,1.7-4.2,1.8-4.6,2.1
		c-0.6,0.5-0.7,1.1-0.4,1.9C33.9,161.8,34.5,162.2,35.2,162.2z M36.5,170.5c-0.1-0.1,0-0.2,0.1-0.3l11.5-9.8c0.1-0.1,0.2-0.1,0.3,0
		l0.7,1.2c0.1,0.1,0,0.2-0.1,0.3l-8.8,7.2l0,0.1l10.8-3.6c0.1-0.1,0.2,0,0.3,0.1l0.6,1.2c0.1,0.1,0,0.2-0.1,0.3l-14.4,4.5
		c-0.1,0-0.2,0-0.3-0.1L36.5,170.5z M52.8,168.7c0.1-0.1,0.2,0,0.3,0.1l0.8,1.1c0.1,0.1,0,0.2-0.1,0.3l-12.3,8.1
		c-0.1,0.1-0.2,0-0.3-0.1l-0.8-1.1c-0.1-0.1,0-0.2,0.1-0.3L52.8,168.7z M55.2,172.3c0.1-0.1,0.2-0.1,0.3,0l1.9,2.5
		c1.2,1.5,1.2,2.9,0.3,4.2c-0.5,0.7-1.2,1.4-3.9,3.5c-2.7,2.1-3.5,2.6-4.3,2.9c-1.5,0.6-2.8,0.2-4-1.3l-1.9-2.5
		c-0.1-0.1-0.1-0.2,0-0.3L55.2,172.3z M45.9,182l0.8,1c0.6,0.8,1.3,1,2.2,0.7c0.6-0.2,1.3-0.7,3.8-2.6c2.5-2,3.1-2.5,3.5-3.1
		c0.5-0.8,0.5-1.5-0.2-2.3l-0.8-1c-0.1-0.1-0.1-0.1-0.2,0l-9.1,7.1C45.8,181.9,45.8,181.9,45.9,182z M61.2,179.6
		c0.1-0.1,0.2-0.1,0.3,0l0.9,1c0.1,0.1,0.1,0.2,0,0.3l-10.8,10c-0.1,0.1-0.2,0.1-0.3,0l-0.9-1c-0.1-0.1-0.1-0.2,0-0.3L61.2,179.6z
		 M64,182.7c0.1-0.1,0.2-0.1,0.3,0l1.2,1.1c0.1,0.1,0.2,0.2,0.1,0.4l-5.2,10.7l0.1,0.1l7.7-8.4c0.1-0.1,0.2-0.1,0.3,0l0.9,0.8
		c0.1,0.1,0.1,0.2,0,0.3l-10,10.9c-0.1,0.1-0.2,0.1-0.3,0l-1.2-1.1c-0.1-0.1-0.2-0.2-0.1-0.4l5.1-10.8l-0.1-0.1l-7.7,8.4
		c-0.1,0.1-0.2,0.1-0.3,0l-0.9-0.8c-0.1-0.1-0.1-0.2,0-0.3L64,182.7z M66.7,194.9c2.5-3.5,2.9-3.9,3.5-4.3c1.2-0.9,2.6-0.9,4,0.2
		c1.7,1.3,1.9,2.9,0.9,4.8c-0.1,0.1-0.2,0.2-0.3,0.1l-1.1-0.6c-0.1-0.1-0.2-0.2-0.1-0.3c0.6-1.1,0.6-2-0.3-2.7
		c-0.6-0.5-1.3-0.5-1.9-0.1c-0.4,0.3-0.6,0.5-3.1,3.9c-2.5,3.4-2.7,3.7-2.8,4.2c-0.2,0.7,0,1.4,0.7,1.8c0.6,0.5,1.4,0.5,1.9,0.1
		c0.4-0.3,0.6-0.5,2.5-3c0.1-0.1,0-0.1,0-0.2l-1.2-0.9c-0.1-0.1-0.1-0.2,0-0.3l0.7-1c0.1-0.1,0.2-0.1,0.3,0l2.5,1.9
		c0.1,0.1,0.1,0.2,0,0.3l-0.4,0.5c-2.4,3.3-2.8,3.7-3.4,4.1c-1.2,0.9-2.6,0.9-4-0.2s-1.8-2.4-1.3-3.8
		C63.9,198.8,64.2,198.4,66.7,194.9z M77.5,210.9c-0.1-0.1-0.2-0.2-0.1-0.3l6-11.7c0-0.1,0-0.1-0.1-0.2l-2.2-1.1
		c-0.1-0.1-0.2-0.2-0.1-0.3l0.6-1.1c0.1-0.1,0.2-0.2,0.3-0.1l6.3,3.3c0.1,0.1,0.2,0.2,0.1,0.3l-0.6,1.1c-0.1,0.1-0.2,0.2-0.3,0.1
		l-2.2-1.1c-0.1,0-0.1,0-0.2,0.1l-6,11.7c-0.1,0.1-0.2,0.2-0.3,0.1L77.5,210.9z M89.8,200.3c0-0.1,0.2-0.2,0.3-0.1l1.3,0.5
		c0.1,0,0.2,0.2,0.1,0.3l-2.2,5.8c0,0.1,0,0.1,0.1,0.2l3,1.2c0.1,0,0.1,0,0.2-0.1l2.2-5.8c0-0.1,0.2-0.2,0.3-0.1l1.3,0.5
		c0.1,0,0.2,0.2,0.1,0.3l-5.3,13.8c0,0.1-0.2,0.2-0.3,0.1l-1.3-0.5c-0.1,0-0.2-0.2-0.1-0.3l2.4-6.2c0-0.1,0-0.1-0.1-0.2l-3-1.2
		c-0.1,0-0.1,0-0.2,0.1l-2.4,6.2c0,0.1-0.2,0.2-0.3,0.1l-1.3-0.5c-0.1,0-0.2-0.2-0.1-0.3L89.8,200.3z M98.7,203.5
		c0-0.1,0.1-0.2,0.3-0.2l5.5,1.5c0.1,0,0.2,0.1,0.2,0.3l-0.3,1.2c0,0.1-0.1,0.2-0.3,0.2l-3.9-1.1c-0.1,0-0.1,0-0.2,0.1l-1.2,4.6
		c0,0.1,0,0.1,0.1,0.2l3.4,0.9c0.1,0,0.2,0.1,0.2,0.3l-0.3,1.2c0,0.1-0.1,0.2-0.3,0.2l-3.4-0.9c-0.1,0-0.1,0-0.2,0.1l-1.3,4.7
		c0,0.1,0,0.1,0.1,0.2l3.9,1.1c0.1,0,0.2,0.1,0.2,0.3l-0.3,1.2c0,0.1-0.1,0.2-0.3,0.2L95,218c-0.1,0-0.2-0.1-0.2-0.3L98.7,203.5z
		 M112.1,221.7c-2.3-0.3-3.3-1.7-3.1-4.3c0-0.1,0.1-0.2,0.2-0.2l1.3-0.1c0.2,0,0.2,0.1,0.2,0.2c-0.1,1.9,0.4,2.6,1.6,2.7
		c1.2,0.1,1.8-0.4,2-2.4c0.2-1.7-0.1-2.4-1.2-3l-0.9-0.5c-2-1-2.4-2.1-2.2-4.5c0.3-2.6,1.6-3.8,3.8-3.5c2.3,0.3,3.2,1.6,3,4
		c0,0.1-0.1,0.2-0.2,0.2l-1.3,0.1c-0.1,0-0.2-0.1-0.2-0.2c0.1-1.5-0.3-2.3-1.4-2.4c-1.1-0.1-1.7,0.5-1.9,2c-0.2,1.6,0.1,2.1,1.3,2.7
		l0.9,0.5c1.8,1,2.4,2.1,2.1,4.6C115.8,220.7,114.7,222,112.1,221.7z M119.3,207.1c0-0.1,0.1-0.2,0.2-0.2l5.7,0.1
		c0.1,0,0.2,0.1,0.2,0.2l0,1.2c0,0.1-0.1,0.2-0.2,0.2l-4-0.1c-0.1,0-0.1,0-0.1,0.1l-0.1,4.7c0,0.1,0,0.1,0.1,0.1l3.5,0
		c0.1,0,0.2,0.1,0.2,0.2l0,1.2c0,0.1-0.1,0.2-0.2,0.2l-3.5,0c-0.1,0-0.1,0-0.1,0.1l-0.1,4.9c0,0.1,0,0.1,0.1,0.1l4,0.1
		c0.1,0,0.2,0.1,0.2,0.2l0,1.2c0,0.1-0.1,0.2-0.2,0.2l-5.7-0.1c-0.1,0-0.2-0.1-0.2-0.2L119.3,207.1z M127.4,207.1
		c0-0.1,0.1-0.2,0.2-0.2l5.7-0.5c0.1,0,0.2,0.1,0.2,0.2l0.1,1.2c0,0.1-0.1,0.2-0.2,0.2l-4,0.3c-0.1,0-0.1,0.1-0.1,0.1l0.4,4.7
		c0,0.1,0.1,0.1,0.1,0.1l3.5-0.3c0.1,0,0.2,0.1,0.2,0.2l0.1,1.2c0,0.1-0.1,0.2-0.2,0.2l-3.5,0.3c-0.1,0-0.1,0.1-0.1,0.1l0.4,4.9
		c0,0.1,0.1,0.1,0.1,0.1l4-0.3c0.1,0,0.2,0.1,0.2,0.2l0.1,1.2c0,0.1-0.1,0.2-0.2,0.2l-5.7,0.5c-0.1,0-0.2-0.1-0.2-0.2L127.4,207.1z
		 M135.4,206.4c0-0.1,0-0.2,0.2-0.3l3.1-0.6c1.9-0.4,3.1,0.2,3.9,1.7c0.4,0.8,0.7,1.7,1.3,5.1c0.6,3.3,0.7,4.3,0.6,5.2
		c-0.2,1.6-1.1,2.6-3,3l-3.1,0.6c-0.1,0-0.2,0-0.3-0.2L135.4,206.4z M139.7,219.1l1.2-0.2c1-0.2,1.5-0.7,1.7-1.6
		c0.1-0.7,0-1.5-0.6-4.6c-0.6-3.1-0.8-3.9-1.1-4.5c-0.5-0.8-1.1-1.1-2.1-0.9l-1.2,0.2c-0.1,0-0.1,0.1-0.1,0.2l2.1,11.4
		C139.6,219.1,139.6,219.1,139.7,219.1z M152,218.1c-2.2,0.7-3.7-0.2-4.6-2.7c0-0.1,0-0.2,0.1-0.3l1.2-0.6c0.1-0.1,0.3,0,0.3,0.1
		c0.6,1.8,1.4,2.2,2.5,1.9c1.1-0.3,1.5-1,0.9-3c-0.5-1.7-1-2.2-2.3-2.3l-1-0.1c-2.2-0.2-3.1-1-3.8-3.2c-0.7-2.5-0.1-4.1,2.1-4.8
		c2.2-0.7,3.6,0.2,4.3,2.5c0,0.1,0,0.2-0.1,0.3l-1.1,0.6c-0.1,0.1-0.2,0-0.3-0.1c-0.5-1.4-1.2-2-2.3-1.7c-1.1,0.3-1.4,1.1-0.9,2.6
		c0.5,1.5,1,1.9,2.3,2l1,0.1c2.1,0.2,3,1,3.8,3.4C154.9,215.7,154.4,217.4,152,218.1z M156.9,200.2c-0.1-0.1,0-0.2,0.1-0.3l5.2-2.5
		c0.1-0.1,0.2,0,0.3,0.1l0.5,1.1c0.1,0.1,0,0.2-0.1,0.3l-3.6,1.7c-0.1,0-0.1,0.1-0.1,0.2l2.1,4.4c0,0.1,0.1,0.1,0.2,0.1l3.2-1.5
		c0.1-0.1,0.2,0,0.3,0.1l0.5,1.1c0.1,0.1,0,0.2-0.1,0.3l-3.2,1.5c-0.1,0-0.1,0.1-0.1,0.2l2.8,5.8c0.1,0.1,0,0.2-0.1,0.3l-1.2,0.6
		c-0.1,0.1-0.2,0-0.3-0.1L156.9,200.2z M170.8,207.7c-0.5-0.5-0.9-0.9-3.1-4.6c-2.2-3.7-2.5-4.2-2.6-4.9c-0.4-1.5,0.2-2.8,1.7-3.7
		c1.5-0.9,2.9-0.8,4,0.2c0.5,0.5,0.9,0.9,3.1,4.6c2.2,3.7,2.5,4.2,2.6,4.9c0.4,1.5-0.2,2.8-1.7,3.7
		C173.4,208.8,172,208.7,170.8,207.7z M174.8,204.7c-0.1-0.5-0.3-0.8-2.5-4.4c-2.2-3.6-2.4-3.9-2.8-4.2c-0.6-0.5-1.2-0.5-1.9-0.1
		c-0.7,0.4-1,1-0.8,1.7c0.1,0.5,0.2,0.8,2.4,4.4c2.2,3.6,2.4,3.9,2.8,4.2c0.6,0.5,1.2,0.5,1.9,0.1
		C174.6,206,174.9,205.4,174.8,204.7z M185.3,200.3c-0.1,0.1-0.2,0.1-0.3,0l-5.4-3.9c-0.1,0.1-0.3,0.3-0.5,0.4l-0.7,0.6
		c-0.1,0.1-0.1,0.1,0,0.2l3.7,4.9c0.1,0.1,0.1,0.2,0,0.3l-1.1,0.8c-0.1,0.1-0.2,0.1-0.3,0l-9-11.7c-0.1-0.1-0.1-0.2,0-0.3l2.1-1.6
		c2.1-1.6,4-1.6,5.9,1c1.2,1.6,1.5,3,0.9,4.2l5.8,4c0.1,0.1,0.1,0.2,0,0.2L185.3,200.3z M178.4,192c-1.3-1.6-2.2-1.7-3.5-0.8
		l-0.8,0.6c-0.1,0.1-0.1,0.1,0,0.2l3.1,4.1c0.1,0.1,0.1,0.1,0.2,0l0.8-0.6C179.5,194.6,179.6,193.7,178.4,192z M187.4,188.4
		c-3.1-3-3.5-3.4-3.8-4c-0.7-1.3-0.5-2.7,0.6-4c1.4-1.5,3.1-1.6,4.8-0.3c0.1,0.1,0.2,0.2,0.1,0.3l-0.7,1.1c-0.1,0.1-0.2,0.1-0.3,0.1
		c-1-0.7-1.9-0.8-2.7,0c-0.5,0.6-0.7,1.3-0.3,1.9c0.2,0.4,0.4,0.7,3.5,3.6c3.1,2.9,3.4,3.1,3.8,3.3c0.7,0.3,1.3,0.1,1.9-0.5
		c0.6-0.6,0.7-1.3,0.3-1.9c-0.2-0.4-0.4-0.7-2.7-2.8c-0.1-0.1-0.1-0.1-0.2,0l-1,1.1c-0.1,0.1-0.2,0.1-0.3,0l-0.9-0.8
		c-0.1-0.1-0.1-0.2,0-0.3l2.2-2.3c0.1-0.1,0.2-0.1,0.3,0l0.5,0.4c3,2.8,3.3,3.2,3.7,3.8c0.8,1.3,0.5,2.7-0.6,4
		c-1.2,1.3-2.5,1.5-3.9,0.9C191,191.7,190.5,191.3,187.4,188.4z M203.5,181.1c-0.1,0.1-0.2,0.1-0.3,0.1l-6.2-2.3
		c-0.1,0.2-0.2,0.4-0.4,0.5l-0.6,0.7c-0.1,0.1,0,0.1,0,0.2l4.9,3.7c0.1,0.1,0.1,0.2,0,0.3l-0.8,1.1c-0.1,0.1-0.2,0.1-0.3,0
		l-11.8-8.9c-0.1-0.1-0.1-0.2,0-0.3l1.6-2.1c1.6-2.1,3.4-2.6,6-0.6c1.6,1.2,2.2,2.5,2,3.8l6.7,2.4c0.1,0,0.2,0.1,0.1,0.2
		L203.5,181.1z M194.6,174.9c-1.6-1.2-2.6-1.1-3.5,0.2l-0.6,0.8c-0.1,0.1,0,0.1,0,0.2l4.1,3.1c0.1,0.1,0.1,0,0.2,0l0.6-0.8
		C196.4,177.1,196.3,176.1,194.6,174.9z M204.7,175.8c-0.7-0.2-1.2-0.4-4.9-2.6c-3.7-2.2-4.2-2.6-4.6-3.1c-1-1.1-1.1-2.5-0.2-4
		c0.9-1.5,2.2-2.1,3.7-1.7c0.7,0.2,1.2,0.4,4.9,2.6c3.7,2.2,4.2,2.6,4.6,3.1c1,1.1,1.1,2.5,0.2,4
		C207.5,175.6,206.2,176.1,204.7,175.8z M206.8,171.3c-0.3-0.3-0.6-0.6-4.2-2.7c-3.7-2.2-4-2.3-4.4-2.4c-0.7-0.2-1.3,0.1-1.7,0.8
		c-0.4,0.7-0.4,1.4,0.1,1.9c0.3,0.4,0.6,0.6,4.2,2.8c3.6,2.2,4,2.3,4.4,2.4c0.7,0.2,1.3-0.1,1.7-0.8
		C207.3,172.5,207.3,171.8,206.8,171.3z M214.8,160.8c-0.1,0.1-0.2,0.1-0.3,0.1l-10.6-2.7l0,0l9.2,6c0.1,0.1,0.2,0.2,0.1,0.3
		l-0.5,1.1c-0.1,0.1-0.2,0.1-0.3,0.1l-14.5-3.7c-0.1,0-0.2-0.1-0.1-0.3l0.5-1.3c0.1-0.1,0.2-0.2,0.3-0.1l10.6,3l0,0l-9.3-6.1
		c-0.1-0.1-0.2-0.2-0.1-0.3l0.4-0.9c0.1-0.1,0.1-0.2,0.3-0.1l10.8,2.6l0,0l-9.4-5.7c-0.1-0.1-0.2-0.2-0.1-0.3l0.5-1.2
		c0.1-0.1,0.2-0.1,0.3-0.1l12.6,8.1c0.1,0.1,0.2,0.2,0.1,0.3L214.8,160.8z M218.1,151.4c0,0.1-0.1,0.2-0.3,0.2l-12.7-3.7
		c-0.1,0-0.1,0-0.2,0.1l-0.7,2.4c0,0.1-0.1,0.2-0.3,0.2l-1.2-0.3c-0.1,0-0.2-0.1-0.2-0.3l2-6.8c0-0.1,0.1-0.2,0.3-0.2l1.2,0.3
		c0.1,0,0.2,0.1,0.2,0.3l-0.7,2.4c0,0.1,0,0.1,0.1,0.2l12.7,3.7c0.1,0,0.2,0.1,0.2,0.3L218.1,151.4z M205.3,141.4
		c-0.1,0-0.2-0.1-0.2-0.3l0.2-1.3c0-0.1,0.1-0.2,0.3-0.2l6.1,1.1c0.1,0,0.1,0,0.2-0.1l0.6-3.2c0-0.1,0-0.1-0.1-0.2l-6.1-1.1
		c-0.1,0-0.2-0.1-0.2-0.3l0.2-1.3c0-0.1,0.1-0.2,0.3-0.2l14.5,2.6c0.1,0,0.2,0.1,0.2,0.3l-0.2,1.3c0,0.1-0.1,0.2-0.3,0.2l-6.5-1.1
		c-0.1,0-0.1,0-0.2,0.1l-0.6,3.2c0,0.1,0,0.1,0.1,0.2l6.5,1.1c0.1,0,0.2,0.1,0.2,0.3l-0.2,1.3c0,0.1-0.1,0.2-0.3,0.2L205.3,141.4z
		 M123.2,61l-0.2-0.2c-0.9-0.8-1.4-1.9-1.4-3.1c0-1.2,0.5-2.3,1.4-3.1l0.2-0.2l0.2,0.2c0.9,0.8,1.4,1.9,1.4,3.1
		c0,1.2-0.5,2.3-1.4,3.1L123.2,61z M134.3,63.2c1.2-0.1,2.3-0.8,3-1.8c0.7-1,0.9-2.2,0.7-3.4l-0.1-0.2l-0.2,0
		c-1.2,0.1-2.3,0.8-3,1.8c-0.7,1-0.9,2.2-0.7,3.4l0.1,0.2L134.3,63.2L134.3,63.2z M136.9,89c-1-0.6-2.3-0.8-3.4-0.4l-0.2,0.1
		l0.1,0.2c0.2,1.2,1,2.2,2,2.8c0.4,0.3,0.9,0.4,1.4,0.5c0.7,0.1,1.4,0.1,2-0.1l0.2-0.1l-0.1-0.2C138.7,90.6,137.9,89.6,136.9,89
		L136.9,89z M131.3,82.9c1,0.1,2.1-0.1,3.1-0.5c1.6-0.6,2.8-1.8,3.3-3.3l0.1-0.2l-0.2-0.1c-1.6-0.6-3.4-0.6-5,0
		c-1.6,0.6-2.8,1.8-3.3,3.3l-0.1,0.2l0.2,0.1C129.9,82.7,130.6,82.8,131.3,82.9L131.3,82.9z M139,86.7c1.4,0.1,2.7-0.4,3.8-1.4
		l0.2-0.2l-0.1-0.2c-0.9-1.2-2.2-1.9-3.7-2.1c-1.5-0.1-2.9,0.3-4,1.3l-0.2,0.2l0.1,0.2c0.9,1.2,2.2,1.9,3.7,2.1
		C138.9,86.7,138.9,86.7,139,86.7L139,86.7z M137,75.1c0.3,0.1,0.6,0.3,1,0.3c1.1,0.3,2.2,0.2,3.3-0.3c1.4-0.6,2.4-1.7,2.9-3.1
		l0.1-0.2l-0.2-0.1c-0.3-0.1-0.6-0.3-1-0.3c-1.1-0.3-2.2-0.2-3.3,0.3c-1.4,0.6-2.4,1.7-2.9,3.1l-0.1,0.2L137,75.1L137,75.1z
		 M139.5,79.7c0.2,0.2,0.5,0.4,0.8,0.6c0.9,0.6,2,0.8,3.1,0.7c1.4-0.1,2.8-0.8,3.6-2l0.1-0.2l-0.2-0.2c-0.2-0.2-0.5-0.4-0.8-0.6
		c-0.9-0.6-2-0.8-3.1-0.7c-1.4,0.1-2.8,0.8-3.6,2l-0.1,0.2L139.5,79.7L139.5,79.7z M139.7,67.7c1.1-1,1.7-2.4,1.7-3.9l0-0.2l-0.2,0
		c-0.2,0-0.4,0-0.6,0c-1.3,0-2.5,0.5-3.5,1.3c-1.1,1-1.7,2.4-1.7,3.9l0,0.2l0.2,0c0.2,0,0.4,0,0.6,0l0,0
		C137.5,69,138.8,68.5,139.7,67.7L139.7,67.7z M128.5,64.3c1.2-0.8,2.1-2,2.4-3.4c0.2-1.4-0.1-2.9-1-4l-0.2-0.2l-0.2,0.1
		c-1.3,0.8-2.1,2-2.4,3.4c-0.2,1.4,0.1,2.9,1,4l0.2,0.2L128.5,64.3L128.5,64.3z M112.2,63.3l0.2,0l0-0.2c0.2-1.2,0-2.4-0.7-3.4
		c-0.7-1-1.8-1.6-3-1.7l-0.2,0l0,0.2c-0.2,1.2,0,2.4,0.7,3.4C109.9,62.5,111,63.2,112.2,63.3L112.2,63.3z M109.8,89
		c-1,0.6-1.7,1.7-2,2.8l0,0.2l0.2,0.1c0.7,0.2,1.4,0.2,2,0.1c0.5-0.1,1-0.3,1.4-0.5c1-0.6,1.7-1.7,2-2.8l0-0.2l-0.2-0.1
		C112.1,88.3,110.8,88.4,109.8,89L109.8,89z M115.5,83.2c0.7-0.1,1.3-0.2,2-0.4l0.2-0.1l-0.1-0.2c-0.5-1.4-1.7-2.6-3.3-3.3
		c-1.6-0.6-3.4-0.6-5,0l-0.2,0.1l0.1,0.2c0.5,1.4,1.7,2.6,3.3,3.3C113.4,83.1,114.5,83.3,115.5,83.2L115.5,83.2z M107.6,86.8
		c0.1,0,0.2,0,0.3,0c1.5-0.1,2.8-0.9,3.7-2.1l0.1-0.2l-0.2-0.2c-1.1-1-2.6-1.5-4.1-1.3c-1.5,0.1-2.8,0.9-3.7,2.1l-0.1,0.2l0.2,0.2
		C104.9,86.4,106.2,86.9,107.6,86.8L107.6,86.8L107.6,86.8z M109.6,75.2l0.2-0.1l-0.1-0.2c-0.5-1.4-1.6-2.5-2.9-3.1
		c-1.1-0.4-2.2-0.5-3.3-0.2c-0.3,0.1-0.7,0.2-1,0.3l-0.2,0.1l0.1,0.2c0.5,1.4,1.6,2.5,2.9,3.1c1.1,0.4,2.2,0.5,3.3,0.2
		C109,75.5,109.3,75.4,109.6,75.2L109.6,75.2z M107.1,79.8l0.2-0.2l-0.1-0.2c-0.9-1.1-2.2-1.9-3.7-2c-1.1-0.1-2.2,0.2-3.1,0.8
		c-0.3,0.2-0.5,0.4-0.8,0.6L99.3,79l0.1,0.2c0.9,1.1,2.2,1.9,3.7,2c1.1,0.1,2.2-0.2,3.1-0.8C106.6,80.2,106.8,80,107.1,79.8
		L107.1,79.8z M106.8,67.8c1,0.8,2.2,1.3,3.5,1.3c0.2,0,0.4,0,0.6,0l0.2,0l0-0.2c0-1.5-0.7-2.9-1.8-3.9c-1-0.8-2.2-1.3-3.5-1.3
		c-0.2,0-0.4,0-0.6,0l-0.2,0l0,0.2C105.1,65.4,105.7,66.8,106.8,67.8L106.8,67.8z M118,64.4l0.2,0.1l0.2-0.2c0.9-1.1,1.3-2.6,1-4
		c-0.3-1.4-1.1-2.7-2.4-3.4l-0.2-0.1l-0.2,0.2c-0.9,1.1-1.3,2.6-1,4C115.9,62.4,116.8,63.6,118,64.4L118,64.4z M99.8,68.2
		c0.7,0.4,1.4,0.6,2.2,0.6c0.4,0,0.8-0.1,1.3-0.2l0.2-0.1l-0.1-0.2c-0.2-1.2-1-2.2-2-2.8c-1-0.6-2.3-0.8-3.4-0.4l-0.2,0.1l0.1,0.2
		C98.1,66.6,98.8,67.6,99.8,68.2L99.8,68.2z M96.4,75.6c0.4,0.1,0.8,0.1,1.2,0.1c0.8-0.1,1.5-0.3,2.1-0.8l0.2-0.1l-0.1-0.2
		c-0.6-1-1.6-1.8-2.8-2.1c-1.2-0.3-2.4,0-3.4,0.7l-0.2,0.1l0.1,0.2C94.3,74.6,95.3,75.3,96.4,75.6L96.4,75.6z M102.8,83l-0.2-0.2
		c-0.9-0.8-2.1-1.1-3.3-1s-2.3,0.8-2.9,1.8l-0.1,0.2l0.2,0.2c0.8,0.7,1.9,1,2.9,1c0.1,0,0.3,0,0.4,0c1.2-0.2,2.3-0.8,2.9-1.8
		L102.8,83z M146.8,68.2c1-0.6,1.8-1.6,2-2.8l0.1-0.2l-0.2-0.1c-1.1-0.3-2.4-0.2-3.4,0.4c-1,0.6-1.8,1.6-2,2.8l-0.1,0.2l0.2,0.1
		c0.4,0.1,0.8,0.2,1.3,0.2C145.4,68.8,146.1,68.6,146.8,68.2L146.8,68.2z M150.2,75.6c1.2-0.3,2.2-1,2.8-2.1l0.1-0.2l-0.2-0.1
		c-1-0.7-2.2-0.9-3.4-0.7s-2.2,1-2.8,2.1l-0.1,0.2l0.2,0.1c0.6,0.4,1.4,0.7,2.1,0.8C149.3,75.7,149.7,75.7,150.2,75.6L150.2,75.6z
		 M143.8,83.1c0.7,1,1.8,1.7,3,1.8c0.1,0,0.3,0,0.4,0c1.1,0,2.1-0.3,2.9-1l0.2-0.2l-0.1-0.2c-0.7-1-1.8-1.7-2.9-1.8
		c-1.2-0.2-2.4,0.2-3.3,1l-0.2,0.2L143.8,83.1z M65.3,103.8L65,104c-1,0.6-2.3,0.7-3.4,0.3c-1.1-0.4-2.1-1.2-2.6-2.3l-0.1-0.2
		l0.2-0.1c1-0.6,2.3-0.7,3.4-0.3c1.1,0.4,2.1,1.2,2.6,2.3L65.3,103.8z M71.2,94.2c0.2-1.2,0-2.4-0.7-3.4s-1.8-1.6-3-1.7l-0.2,0
		l-0.1,0.2c-0.2,1.2,0,2.4,0.7,3.4c0.7,1,1.8,1.6,3,1.7l0.2,0L71.2,94.2L71.2,94.2z M96.4,99.9c-0.9,0.8-1.4,1.9-1.5,3.1l0,0.2
		l0.2,0c1.2,0.1,2.4-0.2,3.3-1c0.4-0.3,0.7-0.7,0.9-1.2c0.3-0.6,0.5-1.3,0.5-2l0-0.2l-0.2,0C98.5,98.7,97.3,99.1,96.4,99.9
		L96.4,99.9z M88.8,103.3c0.4-1,0.6-2,0.5-3c-0.1-1.7-0.9-3.2-2.1-4.1L87.1,96l-0.2,0.2c-1.1,1.3-1.7,3.1-1.6,4.8
		c0.1,1.7,0.9,3.2,2.1,4.1l0.2,0.1l0.2-0.2C88.2,104.5,88.6,104,88.8,103.3L88.8,103.3z M94.9,97.1c0.5-1.3,0.5-2.7-0.1-4l-0.1-0.2
		L94.5,93c-1.4,0.5-2.6,1.5-3.1,2.9c-0.6,1.4-0.6,2.9,0,4.3l0.1,0.2l0.2-0.1c1.4-0.5,2.6-1.5,3.1-2.9C94.9,97.3,94.9,97.2,94.9,97.1
		L94.9,97.1z M83.3,95.5c0.2-0.3,0.4-0.5,0.6-0.8c0.6-1,0.9-2.1,0.8-3.2c-0.1-1.5-0.9-2.8-2-3.7l-0.2-0.2l-0.2,0.2
		c-0.2,0.3-0.4,0.5-0.6,0.8c-0.6,1-0.9,2.1-0.8,3.2c0.1,1.5,0.9,2.8,2,3.7l0.2,0.2L83.3,95.5L83.3,95.5z M88.4,94.4
		c0.3-0.2,0.6-0.4,0.8-0.6c0.9-0.7,1.4-1.7,1.7-2.7c0.3-1.4,0.1-2.9-0.7-4.1l-0.1-0.2L89.8,87c-0.3,0.2-0.6,0.4-0.8,0.6
		c-0.9,0.7-1.4,1.7-1.7,2.7c-0.3,1.4-0.1,2.9,0.7,4.1l0.1,0.2L88.4,94.4L88.4,94.4z M77.1,90.5c-0.6-1.4-1.7-2.4-3.1-2.9l-0.2-0.1
		l-0.1,0.2c-0.1,0.2-0.2,0.4-0.2,0.6c-0.4,1.2-0.3,2.5,0.2,3.7c0.6,1.4,1.7,2.4,3.1,2.9L77,95l0.1-0.2c0.1-0.2,0.2-0.4,0.2-0.6l0,0
		C77.7,93,77.6,91.7,77.1,90.5L77.1,90.5z M70.4,100.1c-0.3-1.4-1.3-2.6-2.5-3.3c-1.3-0.7-2.8-0.8-4.1-0.3l-0.2,0.1l0.1,0.2
		c0.3,1.4,1.2,2.6,2.5,3.3c1.3,0.7,2.8,0.8,4.1,0.3l0.2-0.1L70.4,100.1L70.4,100.1z M64.3,115.3l0.1-0.2l-0.2-0.1
		c-1-0.6-2.3-0.7-3.4-0.4c-1.1,0.4-2.1,1.2-2.6,2.3L58,117l0.2,0.1c1,0.6,2.3,0.7,3.4,0.4C62.8,117.2,63.8,116.4,64.3,115.3
		L64.3,115.3z M87.9,125.6c0.3,1.2,1,2.2,2.1,2.8l0.2,0.1l0.1-0.2c0.4-0.6,0.6-1.2,0.7-1.9c0.1-0.5,0-1-0.1-1.5
		c-0.3-1.2-1-2.2-2.1-2.8l-0.2-0.1l-0.1,0.2C87.9,123.2,87.7,124.5,87.9,125.6L87.9,125.6z M84.2,118.4c0.2-0.7,0.2-1.3,0.2-2l0-0.3
		l-0.2,0c-1.5,0-3,0.8-4.1,2.1c-1.1,1.3-1.7,3.1-1.6,4.8l0,0.3l0.2,0c1.5,0,3-0.8,4.1-2.1C83.5,120.3,84,119.4,84.2,118.4
		L84.2,118.4z M85.2,127c0-0.1,0-0.2,0.1-0.2c0.3-1.4,0-3-0.8-4.2l-0.1-0.2l-0.2,0.1c-1.3,0.7-2.2,2-2.5,3.4c-0.3,1.4,0,3,0.8,4.2
		l0.1,0.2l0.2-0.1C83.9,129.5,84.8,128.3,85.2,127L85.2,127L85.2,127z M74.8,121.5l0-0.2l-0.2,0c-1.5,0-2.9,0.7-3.8,1.8
		c-0.7,0.9-1.2,1.9-1.3,3c0,0.3,0,0.7,0,1l0,0.2l0.2,0c1.5,0,2.9-0.7,3.8-1.8c0.7-0.9,1.2-1.9,1.3-3
		C74.8,122.2,74.8,121.8,74.8,121.5L74.8,121.5z M78.3,125.3l-0.1-0.2l-0.2,0.1c-1.4,0.5-2.5,1.5-3,2.9c-0.4,1-0.5,2.1-0.3,3.2
		c0.1,0.3,0.2,0.6,0.3,1l0.1,0.2l0.2-0.1c1.4-0.5,2.5-1.5,3-2.9c0.4-1,0.5-2.1,0.3-3.2C78.6,125.9,78.4,125.6,78.3,125.3L78.3,125.3
		z M66.9,121.8c1.1-0.6,1.9-1.7,2.3-2.9c0.1-0.2,0.1-0.4,0.2-0.6l0.1-0.2l-0.2-0.1c-1.4-0.4-3-0.3-4.2,0.5c-1.1,0.6-1.9,1.7-2.3,2.9
		c-0.1,0.2-0.1,0.4-0.2,0.6l-0.1,0.2l0.2,0.1C64,122.7,65.6,122.5,66.9,121.8L66.9,121.8z M67.1,110.1l0.2-0.2l-0.1-0.2
		c-0.8-1.2-2.1-2-3.5-2.2c-1.4-0.2-2.9,0.2-4,1.2l-0.2,0.2l0.1,0.2c0.8,1.2,2.1,2,3.5,2.2S66,111,67.1,110.1L67.1,110.1z M65,128.5
		c0.6-0.5,1-1.2,1.3-1.9c0.1-0.4,0.2-0.8,0.2-1.3l0-0.2l-0.2,0c-1.2-0.1-2.4,0.2-3.3,1c-0.9,0.8-1.4,1.9-1.5,3.1l0,0.2l0.2,0
		C62.9,129.7,64.1,129.3,65,128.5L65,128.5z M71,134.1c0.2-0.4,0.4-0.7,0.5-1.2c0.2-0.8,0.2-1.5-0.1-2.3l-0.1-0.2l-0.2,0
		c-1.2,0.2-2.2,1-2.8,2c-0.6,1-0.8,2.3-0.4,3.4l0.1,0.2l0.2,0C69.3,135.8,70.4,135.1,71,134.1L71,134.1z M80.8,130.6l-0.2,0.1
		c-1,0.6-1.7,1.7-2,2.9c-0.2,1.2,0.1,2.4,0.8,3.4l0.2,0.2l0.2-0.1c0.9-0.6,1.6-1.4,1.9-2.4c0-0.1,0.1-0.3,0.1-0.4
		c0.2-1.2-0.1-2.4-0.8-3.4L80.8,130.6z M79.8,84c-0.3-1.2-1-2.2-2.1-2.8l-0.2-0.1l-0.1,0.2c-0.7,1-0.9,2.2-0.7,3.4
		c0.3,1.2,1,2.2,2.1,2.8l0.2,0.1l0.1-0.2c0.2-0.3,0.4-0.7,0.6-1.1C79.9,85.5,80,84.7,79.8,84L79.8,84z M87.9,83.1
		c0.1-1.2-0.3-2.4-1.1-3.3l-0.2-0.2l-0.2,0.1c-1,0.7-1.6,1.8-1.7,3s0.3,2.4,1.1,3.3l0.2,0.2l0.2-0.1c0.6-0.5,1.1-1.1,1.4-1.8
		C87.7,83.9,87.8,83.5,87.9,83.1L87.9,83.1z M93,91.5c1.2-0.3,2.1-1.1,2.7-2.2c0.1-0.1,0.1-0.3,0.2-0.4c0.4-1,0.4-2.1,0-3.1
		l-0.1-0.2l-0.2,0.1c-1.2,0.3-2.1,1.1-2.7,2.2c-0.5,1.1-0.6,2.3-0.1,3.5l0.1,0.2L93,91.5z M87.8,173.7l0,0.2c0.2,1.2,0,2.4-0.7,3.4
		c-0.7,1-1.8,1.6-3,1.7l-0.2,0l0-0.3c-0.2-1.2,0-2.4,0.7-3.4c0.7-1,1.8-1.6,3-1.7L87.8,173.7z M80,165.6c-1-0.6-2.3-0.7-3.4-0.3
		c-1.1,0.4-2.1,1.2-2.5,2.3l-0.1,0.2l0.2,0.1c1,0.6,2.3,0.7,3.4,0.3c1.1-0.4,2.1-1.2,2.5-2.3l0.1-0.2L80,165.6L80,165.6z
		 M93.1,143.3c0.5,1.1,1.4,2,2.5,2.4l0.2,0.1l0.1-0.2c0.5-1.1,0.5-2.3,0.1-3.4c-0.2-0.5-0.5-0.9-0.8-1.2c-0.5-0.5-1.1-0.9-1.7-1.1
		l-0.2-0.1l-0.1,0.2C92.6,140.9,92.6,142.2,93.1,143.3L93.1,143.3z M94.1,151.5c-0.8-0.7-1.8-1.2-2.7-1.4c-1.6-0.4-3.3-0.2-4.6,0.7
		l-0.2,0.1l0.1,0.2c0.9,1.4,2.4,2.5,4.1,2.9c1.6,0.4,3.3,0.2,4.6-0.7l0.2-0.1l-0.1-0.2C95,152.5,94.6,152,94.1,151.5L94.1,151.5z
		 M90,143.8c-1.1-0.9-2.5-1.3-3.9-1.1l-0.2,0l0,0.2c0,1.5,0.7,2.9,1.8,3.9c1.1,1,2.6,1.5,4.1,1.3l0.2,0l0-0.2c0-1.5-0.7-2.9-1.8-3.9
		C90.2,143.9,90.1,143.9,90,143.8L90,143.8z M84.9,154.4c-0.2-0.3-0.4-0.6-0.6-0.8c-0.7-0.9-1.7-1.5-2.8-1.7c-1.4-0.3-3-0.1-4.2,0.8
		l-0.2,0.1l0.1,0.2c0.2,0.3,0.4,0.6,0.6,0.8c0.7,0.9,1.7,1.5,2.8,1.7c1.4,0.3,3,0.1,4.2-0.8l0.2-0.1L84.9,154.4L84.9,154.4z
		 M85.5,149.2c-0.1-0.3-0.2-0.7-0.3-1c-0.4-1-1.1-1.9-2.1-2.4c-1.2-0.8-2.7-1-4.1-0.5l-0.2,0.1l0,0.2c0.1,0.3,0.2,0.7,0.3,1
		c0.4,1,1.1,1.9,2.1,2.4c1.2,0.8,2.7,0.9,4.1,0.5l0.2-0.1L85.5,149.2L85.5,149.2z M78.3,158.8c-1.5,0.1-2.8,0.9-3.7,2.1l-0.1,0.2
		l0.2,0.2c0.1,0.1,0.3,0.3,0.5,0.4c1,0.7,2.3,1.1,3.6,0.9c1.5-0.2,2.8-0.9,3.7-2.1l0.1-0.2l-0.2-0.2c-0.1-0.1-0.3-0.3-0.5-0.4l0,0
		C80.8,159,79.6,158.7,78.3,158.8L78.3,158.8z M85.4,168.1c-1.5-0.1-2.9,0.4-3.9,1.4c-1,1-1.6,2.4-1.5,3.8l0,0.2l0.2,0
		c1.5,0.1,2.9-0.4,3.9-1.4c1-1,1.6-2.4,1.5-3.8l0-0.2L85.4,168.1L85.4,168.1z M97.9,178.6l-0.2-0.2l-0.2,0.2
		c-0.9,0.8-1.4,1.9-1.4,3.1c0,1.2,0.5,2.3,1.4,3.2l0.2,0.2l0.2-0.2c0.9-0.8,1.4-1.9,1.4-3.1C99.3,180.5,98.8,179.4,97.9,178.6
		L97.9,178.6z M115,159.2c1.2,0.1,2.4-0.3,3.2-1.1l0.2-0.2l-0.2-0.2c-0.4-0.5-1-1-1.6-1.3c-0.5-0.2-0.9-0.3-1.4-0.4
		c-1.2-0.1-2.4,0.3-3.2,1.1l-0.2,0.2l0.2,0.2C112.7,158.5,113.9,159.1,115,159.2L115,159.2z M107,160.5c-0.6-0.4-1.2-0.6-1.8-0.8
		l-0.2-0.1l-0.1,0.2c-0.4,1.5-0.2,3.1,0.7,4.6c0.9,1.4,2.4,2.5,4.1,2.9l0.2,0.1l0.1-0.2c0.4-1.5,0.2-3.1-0.7-4.6
		C108.6,161.8,107.9,161.1,107,160.5L107,160.5z M115.5,162.2c-0.1,0-0.1-0.1-0.2-0.1c-1.3-0.7-2.8-0.9-4.2-0.5l-0.2,0.1l0.1,0.2
		c0.3,1.5,1.2,2.7,2.5,3.5c1.3,0.7,2.8,0.9,4.2,0.5l0.2-0.1l-0.1-0.2C117.5,164.2,116.6,163,115.5,162.2L115.5,162.2L115.5,162.2z
		 M107,170.5l-0.2,0l-0.1,0.2c-0.4,1.4-0.2,3,0.6,4.2c0.6,1,1.5,1.7,2.5,2.1c0.3,0.1,0.7,0.2,1,0.3l0.2,0l0.1-0.2
		c0.4-1.4,0.2-3-0.6-4.2c-0.6-1-1.5-1.7-2.5-2.1C107.7,170.6,107.4,170.5,107,170.5L107,170.5z M111.8,168.3l-0.2,0l0,0.2
		c0,1.4,0.7,2.8,1.8,3.7c0.8,0.7,1.9,1.1,3,1.2c0.3,0,0.7,0,1,0l0.2,0l0-0.2c0-1.4-0.7-2.8-1.8-3.7c-0.8-0.7-1.9-1.1-3-1.2
		C112.5,168.2,112.1,168.2,111.8,168.3L111.8,168.3z M104.9,178.1c-0.3-1.2-1-2.4-2-3.1c-0.2-0.1-0.3-0.2-0.5-0.3l-0.2-0.1l-0.1,0.2
		c-0.9,1.2-1.2,2.7-0.8,4.2c0.3,1.2,1,2.4,2,3.1c0.2,0.1,0.3,0.2,0.5,0.3l0.2,0.1l0.1-0.2C104.9,181.1,105.2,179.5,104.9,178.1
		L104.9,178.1z M93.9,174.3l-0.1-0.2l-0.2,0.1c-1.4,0.4-2.6,1.4-3.2,2.6c-0.6,1.3-0.7,2.8-0.1,4.2l0.1,0.2l0.2-0.1
		c1.4-0.4,2.6-1.4,3.2-2.6C94.4,177.2,94.4,175.6,93.9,174.3L93.9,174.3z M110.8,181.9c-0.3-0.7-0.8-1.3-1.4-1.8
		c-0.3-0.3-0.7-0.4-1.1-0.6l-0.2-0.1l-0.1,0.2c-0.5,1.1-0.5,2.4,0,3.5c0.5,1.1,1.4,2,2.5,2.4l0.2,0.1l0.1-0.2
		C111.3,184.2,111.3,183,110.8,181.9L110.8,181.9z M117.9,177.9c-0.3-0.3-0.6-0.6-1-0.8c-0.7-0.4-1.4-0.6-2.2-0.6l-0.2,0l0,0.2
		c-0.1,1.2,0.2,2.4,1,3.3c0.8,0.9,1.9,1.4,3.1,1.5l0.2,0l0-0.2C119.1,180,118.7,178.8,117.9,177.9L117.9,177.9z M116.7,167.5
		l0.1,0.2c0.3,1.2,1.1,2.2,2.1,2.7c1.1,0.6,2.3,0.7,3.5,0.3l0.2-0.1l-0.1-0.2c-0.3-1-0.9-1.9-1.8-2.5c-0.1-0.1-0.2-0.2-0.4-0.2
		c-1.1-0.6-2.3-0.7-3.5-0.3L116.7,167.5z M72.9,154.2c-1.2-0.1-2.4,0.3-3.3,1.1l-0.2,0.2l0.2,0.2c0.7,1,1.8,1.6,3,1.7
		c1.2,0.1,2.4-0.3,3.3-1.1l0.2-0.2l-0.1-0.2c-0.3-0.3-0.6-0.6-0.9-0.9C74.4,154.6,73.7,154.3,72.9,154.2L72.9,154.2z M74.5,146.2
		c-1.1-0.5-2.4-0.5-3.5,0l-0.2,0.1l0.1,0.2c0.4,1.1,1.2,2.1,2.3,2.5c1.1,0.5,2.4,0.5,3.5,0l0.2-0.1l-0.1-0.2
		c-0.2-0.7-0.7-1.4-1.3-1.9C75.2,146.6,74.9,146.4,74.5,146.2L74.5,146.2z M84.2,143.4c0-1.2-0.4-2.4-1.3-3.2
		c-0.1-0.1-0.2-0.2-0.3-0.3c-0.8-0.7-1.9-1-2.9-0.9l-0.2,0l0,0.2c0,1.2,0.4,2.4,1.3,3.2c0.9,0.8,2.1,1.3,3.3,1.2l0.2,0L84.2,143.4z
		 M159.1,173.5l0.2,0c1.2,0.1,2.3,0.8,3,1.7c0.7,1,1,2.2,0.7,3.4l0,0.2l-0.3,0c-1.2-0.1-2.3-0.8-3-1.7c-0.7-1-1-2.2-0.7-3.4
		L159.1,173.5z M148.8,178.6c-0.9,0.8-1.4,2-1.4,3.2c0,1.2,0.5,2.3,1.4,3.1l0.2,0.2l0.2-0.2c0.9-0.8,1.4-2,1.4-3.2
		c0-1.2-0.5-2.3-1.4-3.1l-0.2-0.2L148.8,178.6L148.8,178.6z M131.6,159.2c1.2-0.1,2.3-0.7,3-1.7l0.2-0.2l-0.2-0.2
		c-0.9-0.8-2.1-1.2-3.3-1.1c-0.5,0-1,0.2-1.4,0.4c-0.6,0.3-1.2,0.7-1.6,1.3l-0.2,0.2l0.2,0.2C129.3,158.9,130.5,159.3,131.6,159.2
		L131.6,159.2z M139.8,160.8c-0.9,0.5-1.7,1.3-2.2,2.2c-0.9,1.4-1.2,3.1-0.7,4.6l0.1,0.2l0.2-0.1c1.7-0.4,3.1-1.5,4-3
		c0.9-1.4,1.2-3.1,0.7-4.6l-0.1-0.2l-0.2,0.1C141,160.2,140.4,160.5,139.8,160.8L139.8,160.8z M131.2,162.3c-1.2,0.8-2,2-2.3,3.3
		l0,0.2l0.2,0.1c1.4,0.4,3,0.3,4.2-0.5c1.3-0.8,2.2-2,2.5-3.5l0.1-0.2l-0.2-0.1c-1.4-0.4-3-0.3-4.2,0.5
		C131.4,162.2,131.3,162.3,131.2,162.3L131.2,162.3z M139.7,170.5c-0.3,0.1-0.7,0.2-1,0.3c-1,0.4-1.9,1.2-2.5,2.1
		c-0.8,1.3-1,2.8-0.6,4.2l0.1,0.2l0.2,0c0.3-0.1,0.7-0.2,1-0.3c1.1-0.4,1.9-1.2,2.5-2.1c0.8-1.3,1-2.8,0.6-4.2l-0.1-0.2L139.7,170.5
		L139.7,170.5z M134.9,168.3c-0.3,0-0.7-0.1-1,0c-1.1,0.1-2.1,0.5-3,1.2c-1.1,0.9-1.7,2.3-1.8,3.8l0,0.2l0.2,0c0.3,0,0.7,0.1,1,0
		c1.1-0.1,2.1-0.5,3-1.2c1.1-0.9,1.7-2.3,1.8-3.8l0-0.2L134.9,168.3L134.9,168.3z M141.8,178.1c-0.3,1.5,0,3,0.9,4.2l0.1,0.2
		l0.2-0.1c0.2-0.1,0.3-0.2,0.5-0.3c1-0.8,1.7-1.9,2-3.1c0.3-1.4,0-3-0.9-4.2l-0.1-0.2l-0.2,0.1c-0.2,0.1-0.3,0.2-0.5,0.3l0,0
		C142.8,175.7,142.1,176.8,141.8,178.1L141.8,178.1z M152.9,174.2c-0.6,1.4-0.5,2.9,0.1,4.2c0.6,1.3,1.8,2.3,3.2,2.6l0.2,0.1
		l0.1-0.2c0.6-1.4,0.5-2.9-0.1-4.2c-0.6-1.3-1.8-2.3-3.2-2.6L153,174L152.9,174.2L152.9,174.2z M166.7,165.5l-0.2,0.1l0.1,0.2
		c0.5,1.1,1.4,1.9,2.5,2.3c1.1,0.4,2.4,0.3,3.4-0.3l0.2-0.1l-0.1-0.2c-0.5-1.1-1.4-1.9-2.5-2.3C169,164.8,167.7,164.9,166.7,165.5
		L166.7,165.5z M153.6,143.3c0.5-1.1,0.4-2.4-0.1-3.4l-0.1-0.2l-0.2,0.1c-0.6,0.2-1.2,0.6-1.7,1.1c-0.3,0.4-0.6,0.8-0.8,1.2
		c-0.5,1.1-0.4,2.4,0.1,3.4l0.1,0.2l0.2-0.1C152.2,145.2,153.1,144.3,153.6,143.3L153.6,143.3z M152.3,151.3c-0.5,0.4-1,0.9-1.3,1.5
		l-0.1,0.2l0.2,0.1c1.3,0.9,2.9,1.1,4.6,0.7c1.6-0.4,3.1-1.5,4.1-2.9l0.1-0.2l-0.2-0.1c-1.3-0.9-2.9-1.1-4.6-0.7
		C154.1,150.2,153.1,150.7,152.3,151.3L152.3,151.3z M156.6,143.8c-0.1,0.1-0.1,0.1-0.2,0.2c-1.1,1-1.7,2.4-1.8,3.9l0,0.2l0.2,0
		c1.5,0.2,2.9-0.3,4.1-1.3c1.1-1,1.7-2.4,1.8-3.9l0-0.2l-0.2,0C159.1,142.5,157.7,142.9,156.6,143.8L156.6,143.8L156.6,143.8z
		 M161.8,154.3l-0.1,0.2l0.2,0.1c1.2,0.8,2.8,1.1,4.2,0.8c1.1-0.3,2.1-0.9,2.8-1.7c0.2-0.3,0.4-0.6,0.6-0.9l0.1-0.2l-0.2-0.1
		c-1.2-0.8-2.8-1.1-4.2-0.8c-1.1,0.3-2.1,0.9-2.8,1.7C162.2,153.8,162,154,161.8,154.3L161.8,154.3z M161.2,149.2l0,0.2l0.2,0.1
		c1.4,0.4,2.9,0.2,4.1-0.6c0.9-0.6,1.7-1.4,2.1-2.5c0.1-0.3,0.2-0.6,0.3-1l0-0.2l-0.2-0.1c-1.4-0.4-2.9-0.2-4.1,0.6
		c-0.9,0.6-1.7,1.4-2.1,2.5C161.3,148.5,161.2,148.8,161.2,149.2L161.2,149.2z M168.4,158.7c-1.3-0.1-2.5,0.2-3.6,1
		c-0.2,0.1-0.3,0.2-0.5,0.4l-0.2,0.2l0.1,0.2c0.9,1.2,2.2,1.9,3.7,2.1c1.3,0.1,2.5-0.2,3.6-1c0.2-0.1,0.3-0.2,0.5-0.4l0.2-0.2
		l-0.1-0.2C171.2,159.6,169.9,158.9,168.4,158.7L168.4,158.7z M161.4,168.1l-0.2,0l0,0.2c-0.1,1.4,0.5,2.9,1.5,3.8
		c1,1,2.5,1.5,3.9,1.4l0.2,0l0-0.2c0.1-1.4-0.5-2.9-1.5-3.8C164.3,168.5,162.8,168,161.4,168.1L161.4,168.1z M173.8,154.3
		c-0.8,0.1-1.5,0.3-2.1,0.8c-0.3,0.2-0.6,0.6-0.9,0.9l-0.1,0.2l0.2,0.2c0.9,0.8,2.1,1.2,3.3,1.1c1.2-0.1,2.3-0.7,3-1.7l0.2-0.2
		l-0.2-0.2C176.2,154.6,175,154.2,173.8,154.3L173.8,154.3z M172.2,146.3c-0.4,0.2-0.7,0.4-1.1,0.7c-0.6,0.5-1,1.1-1.3,1.9l-0.1,0.2
		l0.2,0.1c1.1,0.5,2.4,0.5,3.5,0c1.1-0.5,2-1.4,2.4-2.5l0.1-0.2l-0.2-0.1C174.6,145.9,173.4,145.8,172.2,146.3L172.2,146.3z
		 M162.3,143.8l0.2,0c1.2,0.1,2.4-0.3,3.3-1.2c0.9-0.8,1.4-2,1.3-3.2l0-0.2l-0.2,0c-1.1-0.1-2.1,0.2-2.9,0.9
		c-0.1,0.1-0.2,0.2-0.3,0.3c-0.9,0.8-1.4,2-1.3,3.2L162.3,143.8z M135.8,181.8c-0.5,1.1-0.5,2.4,0,3.5l0.1,0.2l0.2-0.1
		c1.1-0.4,2.1-1.3,2.5-2.4c0.5-1.1,0.5-2.4,0-3.5l-0.1-0.2l-0.2,0.1c-0.4,0.1-0.8,0.3-1.1,0.6C136.6,180.5,136.1,181.1,135.8,181.8
		L135.8,181.8z M128.7,177.8c-0.8,0.9-1.2,2.1-1,3.3l0,0.2l0.2,0c1.2,0,2.4-0.5,3.1-1.4s1.2-2.1,1-3.3l0-0.2l-0.2,0
		c-0.8,0-1.5,0.2-2.2,0.6C129.3,177.2,129,177.5,128.7,177.8L128.7,177.8z M130.3,167.3c-1.1-0.4-2.4-0.3-3.5,0.3
		c-0.1,0.1-0.2,0.1-0.4,0.2c-0.9,0.6-1.5,1.5-1.8,2.5l-0.1,0.2l0.2,0.1c1.1,0.4,2.4,0.3,3.5-0.3c1.1-0.6,1.8-1.6,2.1-2.7l0.1-0.2
		L130.3,167.3z M181.2,104.3l0.1-0.2c0.5-1.1,1.4-1.9,2.6-2.3s2.4-0.2,3.4,0.4l0.2,0.1l-0.1,0.2c-0.5,1.1-1.4,1.9-2.6,2.3
		c-1.1,0.4-2.4,0.2-3.4-0.4L181.2,104.3z M182.4,115.4c0.5,1.1,1.4,1.9,2.6,2.3c1.1,0.4,2.4,0.2,3.4-0.4l0.2-0.1l-0.1-0.2
		c-0.5-1.1-1.4-1.9-2.6-2.3c-1.1-0.4-2.4-0.2-3.4,0.4l-0.2,0.1L182.4,115.4L182.4,115.4z M158.7,125.7c0.3-1.2,0-2.4-0.6-3.4
		l-0.1-0.2l-0.2,0.1c-1,0.6-1.8,1.6-2.1,2.7c-0.1,0.5-0.1,1-0.1,1.5c0.1,0.7,0.3,1.3,0.7,1.9l0.1,0.2l0.2-0.1
		C157.7,127.9,158.4,126.8,158.7,125.7L158.7,125.7z M162.8,118.4c0.2,1,0.7,2,1.4,2.8c1.1,1.3,2.6,2.1,4.1,2.1l0.2,0l0-0.3
		c0.1-1.7-0.5-3.5-1.6-4.8c-1.1-1.3-2.6-2.1-4.1-2.1l-0.2,0l0,0.3C162.5,117.1,162.6,117.8,162.8,118.4L162.8,118.4z M161.5,127
		c0.4,1.4,1.2,2.5,2.5,3.2l0.2,0.1l0.1-0.2c0.9-1.2,1.2-2.7,0.9-4.2c-0.3-1.5-1.2-2.7-2.5-3.4l-0.2-0.1l-0.1,0.2
		c-0.9,1.2-1.2,2.7-0.9,4.2C161.4,126.9,161.5,126.9,161.5,127L161.5,127z M171.9,121.5c0,0.3-0.1,0.7,0,1c0.1,1.1,0.5,2.2,1.2,3.1
		c1,1.1,2.4,1.8,3.8,1.8l0.2,0l0-0.2c0-0.3,0.1-0.7,0-1c-0.1-1.1-0.5-2.2-1.2-3.1c-1-1.1-2.4-1.8-3.8-1.8l-0.2,0L171.9,121.5
		L171.9,121.5z M168.4,125.4c-0.1,0.3-0.3,0.6-0.3,1c-0.3,1.1-0.2,2.2,0.2,3.2c0.5,1.3,1.7,2.4,3,2.9l0.2,0.1l0.1-0.2
		c0.1-0.3,0.3-0.6,0.3-1c0.3-1.1,0.2-2.2-0.2-3.2c-0.5-1.3-1.6-2.4-3-2.9l-0.2-0.1L168.4,125.4L168.4,125.4z M179.8,121.8
		c1.3,0.8,2.8,0.9,4.2,0.5l0.2-0.1l-0.1-0.2c0-0.2-0.1-0.4-0.2-0.6c-0.4-1.2-1.2-2.2-2.3-2.9c-1.3-0.7-2.8-0.9-4.2-0.5l-0.2,0.1
		l0.1,0.2c0,0.2,0.1,0.4,0.2,0.6l0,0C177.9,120.2,178.7,121.2,179.8,121.8L179.8,121.8z M179.6,110.2c1.1,0.9,2.6,1.4,4,1.2
		c1.4-0.2,2.7-1,3.5-2.2l0.1-0.2l-0.2-0.2c-1.1-1-2.6-1.4-4-1.2c-1.4,0.2-2.7,1-3.5,2.2l-0.1,0.2L179.6,110.2L179.6,110.2z
		 M175.6,94.3l0.1,0.2l0.2,0c1.2-0.1,2.3-0.7,3-1.7c0.7-1,1-2.2,0.8-3.4l-0.1-0.2l-0.2,0c-1.2,0.1-2.3,0.7-3,1.7
		C175.6,91.9,175.3,93.1,175.6,94.3L175.6,94.3z M150.3,99.9c-0.9-0.8-2.1-1.2-3.3-1l-0.2,0l0,0.2c0,0.7,0.2,1.4,0.5,2
		c0.2,0.4,0.6,0.8,0.9,1.2c0.9,0.8,2.1,1.2,3.3,1l0.2,0l0-0.2C151.8,101.8,151.2,100.7,150.3,99.9L150.3,99.9z M157.6,103.6
		c0.3,0.6,0.6,1.2,1,1.7l0.2,0.2l0.2-0.1c1.2-0.9,2-2.4,2.1-4.1c0.1-1.7-0.5-3.4-1.5-4.8l-0.2-0.2l-0.2,0.1c-1.2,0.9-2,2.4-2.1,4.1
		C157.1,101.5,157.2,102.6,157.6,103.6L157.6,103.6z M151.8,97.2c0,0.1,0.1,0.2,0.1,0.2c0.6,1.4,1.7,2.4,3.1,2.9l0.2,0.1l0.1-0.2
		c0.6-1.4,0.6-2.9,0-4.3c-0.6-1.4-1.7-2.4-3.1-2.9l-0.2-0.1l-0.1,0.2C151.3,94.4,151.3,95.8,151.8,97.2L151.8,97.2L151.8,97.2z
		 M163.4,95.5l0.2,0.2l0.2-0.2c1.2-0.9,1.9-2.3,2-3.7c0.1-1.1-0.2-2.2-0.8-3.2c-0.2-0.3-0.4-0.6-0.6-0.8l-0.2-0.2l-0.2,0.2
		c-1.2,0.9-1.9,2.3-2,3.7c-0.1,1.1,0.2,2.2,0.8,3.2C163,95,163.2,95.2,163.4,95.5L163.4,95.5z M158.3,94.5l0.2,0.1l0.1-0.2
		c0.8-1.2,1.1-2.7,0.8-4.1c-0.3-1.1-0.8-2-1.7-2.7c-0.3-0.2-0.5-0.4-0.8-0.6l-0.2-0.1l-0.1,0.2c-0.8,1.2-1.1,2.7-0.8,4.1
		c0.3,1.1,0.8,2,1.7,2.7C157.7,94.1,158,94.3,158.3,94.5L158.3,94.5z M169.7,90.6c-0.5,1.2-0.6,2.5-0.2,3.7c0.1,0.2,0.1,0.4,0.2,0.6
		l0.1,0.2L170,95c1.4-0.5,2.5-1.5,3.1-2.9c0.5-1.2,0.6-2.5,0.2-3.7c-0.1-0.2-0.1-0.4-0.2-0.6l-0.1-0.2l-0.2,0.1
		C171.4,88.2,170.3,89.2,169.7,90.6L169.7,90.6z M176.3,100.2l-0.1,0.2l0.2,0.1c1.4,0.5,2.9,0.4,4.1-0.3c1.3-0.7,2.2-1.9,2.5-3.3
		l0.1-0.2l-0.2-0.1c-1.4-0.5-2.9-0.4-4.1,0.3C177.6,97.5,176.7,98.8,176.3,100.2L176.3,100.2z M167.1,84c-0.2,0.7-0.1,1.5,0.1,2.3
		c0.1,0.4,0.3,0.8,0.6,1.1l0.1,0.2l0.2-0.1c1.1-0.6,1.8-1.6,2.1-2.8c0.3-1.2,0-2.4-0.7-3.4l-0.1-0.2l-0.2,0.1
		C168.1,81.9,167.4,82.9,167.1,84L167.1,84z M159,83.1c0,0.4,0.1,0.8,0.3,1.2c0.3,0.7,0.8,1.3,1.4,1.8l0.2,0.1l0.2-0.2
		c0.8-0.9,1.2-2.1,1.1-3.3c-0.1-1.2-0.7-2.3-1.7-3l-0.2-0.2l-0.2,0.2C159.3,80.7,158.9,81.9,159,83.1L159,83.1z M153.9,91.6l0.1-0.2
		c0.5-1.1,0.4-2.4-0.1-3.5c-0.5-1.1-1.5-1.9-2.6-2.2l-0.2-0.1l-0.1,0.2c-0.4,1-0.4,2.1-0.1,3.1c0,0.1,0.1,0.3,0.2,0.4
		c0.5,1.1,1.5,1.9,2.6,2.2L153.9,91.6z M181.5,128.7c0.9,0.8,2.1,1.2,3.3,1l0.2,0l0-0.2c0-1.2-0.6-2.4-1.4-3.1
		c-0.9-0.8-2.1-1.2-3.3-1l-0.2,0l0,0.2c0,0.4,0.1,0.8,0.2,1.3C180.5,127.6,180.9,128.2,181.5,128.7L181.5,128.7z M175.5,134.2
		c0.6,1,1.6,1.8,2.8,2l0.2,0l0.1-0.2c0.4-1.1,0.2-2.4-0.4-3.4c-0.6-1-1.6-1.8-2.8-2l-0.2,0l-0.1,0.2c-0.2,0.7-0.3,1.5-0.1,2.3
		C175.1,133.5,175.3,133.9,175.5,134.2L175.5,134.2z M166.4,131.2c-0.7,1-1,2.2-0.8,3.4c0,0.1,0.1,0.3,0.1,0.4
		c0.3,1,0.9,1.9,1.8,2.5l0.2,0.1l0.2-0.2c0.7-1,1-2.2,0.8-3.4c-0.2-1.2-0.9-2.2-1.9-2.9l-0.2-0.1L166.4,131.2z M145.4,123.3
		c0-12.1-9.9-22-22-22c-12.1,0-22,9.9-22,22s9.9,22,22,22S145.4,135.5,145.4,123.3L145.4,123.3z M103.4,124.3h7.2
		c0.1,3.6,0.9,7,2.2,10h-6.1C104.8,131.4,103.6,128,103.4,124.3z M106.7,112.3h6.1c-1.3,3-2,6.4-2.2,10h-7.2
		C103.6,118.6,104.8,115.2,106.7,112.3z M143.3,122.3h-7.2c-0.1-3.6-0.9-7-2.2-10h6C141.9,115.2,143.1,118.6,143.3,122.3
		L143.3,122.3z M140,134.3h-6c1.3-3,2-6.4,2.2-10h7.2C143.1,128,141.9,131.4,140,134.3L140,134.3z M124.4,142.6v-6.3l6.2,0
		C129,139.1,126.9,141.2,124.4,142.6L124.4,142.6z M124.4,134.3v-10h9.7c-0.1,3.6-1,7-2.4,10H124.4z M134,122.3h-9.7v-10h7.3
		C133.1,115.3,133.9,118.7,134,122.3z M124.4,110.2v-6.3c2.5,1.4,4.6,3.6,6.3,6.3H124.4z M122.3,103.9v6.3h-6.2
		C117.7,107.5,119.8,105.3,122.3,103.9z M122.3,112.3v10h-9.7c0.1-3.6,1-7,2.4-10H122.3z M112.6,124.3h9.7v10H115
		C113.6,131.4,112.7,127.9,112.6,124.3z M122.3,136.4v6.3c-2.5-1.4-4.6-3.6-6.3-6.3H122.3z M127.8,142.8c2-1.7,3.8-3.8,5.1-6.4h5.4
		C135.7,139.5,132,141.8,127.8,142.8z M138.4,110.2H133c-1.4-2.5-3.1-4.7-5.1-6.4C132,104.8,135.7,107.1,138.4,110.2z M118.8,103.9
		c-2,1.7-3.8,3.8-5.1,6.4h-5.4C111,107.1,114.6,104.8,118.8,103.9L118.8,103.9z M108.3,136.4h5.4c1.4,2.5,3.1,4.7,5.1,6.4
		C114.6,141.8,111,139.5,108.3,136.4z M149.3,119.9c0.7-0.2,1.4-0.4,2-0.5c1,7-0.6,14.4-5.1,20.6c-0.9,1.2-1.8,2.3-2.9,3.4
		c-0.4-0.5-0.9-1.1-1.3-1.7c0.9-0.9,1.7-1.9,2.5-2.9C148.6,133.1,150.1,126.3,149.3,119.9z M97.4,119.9c-0.7-0.2-1.4-0.4-2-0.5
		c-1.2,8.6,1.6,17.6,8,24c0.4-0.5,0.9-1.1,1.3-1.7C98.9,135.8,96.4,127.8,97.4,119.9z M128.5,97.8c3.6,0.7,7,2.2,10.2,4.5
		c3,2.2,5.4,4.9,7.2,7.9c0.7-0.2,1.4-0.5,2-0.8c-1.9-3.4-4.6-6.4-7.9-8.9c-3.4-2.5-7.3-4.1-11.4-4.9C128.5,96.3,128.5,97,128.5,97.8
		z M123.3,149.6c-3.4,0-6.9-0.7-10.2-2.1c-0.4,0.6-0.8,1.2-1.2,1.8c3.6,1.6,7.4,2.4,11.4,2.4c4,0,7.9-0.8,11.4-2.4
		c-0.4-0.6-0.8-1.2-1.2-1.8C130.3,148.9,126.8,149.6,123.3,149.6z M102.2,108c4-5.5,9.8-9,16-10.3c0-0.7,0-1.5,0-2.1
		c-7.1,1.3-13.4,5.3-17.7,11.2c-0.6,0.8-1.2,1.7-1.7,2.6c0.6,0.3,1.3,0.5,2,0.8C101.2,109.4,101.6,108.7,102.2,108z"/>
</g>
</svg>
