<?xml version="1.0" encoding="utf-8"?>
<!-- Generator: Adobe Illustrator 28.0.0, SVG Export Plug-In . SVG Version: 6.00 Build 0)  -->
<svg version="1.1" id="Layer_1" xmlns="http://www.w3.org/2000/svg" xmlns:xlink="http://www.w3.org/1999/xlink" x="0px" y="0px"
	 viewBox="0 0 122 119" style="enable-background:new 0 0 122 119;" xml:space="preserve">
<path d="M121.2,14c0-7.7-6.2-13.8-14.2-13.8H14.3c-7.7,0-14,6.2-14,13.8v63.3v5c0,7.7,6.2,14,14,14h31.4l-5.9,8.2h-4.9
	c-4,0-7.2,3.2-7.2,7.1c0,3.9,3.2,7.1,7.2,7.1h51.4c4,0,7.2-3.2,7.2-7.1c0-3.9-3.2-7.1-7.2-7.1h-4.7l-5.7-8.4h31.4
	c7.7,0,14-6.2,14-14v-5V14z M3.9,14c0-5.6,4.7-10.3,10.4-10.3H107c5.7,0,10.4,4.7,10.4,10.3v61.4H3.9V14z M90,111.5
	c0,2.1-1.5,3.5-3.6,3.5H35c-1.9,0-3.6-1.5-3.6-3.5c0-1.9,1.7-3.5,3.6-3.5h5.9h39.9h5.9C88.5,108.1,90,109.6,90,111.5z M77.2,104.4
	H44.3l5.9-8.2h21.2L77.2,104.4z M117.6,82.4c0,5.6-4.7,10.3-10.4,10.3h-35H49.2h-35C8.6,92.6,3.9,88,3.9,82.4v-3.2h113.6
	C117.6,79.2,117.6,82.4,117.6,82.4z M57.2,87.4h7c0.9,0,1.9-0.7,1.9-1.9s-0.8-1.9-1.9-1.9h-7c-0.9,0-1.9,0.7-1.9,1.9
	C55.5,86.5,56.2,87.4,57.2,87.4z M102.9,61.4H62.6c-0.8-2.6-3.2-4.7-6.2-4.7c-3,0-5.5,1.9-6.2,4.7H33c-0.9,0-1.9,0.7-1.9,1.9
	c0,1.1,0.8,1.9,1.9,1.9h17.2c0.8,2.6,3.2,4.7,6.2,4.7c3,0,5.5-2.1,6.2-4.7h40.3c0.9,0,1.9-0.7,1.9-1.9
	C104.6,62.4,103.8,61.4,102.9,61.4z M56.4,66.1c-1.5,0-2.8-1.3-2.8-2.8c0-1.5,1.3-2.8,2.8-2.8c1.5,0,2.8,1.3,2.8,2.8
	C59.2,64.8,57.9,66.1,56.4,66.1z M19,56c-1.3-1.1-3.2-1.3-4.7-0.6c-1.5,0.7-2.6,2.2-2.6,4.1v7.7c0,1.7,0.9,3.2,2.5,3.9
	c0.6,0.4,1.3,0.4,1.9,0.4c0.9,0,2.1-0.4,2.8-0.9l4.7-3.7c1.1-0.9,1.7-2.1,1.7-3.4c0-1.3-0.6-2.6-1.7-3.5L19,56z M21.4,63.9l-4.7,3.7
	c-0.4,0.4-0.8,0.2-0.8,0c-0.2,0-0.4-0.4-0.4-0.7v-7.7c0-0.4,0.2-0.6,0.4-0.7c0.2,0,0.2,0,0.4,0c0.2,0,0.4,0,0.6,0.2l4.7,3.7
	c0.2,0.2,0.4,0.6,0.4,0.6S21.8,63.7,21.4,63.9z M35.8,39h0.6v3.4c0,1.1,0.8,2.2,1.7,2.8c0.4,0.2,0.8,0.2,1.3,0.2
	c0.8,0,1.5-0.2,1.9-0.7l6.4-5.6h8.5v7.8c0,2.6,2.1,4.9,4.9,4.9h11.3l5.1,4.3c0.6,0.4,1.1,0.7,1.9,0.7c0.4,0,0.8,0,1.1-0.2
	c0.9-0.4,1.7-1.5,1.7-2.4v-2.2h0.2c2.6,0,4.9-2.1,4.9-4.9V32.3c0-2.6-2.3-4.9-4.9-4.9H67.9V15c0-3-2.5-5.4-5.7-5.4H35.8
	c-3,0-5.7,2.4-5.7,5.4v18.5C30.1,36.4,32.6,39,35.8,39z M83.4,31.9v14.9c0,0.6-0.6,1.1-1.1,1.1h-1.9c-0.9,0-1.9,0.7-1.9,1.9v2.2
	l-4-3.5c-0.4-0.4-0.8-0.4-1.1-0.4H61.3c-0.6,0-1.1-0.6-1.1-1.1V31.9c0-0.6,0.6-1.1,1.1-1.1h21.2C83,30.8,83.4,31.4,83.4,31.9z
	 M33.9,15c0-1.1,0.9-1.9,1.9-1.9h26.5c1.1,0,1.9,0.7,1.9,1.9v12.3h-2.8c-2.6,0-4.9,2.1-4.9,4.7v3.4h-9.3c-0.4,0-0.9,0.2-1.1,0.4
	l-5.9,5V37c0-0.9-0.8-1.9-1.9-1.9h-2.5c-1.1,0-1.9-0.9-1.9-1.9V15z"/>
</svg>
