<?xml version="1.0" encoding="utf-8"?>
<!-- Generator: Adobe Illustrator 28.1.0, SVG Export Plug-In . SVG Version: 6.00 Build 0)  -->
<svg version="1.1" id="Layer_1" xmlns="http://www.w3.org/2000/svg" xmlns:xlink="http://www.w3.org/1999/xlink" x="0px" y="0px"
	 viewBox="0 0 303.1 43.7" style="enable-background:new 0 0 303.1 43.7;" xml:space="preserve">
<style type="text/css">
	.st0{fill-rule:evenodd;clip-rule:evenodd;fill:#84CBF3;}
</style>
<path class="st0" d="M35.9,30.8c-6.8,5.7-15.3,12.9-28,12.9C3.5,43.6,0,38.9,0,33.1s3.5-10.5,7.9-10.5c7.8,0,13.1-4.1,19.9-9.8
	c0.2-0.1,0.3-0.3,0.5-0.4C34.9,6.8,43.2-0.2,55.3,0C67,0.3,75.2,7.1,81.7,12.5l0.2,0.2c6.7,5.6,11.6,9.6,18.7,10
	c8.1,0.5,14-3.6,21.7-9.5c0.3-0.2,0.5-0.4,0.8-0.6C130.4,7,139.5,0,152.1,0s21.7,6.9,29.1,12.5c0.2,0.2,0.5,0.4,0.7,0.6
	c7.7,5.8,13.5,9.9,21.7,9.5c7.1-0.4,12.1-4.4,18.9-10.1l0.1-0.1C229.1,7,237.4,0,249.3,0c11.4,0,24.2,6.5,33.4,12.2
	c4.8,3,8.9,5.9,11.8,8.2c1.5,1.1,2.7,2,3.5,2.7c0.4,0.3,0.7,0.6,1,0.8c0.1,0.1,0.2,0.2,0.3,0.2l0.1,0.1l0,0l0,0l0,0c0,0,0,0-4.2,8.9
	l4.2-8.9c3.7,3.1,4.8,9.6,2.4,14.5c-2.3,4.9-7.2,6.4-10.9,3.3l0,0l0,0l0,0l0,0c0,0-0.1-0.1-0.2-0.2c-0.2-0.1-0.4-0.4-0.8-0.7
	c-0.7-0.6-1.8-1.4-3.1-2.4c-2.7-2-6.4-4.7-10.7-7.4c-8.9-5.6-19-10.3-26.7-10.3c-7,0-11.9,3.8-18.6,9.3c-0.2,0.2-0.4,0.4-0.7,0.5
	c-6.4,5.3-14.5,12.1-25.9,12.7c-13.1,0.7-22.4-6.4-30-12.2l-0.1-0.1c-7.8-5.9-13.7-10.3-22-10.3s-14.2,4.4-22,10.4H130
	c-7.6,5.8-17,12.9-30.1,12.1C88.5,43,80.5,36.3,74.1,31c-0.2-0.2-0.4-0.3-0.6-0.5C67,25,62.1,21.2,55.1,21.1c-7.2-0.2-12,3.7-19,9.5
	C36,30.7,36,30.7,35.9,30.8z"/>
</svg>
