<?xml version="1.0" encoding="utf-8"?>
<!-- Generator: Adobe Illustrator 28.1.0, SVG Export Plug-In . SVG Version: 6.00 Build 0)  -->
<svg version="1.1" id="Layer_1" xmlns="http://www.w3.org/2000/svg" xmlns:xlink="http://www.w3.org/1999/xlink" x="0px" y="0px"
	 viewBox="0 0 499.2 499.2" style="enable-background:new 0 0 499.2 499.2;" xml:space="preserve">
<style type="text/css">
	.st0{fill:#FFFFFF;}
	.st1{fill:#33835D;}
	.st2{fill:#292829;}
</style>
<rect class="st0" width="499.2" height="499.2"/>
<g>
	<path class="st1" d="M120.1,199.3L120,276l3.3-2.7V197L120.1,199.3z M99.7,277.4l-28.1-16.8l-0.2,14.7l40.9,23.7V201l-12.7-7.3
		v83.7H99.7z M140,219.9l36.1-20.6v15.4L140,234.6V219.9z M136.1,216.8v25.1l39.7-21.8v21l-39.9,21v23.1l-15.8,8.7l0.2,5l20.2-11.2
		v-22.4l39.5-22.2v-51.5L136.1,216.8z M68.5,217.2v-7.5l11.4,7.1v7.5L68.5,217.2z M53.6,222.8L79.8,239v6.4l-26.4-15.8v19.9
		l-18.5-10.8v15.6l31,18.3v-20.6l28.7,16.6v-57.8l-41.1-24.5V222.8z M0.8,277.2l115.3,67.9l115.1-67.9v-99.3l-3.1,1.5V265l-112,64
		L3.9,265.2v-85.8l-3.1-1.7V277.2z M211.3,172.5v82.1l-94.9,53l-95.2-53.2v-81.7l-3.1-1.7v95.6l98.3,57.1l98.1-56.9v-96L211.3,172.5
		z M136,191v5l44-24.5v-4.4L136,191z M53.4,180l41.3,25.1v-15l-41.1-24.5L53.4,180z M193,159.8v93.7l-38.9,22v4.8l42.2-23.7v-98.3
		L193,159.8z M35.7,154.9l-0.6,74.4l13.3,7.3v-74.4L35.7,154.9z"/>
	<g>
		<path class="st2" d="M268.8,193.1c-0.8,2.1-2.7,6.2-2.7,8.3c0,2.3,2.7,2.1,4.4,2.3v1.2c-1.9,0-4-0.2-6-0.2s-3.7,0.2-5.6,0.2v-1.2
			c2.9-0.4,4-1.2,5.2-3.9c1.5-3.5,3.1-6.9,4.4-10.4l8.3-21.4h1.9l11,27.6c0.6,1.3,1.9,4.8,2.9,6c1.2,1.5,2.9,1.7,4.6,1.9v1.2
			c-2.5,0-5.2-0.2-7.7-0.2c-2.7,0-5.2,0.2-7.9,0.2v-1.2c1.5,0,4.2,0,4.2-2.1c0-1.3-0.6-3.1-1.2-4.2l-2.1-5.6h-13.5L268.8,193.1z
			 M282.1,190l-6-15.4l-6,15.4H282.1z"/>
		<path class="st2" d="M310.3,202.4c5.6,0.4,11.4,0.6,11.4,7.9c0,6.9-6.4,9.1-12.3,9.1c-4.4,0-11.4-1.5-11.4-7.1
			c0-2.3,1.7-4.4,4-4.4c1,0,1.5,0.4,2.3,1c-1.7,0.4-2.9,2.1-2.9,3.9c0,4.8,4.8,5.6,8.7,5.6c3.9,0,7.9-1.5,7.9-6c0-5.4-6-5-9.6-5.2
			c-3.7-0.2-8.5,0-8.5-4.8c0-2.7,2.5-4.4,4.8-4.6v-0.2c-3.1-1-5.8-4-5.8-7.5c0-5.8,4.8-8.9,10.2-8.9c2.5,0,5,0.8,6.9,2.5
			c1.5-1.2,3.3-2.3,5.2-2.3c1.3,0,3.3,0.6,3.3,2.3c0,1-0.8,1.7-1.7,1.7c-1.7,0-1.9-1.9-3.5-1.9c-0.8,0-1.5,0.6-2.3,1
			c1.3,1.5,1.9,3.3,1.9,5.4c0,6.4-4.8,8.3-10.4,8.5c-1.5,0-5.8,0-5.8,2.3c0,1.9,3.1,1.7,4.2,1.7L310.3,202.4z M314.1,189.7
			c0-3.5-1.3-7.5-5.4-7.5c-4.2,0-5.4,4-5.4,7.5c0,3.3,1.3,7.3,5.2,7.3C312.8,197,314.1,193.1,314.1,189.7"/>
		<path class="st2" d="M340.3,190c0.6-0.2,0.4-1,0.4-1.5c0-3.7-0.4-6.4-4.8-6.4c-2.7,0-5,0.2-5.2,3.1c-0.2,1.2-0.8,2.3-2.1,2.3
			c-1.2,0-2.1-0.8-2.1-1.9c0-4,7.3-4.8,10-4.8c6,0,8.9,1.5,8.9,7.9v9.1c0,1.3-0.2,5.4,1.9,5.4c1.2,0,1.5-1,2.3-1.7l1,0.6
			c-1,1.7-2.9,3.7-4.8,3.7c-2.3,0-4-1.7-4.6-3.9c-2.5,2.1-5.8,3.9-9.1,3.9c-2.9,0-5.6-1.7-5.6-4.8c0-4.6,5.2-6.6,8.7-8.1L340.3,190z
			 M340.7,191.4c-3.3,1.5-9.4,3.7-9.4,8.1c0,1.9,1.2,3.9,3.5,3.9c2.1,0,4.4-1.5,6-3.1L340.7,191.4L340.7,191.4z"/>
		<path class="st2" d="M376.8,191.4v6.4c0,5.2,0.2,5.4,5.4,5.8v1.2c-2.7,0-5.2-0.2-7.9-0.2s-5.4,0.2-8.3,0.2v-1.2c1.7,0,4,0,4.6-1.9
			c0.6-1.5,0.6-5.4,0.6-7.3v-15.4c0-1.7,0-5.8-0.6-7.3c-0.8-1.9-2.9-1.9-4.6-1.9V169c2.7,0,5.2,0.2,7.7,0.2c2.9,0,5.6-0.2,8.5-0.2
			v1.2c-5.2,0.4-5.4,0.8-5.4,5.8v13.3c2.7-2.7,13.1-13.9,13.1-17c0-2.3-2.5-1.9-4-2.1V169c2.1,0,4.2,0.2,6.6,0.2
			c1.9,0,3.7-0.2,5.6-0.2v1.2c-3.1,0-3.7,0.8-5.4,3.1l-8.7,10.8l7.5,8.7c0.6,0.8,6.4,8.3,8.9,10.2c1.2,0.8,1.9,0.8,3.3,0.8v1.2
			c-2.9,0-5.8-0.2-8.7-0.2c-2.7,0-5.4,0.2-8.3,0.2v-1.2c1,0,4.6,0.2,4.6-1.5c0-1.2-3.5-5.2-4.2-6.2l-6.6-7.9L376.8,191.4z"/>
		<path class="st2" d="M410.9,185.6L410.9,185.6c1.9-2.9,5-4.6,8.5-4.6c5.2,0,8.1,2.5,8.1,7.5v9.8c0,3.7-0.6,5.2,3.7,5.4v1.2
			c-2.1,0-4.2-0.2-6.4-0.2c-1.9,0-4,0.2-5.8,0.2v-1.2c4-0.2,3.7-1.5,3.7-5.2v-8.1c0-3.5-0.4-7.9-5-7.9c-2.3,0-5,1.5-6.2,3.9
			c-1,1.7-1,3.9-1,6v6c0,3.7-0.4,5.2,3.9,5.4v1.2c-1.9,0-4-0.2-6-0.2c-2.1,0-4.2,0.2-6.2,0.2v-1.2c4-0.2,3.9-1.5,3.9-5.2v-20.8
			c0-1.3,0-4.6-0.6-5.8c-0.6-1.3-2.3-1.2-3.5-1.3v-1.2l8.7-1.7v17.9H410.9z"/>
		<path class="st2" d="M449.1,190c0.6-0.2,0.4-1,0.4-1.5c0-3.7-0.4-6.4-4.8-6.4c-2.7,0-5,0.2-5.2,3.1c-0.2,1.2-0.8,2.3-2.1,2.3
			c-1.2,0-2.1-0.8-2.1-1.9c0-4,7.3-4.8,10-4.8c6,0,8.9,1.5,8.9,7.9v9.1c0,1.3-0.2,5.4,1.9,5.4c1.2,0,1.5-1,2.3-1.7l1,0.6
			c-1,1.7-2.9,3.7-4.8,3.7c-2.3,0-4-1.7-4.6-3.9c-2.5,2.1-5.8,3.9-9.1,3.9c-2.9,0-5.6-1.7-5.6-4.8c0-4.6,5.2-6.6,8.7-8.1L449.1,190z
			 M449.5,191.4c-3.3,1.5-9.4,3.7-9.4,8.1c0,1.9,1.2,3.9,3.5,3.9c2.1,0,4.4-1.5,6-3.1V191.4L449.5,191.4z"/>
		<path class="st2" d="M486.1,198.3c0,3.7-0.4,5.2,3.9,5.4v1.2c-1.9,0-4-0.2-6-0.2c-2.1,0-4.2,0.2-6.4,0.2v-1.2
			c4-0.2,3.9-1.5,3.9-5.2v-6.9c0-3.7,0.2-9.1-5-9.1c-4.2,0-6.9,3.3-6.9,7.3v8.5c0,3.7-0.6,5.2,3.9,5.4v1.2c-1.9,0-4-0.2-6-0.2
			c-2.1,0-4.2,0.2-6.4,0.2v-1.2c4-0.2,3.9-1.5,3.9-5.2v-6.7c0-1.5,0-5.4-0.2-6.6c-0.4-1.9-1.9-1.7-3.7-1.7v-1.2
			c2.9-0.4,4.8-1.2,7.5-1.7l0.8,5h0.2c1.9-3.3,4.8-5,8.7-5c5.2,0,8.1,2.3,8.1,7.5v10.2H486.1z"/>
		<path class="st2" d="M264.2,237.1c0-1.7,0-5.8-0.6-7.3c-0.8-1.9-2.9-1.9-4.6-1.9v-1.5h27v8.3h-1.2c-1-6.4-3.9-6.7-9.6-6.7h-3.9
			c-0.8,0-1.2,0-1.3,0.2c-0.2,0.2,0,0.8,0,1.9v12.9c7.5,0.4,8.5-2.7,8.9-6.7h1.2c0,2.5-0.2,5-0.2,7.3c0.2,2.3,0.2,4.4,0.2,6.7h-1.2
			c-0.8-5.8-3.7-6-8.9-6v8.9c0,1.5,0,4.2,1,5.4c1.3,1.9,4.8,1.9,6.9,1.9c5.6-0.2,9.4-0.8,10-7.3h1.2l-0.6,8.7H259v-1.2
			c1.7,0,4,0,4.6-1.9c0.6-1.5,0.6-5.4,0.6-7.3V237.1z"/>
		<path class="st2" d="M314.5,263.1c-0.6-1.2-1-2.7-1.2-4c-2.3,2.9-4.8,4-8.5,4c-6.9,0-11.6-5.2-11.6-12c0-6.6,4.6-12.5,11.6-12.5
			c3.1,0,5.8,1.2,7.7,3.3v-8.7c0-3.3-0.2-5-4-5.2v-1.2l8.7-1.7v27.4c0,1.5,0,4.2,0.6,5.6c0.8,1.9,2.1,1.7,3.9,1.7v1.2L314.5,263.1z
			 M312.8,245.8c0-3.5-3.3-5.6-6.6-5.6c-5.8,0-7.5,6.2-7.5,10.8c0,4.8,1.5,10.6,7.5,10.6c4.8,0,6.6-3.9,6.6-8.1V245.8z"/>
		<path class="st2" d="M332.6,253.9c0,3.3,0.2,7.5,4.4,7.5c4.2,0,7.5-3.9,7.5-8.1V246c0-4,0.4-5.4-4-6v-1.2c1.5,0.2,3.1,0.2,4.4,0.2
			c1.3-0.2,2.9-0.2,4.2-0.2v17.5c0,1.5,0,3.7,1.9,3.7c0.6,0,1.3-0.2,2.1-0.2v1.2l-7.5,1.9l-1.2-5c-1.9,3.1-5.4,5-9.1,5
			c-5.4,0-7.5-2.9-7.5-7.7V246c0-4,0.4-5.4-4-6v-1c1.5,0,3.1,0.2,4.4,0.2c1.3,0,2.9-0.2,4.2-0.2V253.9z"/>
		<path class="st2" d="M377.7,259.1c-2.3,2.9-6,4.2-9.6,4.2c-6.7,0-11.8-4.8-11.8-11.6c0-7.5,5.8-13.1,13.3-13.1
			c2.1,0,7.1,0.6,7.1,3.7c0,1-0.8,1.9-1.7,1.9c-1.3,0-1.9-1.2-2.3-2.1c-0.6-1.5-1.2-2.1-3.1-2.1c-5.8,0-7.7,6-7.7,10.8
			c0,5.2,1.7,10.6,7.9,10.6c2.7,0,5.2-1.3,6.9-3.5L377.7,259.1z"/>
		<path class="st2" d="M395.3,247.7c0.6-0.2,0.4-1,0.4-1.5c0-3.7-0.4-6.4-4.8-6.4c-2.7,0-5,0.2-5.2,3.1c-0.2,1.2-0.8,2.3-2.1,2.3
			c-1.2,0-2.1-0.8-2.1-1.9c0-4,7.3-4.8,10-4.8c6,0,8.9,1.5,8.9,7.9v9.1c0,1.3-0.2,5.4,1.9,5.4c1.2,0,1.5-1,2.3-1.7l1,0.6
			c-1,1.7-2.9,3.7-4.8,3.7c-2.3,0-4-1.7-4.6-3.9c-2.5,2.1-5.8,3.9-9.1,3.9c-2.9,0-5.6-1.7-5.6-4.8c0-4.6,5.2-6.6,8.7-8.1
			L395.3,247.7z M395.7,249c-3.3,1.5-9.4,3.7-9.4,8.1c0,1.9,1.2,3.9,3.5,3.9c2.1,0,4.4-1.5,6-3.1L395.7,249L395.7,249z"/>
		<path class="st2" d="M407.8,240.9v-1c2.7-1.5,5.4-3.7,6.6-6.9h0.8v6.4h6.2v1.5h-6v15.4c0,2.5,0.6,5,3.3,5c1.9,0,2.9-1.2,3.9-2.5
			l1,0.8c-1,2.7-3.7,3.5-6.4,3.5c-3.9,0-6.6-1.5-6.6-5.6v-16.6H407.8z"/>
		<path class="st2" d="M432.9,238.6v17.5c0.2,3.7-0.6,5.2,3.9,5.4v1.2c-1.9,0-3.9-0.2-5.8-0.2c-2.1,0-4.2,0.2-6.4,0.2v-1.2
			c4-0.2,3.7-1.5,3.7-5.2v-7.7c0-1,0-5.2-0.2-6c-0.4-1.3-2.7-1.2-3.7-1.2v-1.2L432.9,238.6z M426.9,228.8c0-1.5,1.3-2.9,2.9-2.9
			s2.9,1.3,2.9,2.9c0,1.5-1.2,2.9-2.7,2.9C428.2,231.7,426.9,230.5,426.9,228.8"/>
		<path class="st2" d="M466.4,250.8c0,7.3-6,12.3-13.1,12.3s-13.1-5.4-13.1-12.5c0-6.9,6.4-12,13.1-12S466.4,243.8,466.4,250.8
			 M445.6,250.8c0,5.2,1.5,11.2,7.9,11.2c6,0,7.3-6,7.3-10.8c0-5.2-1.5-11.4-7.9-11.4C447.1,239.8,445.6,246.1,445.6,250.8"/>
		<path class="st2" d="M495.3,256c0,3.7-0.4,5.2,3.9,5.4v1.2c-1.9,0-4-0.2-6-0.2c-2.1,0-4.2,0.2-6.4,0.2v-1.2c4-0.2,3.9-1.5,3.9-5.2
			v-6.7c0-3.7,0.2-9.1-5-9.1c-4.2,0-6.9,3.3-6.9,7.3v8.5c0,3.7-0.6,5.2,3.9,5.4v1.2c-1.9,0-4-0.2-6-0.2c-2.1,0-4.2,0.2-6.4,0.2v-1.2
			c4-0.2,3.9-1.5,3.9-5.2v-6.7c0-1.5,0-5.4-0.2-6.6c-0.4-1.9-1.9-1.7-3.7-1.7v-1.2c2.9-0.4,4.8-1.2,7.5-1.7l0.8,5h0.2
			c1.9-3.3,4.8-5,8.7-5c5.2,0,8.1,2.3,8.1,7.5v10H495.3z"/>
		<path class="st2" d="M259,308.6h1.2c1.2,5.4,4,10,10.2,10c4.2,0,7.7-2.3,7.7-6.7c0-5-4.2-6.9-8.3-8.5c-5-1.9-10.2-4.4-10.2-10.8
			c0-6.2,4.8-9.8,10.8-9.8c3.1,0,5.8,1,8.3,2.7l1.2-2.1h0.6l0.2,9.4h-1.2c-1.2-4.4-3.9-8.7-9.1-8.7c-3.5,0-6.4,2.3-6.4,5.8
			c0,4.2,3.9,5.8,7.3,7.1c5.6,2.3,12,5.2,12,12.3c0,7.1-6.6,10.6-12.9,10.6c-3.7,0-6.6-1.2-9.4-3.3l-1.3,2.3H259L259,308.6
			L259,308.6z"/>
		<path class="st2" d="M308.9,315.7c-2.5,3.1-5.6,4.6-9.6,4.6c-6.7,0-12.3-4.8-12.3-11.8c0-6.7,5.2-12.9,12.1-12.9
			c5.4,0,10.4,2.9,10.4,8.9c0,0.8-0.8,0.6-1.3,0.6h-15.6l-0.2,2.7c0,5.2,2.7,11,8.5,11c2.7,0,5.2-1.9,6.9-4L308.9,315.7z M302,303.6
			c1,0,2.7,0.2,2.7-1.2c0-3.3-1.9-5.6-5.2-5.6c-4,0-5.8,3.1-6.4,6.6h8.9V303.6z"/>
		<path class="st2" d="M317.8,306.7c0-1.5,0-5.4-0.4-6.6c-0.6-1.9-1.9-1.7-3.7-1.7v-1.2c2.5-0.2,5-1.2,7.3-1.7
			c0.6,1.5,0.8,3.5,0.6,5.4h0.2c1.3-3.3,4-5.4,7.9-5.4c1.7,0,3.9,0.8,3.9,2.9c0,1-1,1.9-1.9,1.9c-2.3,0-1.7-2.9-3.9-2.9
			c-1.5,0-3.5,1.3-4.2,2.7c-1.2,2.3-1.2,4.8-1.2,7.3v5.6c0,4-0.4,5.2,4,5.4v1.2c-2.1,0-4.2-0.2-6.2-0.2c-2.1,0-4.2,0.2-6.4,0.2v-1.2
			c4-0.2,3.9-1.5,3.9-5.2L317.8,306.7L317.8,306.7z"/>
		<path class="st2" d="M338.2,301.3c-1-2.1-1.3-3.9-3.9-4v-1.2c1.9,0,3.9,0.2,5.8,0.2s3.7-0.2,5.6-0.2v1.2c-1.2,0-3.1,0.2-3.1,1.7
			c0,0.8,0.6,1.9,0.8,2.7l5.2,13.1c1-2.9,5.4-12.7,5.4-15.4c0-1.7-1.7-2.1-3.1-2.3v-1.2c1.3,0,2.7,0.2,4,0.2s2.7-0.2,3.9-0.2v1.2
			c-1,0.2-1.5,0.6-2.1,1.3c-1,1.2-2.3,4.8-2.9,6.4l-6.4,15.8h-1.2L338.2,301.3z"/>
		<path class="st2" d="M367.9,295.7V313c0.2,3.7-0.6,5.2,3.9,5.4v1.2c-1.9,0-3.9-0.2-5.8-0.2c-2.1,0-4.2,0.2-6.4,0.2v-1.2
			c4-0.2,3.7-1.5,3.7-5.2v-7.7c0-1,0-5.2-0.2-6c-0.4-1.3-2.7-1.2-3.7-1.2v-1.2L367.9,295.7z M361.9,286.1c0-1.5,1.3-2.9,2.9-2.9
			c1.5,0,2.9,1.3,2.9,2.9c0,1.5-1.2,2.9-2.7,2.9C363.5,288.9,361.9,287.6,361.9,286.1"/>
		<path class="st2" d="M396.6,316.1c-2.3,2.9-6,4.2-9.6,4.2c-6.7,0-11.8-4.8-11.8-11.6c0-7.5,5.8-13.1,13.3-13.1
			c2.1,0,7.1,0.6,7.1,3.7c0,1-0.8,1.9-1.7,1.9c-1.3,0-1.9-1.2-2.3-2.1c-0.6-1.5-1.2-2.1-3.1-2.1c-5.8,0-7.7,6-7.7,10.8
			c0,5.2,1.7,10.6,7.9,10.6c2.7,0,5.2-1.3,6.9-3.5L396.6,316.1z"/>
		<path class="st2" d="M422.3,315.7c-2.5,3.1-5.6,4.6-9.6,4.6c-6.7,0-12.3-4.8-12.3-11.8c0-6.7,5.2-12.9,12.1-12.9
			c5.4,0,10.4,2.9,10.4,8.9c0,0.8-0.8,0.6-1.3,0.6h-15.6l-0.2,2.7c0,5.2,2.7,11,8.5,11c2.7,0,5.2-1.9,6.9-4L422.3,315.7z
			 M415.1,303.6c1,0,2.7,0.2,2.7-1.2c0-3.3-1.9-5.6-5.2-5.6c-4,0-5.8,3.1-6.4,6.6h8.9V303.6z"/>
		<path class="st2" d="M427.9,320h-0.6l-0.2-7.7h1.2c1,3.5,2.7,6.9,6.7,6.9c2.3,0,4.6-1.2,4.6-3.9c0-3.1-3.1-4.4-5.4-5.6
			c-3.1-1.5-6.6-3.5-6.6-7.5c0-3.7,2.9-6.6,6.7-6.6c1.7,0,3.7,0.6,5.2,1.3l1.2-1.3h0.6l-0.2,6.7H440c-1-2.7-2.1-5.6-5.6-5.6
			c-1.7,0-3.5,1-3.5,3.1c0,2.9,3.1,3.9,5,5c3.7,1.9,7.1,3.3,7.1,8.3c0,4.4-3.9,7.1-7.9,7.1c-2.1,0-4.4-0.6-6-1.9L427.9,320z"/>
	</g>
</g>
</svg>
