<?xml version="1.0" encoding="utf-8"?>
<!-- Generator: Adobe Illustrator 28.1.0, SVG Export Plug-In . SVG Version: 6.00 Build 0)  -->
<svg version="1.1" id="Layer_1" xmlns="http://www.w3.org/2000/svg" xmlns:xlink="http://www.w3.org/1999/xlink" x="0px" y="0px"
	 viewBox="0 0 499.2 499.2" style="enable-background:new 0 0 499.2 499.2;" xml:space="preserve">
<style type="text/css">
	.st0{fill:#FFFFFF;}
	.st1{fill:#771215;}
</style>
<rect class="st0" width="499.2" height="499.2"/>
<g>
	<g>
		<path class="st1" d="M127,352.7c8.7,0,17,2.9,17,8.9s-0.2,19.4-0.2,24.8c0,8.1-0.5,25.9-0.5,34.8c0,5,4.9,5.6,4.9,5.6
			c-1.7,5.5-7,6.4-9.6,5.9c-3.3-0.8-7-3.2-6.9-9.8c0.1-4.3,0.1-16.9,0.4-20l0.2-2l-0.3-0.1c0,0-4.4,7.6-16.5,7.6s-19.4-10.7-19.4-23
			C96.1,366.4,106.2,352.7,127,352.7L127,352.7z M132.6,383.7c0.1-2.8,0.1-6.8,0.1-10.1c0-8.5-0.5-16.1-7.2-16.1
			c-11.1,0-16.8,12.5-16.8,24.2c0,9.5,4.1,20,11.2,20S132.2,395.8,132.6,383.7L132.6,383.7z"/>
		<path class="st1" d="M155,381.5c0-21.3-2.2-26.9-2.6-27.3c1.8-0.5,3.5-0.9,5.1-0.9c4.8,0,7.7,1.6,7.7,5.9c0,1.6,0.1,4.7,0.1,4.7
			l0.4,0.1c3.6-9.4,10.9-10.8,14.5-10.8c6.1,0,9.1,3.9,9.6,6.2c0.5,2.3,0.2,5.1-2,8l-0.5,0.2c-1.5-2.2-4.8-5.2-9-5.2
			c-5.9,0-10.8,3.2-12.2,8.9c-0.7,2.7-0.3,6.4-0.3,10.8c0,8.1-0.3,13.7,0.3,16.8c0.7,3.5,4.6,4.3,4.7,4.1c-1.7,5.6-7.3,6.4-9.4,5.9
			c-3.9-0.9-6.9-3.8-6.9-8.2C154.5,394.4,155,387.3,155,381.5L155,381.5z"/>
		<path class="st1" d="M217.5,374.3c0.2,0,0.4-0.2,0.4-0.4v-0.6c0-8.8-2-13.8-10.1-13.8c-2,0-4.8,0.8-7.3,2.1
			c-3.1,1.7-2.6,0.1-1.5-2.3c3.7-3.3,8.6-6.7,13.3-6.7c14.9,0,16.9,8.9,16.9,18.5c0,5.6-0.3,12.6-0.3,18.4v1.3
			c-0.2,5.6,0.3,11.2,5.4,11.8c2,0.3,3.5-0.6,4-1c0.1-0.1,0.3-0.1,0.5,0l0.2,0.1c0,0-3.6,6.8-12.7,6.8c-3.3,0-8.2-2.6-8.3-8.2
			l-0.4-0.2c-2.4,4.4-7.7,8.1-14.3,8.1c-8.8,0-14-6.4-14-14.1C189.2,379.2,206.1,374.6,217.5,374.3L217.5,374.3z M208.1,400.9
			c3.6,0,9.4-3.3,9.4-7.2s0.3-9.5,0.3-14.7c0-0.2-0.2-0.4-0.5-0.4c-4.7,0.8-16.3,2.9-16.3,13.7C201.1,398.6,204.5,400.9,208.1,400.9
			L208.1,400.9z"/>
		<path class="st1" d="M251.1,406v-48h-7.4v-4.1h7.4v-2.8c0-8,1.5-14.5,5.7-18.8c3.1-3.2,7.4-4.6,11.4-4.6c3.3,0,6.2,0.9,7.7,1.7
			l-1.6,4.1c-1.4-0.8-3.4-1.5-6.6-1.5c-9.6,0-11.6,8.9-11.6,18.9v2.9H270v4.1h-13.9V406L251.1,406L251.1,406z"/>
		<path class="st1" d="M318.6,393.3c0,4.6,0.2,8.7,0.4,12.7h-4.7l-0.3-9.2h-0.2c-2.6,4.8-8.5,10.4-17.7,10.4
			c-6.5,0-17.5-3.3-17.5-23v-30.3h5v29.3c0,11.3,3.5,19.4,13.8,19.4c7.5,0,13-5.3,15.2-10.5c0.5-1.6,1.1-3.7,1.1-5.8v-32.4h5
			L318.6,393.3L318.6,393.3z"/>
		<path class="st1" d="M331.6,366.4c0-4.8-0.2-8.4-0.4-12.5h4.7l0.4,9.4h0.2c2.8-5.9,9.2-10.6,17.7-10.6c4.9,0,18,2.5,18,22V406
			h-5.1v-30.8c0-9.4-3.7-18-14.3-18c-7.3,0-13.4,5.2-15.5,11.9c-0.4,1.3-0.8,3-0.8,4.7V406h-5L331.6,366.4L331.6,366.4z"/>
		<path class="st1" d="M421.2,374.5c0-1.4-0.2-3.4-0.5-4.8c-1.8-6.9-7.8-12.7-16.2-12.7c-11.3,0-18.4,9.9-18.4,23.4
			c0,11.7,5.8,22.4,18.1,22.4c7.4,0,14.3-4.9,16.6-13.5c0.3-1.4,0.5-2.7,0.5-4.3L421.2,374.5L421.2,374.5z M426.4,329v64.8
			c0,3.9,0.2,8.4,0.4,12.1h-4.6l-0.3-9.9h-0.2c-2.7,5.7-8.8,11.1-18.4,11.1c-12.7,0-22.2-10.7-22.2-26.2
			c-0.1-17.3,10.5-28.2,23.2-28.2c8.9,0,14.5,4.7,16.9,9.1h0.2V329L426.4,329L426.4,329z"/>
		<path class="st1" d="M92.7,404.6c2.2-1.9-0.3-2.7-1.6-3.4c0,0-0.2,0-0.3,0c-2.3,0-4.2-1.3-5-3.3c-0.8-2.2-0.4-5.4-0.4-8
			c0-8.3,3.1-22.8,2.6-29.7c-0.4-5.3-4.7-7.3-7.8-7.3c-1.5,0-4.3,0.3-6.2,0.8c-0.3,0.1-0.4,0.4-0.2,0.7c1.1,1.5,3.4,7.2,2.7,24.6
			c-0.3,8.4-1.8,12-1.8,18.4c0,0,0,3.8,3.1,7c1.5,1.6,5.6,4.3,10.9,2.6C90.2,406.5,91.5,405.6,92.7,404.6L92.7,404.6z"/>
		<path class="st1" d="M80,345.3c4.1,0,7.6-3.5,7.6-7.5s-3.5-7.6-7.6-7.6s-7.5,3.5-7.5,7.6C72.5,341.9,75.9,345.3,80,345.3"/>
	</g>
	<g>
		<path class="st1" d="M129,179.8c16.6,0,20.7-12.8,20.7-23.6c0-9.2-0.9-18-1.8-27c-0.9-9.2-1.8-18.2-1.8-27.9
			c0-25.6,15.7-34.9,32.2-34.9h2.2v10.1h-4c-13.3,1.8-18.2,8.8-18.2,23.6c0,8.5,0.9,17.1,1.8,25.2c0.9,8.3,1.8,16.2,1.8,24.5
			c0.4,25.6-7.6,31.5-18.9,34.4v0.7c11.2,2.9,19.6,8.8,18.9,34.2c0,8.1-0.9,16.2-1.8,24.3c-0.9,8.3-1.8,16.6-1.8,25.4
			c0,14.8,4.9,21.8,18.2,23.6h4v10.1h-2.2c-16.6,0-32.2-9.2-32.2-34.9c0-9.4,0.9-18.7,1.8-27.9c0.9-8.8,1.8-18,1.8-27
			c0-11-4-23.6-20.7-23.6L129,179.8L129,179.8z"/>
		<path class="st1" d="M370.2,189.4c-16.6,0-20.7,12.8-20.7,23.6c0,8.8,0.9,18,1.8,27c0.9,9.2,1.8,18.4,1.8,27.9
			c0,25.6-15.7,34.9-32.2,34.9h-2.5v-10.1h4c13.3-1.8,18.4-8.8,18.4-23.6c0-8.8-0.9-17.1-1.8-25.4c-0.9-8.1-1.8-16.2-1.8-24.3
			c-0.7-25.4,7.6-31.3,18.9-34.2v-0.7c-11.2-2.9-19.6-8.8-18.9-34.2c0-8.3,0.9-16.2,1.8-24.5c0.9-7.9,1.8-16.6,1.8-25.2
			c0-14.8-4.9-21.8-18.4-23.6h-4V66.6h2.5c16.6,0,32.2,9.2,32.2,34.9c0,9.4-0.9,18.7-1.8,27.9c-0.9,8.8-1.8,17.8-1.8,27
			c0,11,4,23.6,20.7,23.6C370.2,180,370.2,189.4,370.2,189.4z"/>
		<path class="st1" d="M314.2,110c0.2,1.1-1.1,1.8-1.8,0.9c-4.5-6.3-11.7-10.6-20-10.6c-14.8,0-24.3,11.7-24.3,24.5l0.9,17.1
			c0,1.6,0.9,3.6,10.8,3.6c8.1,0,20.2-2.2,21.6-2.7c0.9-0.2,1.8,0.4,1.8,1.3c0.2,13.5-7,15.3-20.9,15.5c-2.9,0-6.1,0.4-9,3.8
			c-5.8,6.7-4,30.4-3.6,42.7c0.7,18.4,2,36.4,2,36.4c0.7,12.6-0.2,21.4-4.9,28.6c-5.6,8.3-16,13.9-25.2,13.5
			c-6.3-0.2-11.7-1.8-16.4-4.9c-0.9-0.4-0.4-1.8,0.7-1.8c8.3,0.4,19.6-2.9,24.7-16c5.4-13.5,3.6-30.4,1.8-69.3
			c-0.4-11-0.2-26.3-0.2-30.8c0-1.8,0.7-4-7.2-4.7c-9.2-0.7-18-6.7-17.8-9.4c0.2-1.6,7-0.2,16-1.3c5.2-0.7,7.4-6.5,7.4-12.6
			c-0.2-13.7,0.7-22.5,6.1-31.5c6.1-10.3,17.1-15.3,27.2-15.3C297.7,86.9,310.1,97,314.2,110L314.2,110z"/>
		<path class="st1" d="M234.8,247.7c0.2-0.9-0.9-1.6-1.6-0.9c-2,2.5-5.2,3.8-7.6,3.6c-4.5,0-8.3-2.5-9.7-6.5
			c-1.6-4.3-1.6-10.1-1.6-15.3c0-16.2,6.7-44.8,5.8-58c-0.7-10.3-9.2-14.2-15.1-14.2c-2.9,0-8.3,0.7-12.1,1.6
			c-0.4,0.2-0.9,0.9-0.4,1.3c2.2,2.9,7.4,14.4,6.1,48.1c-0.7,16.4-4,23.2-4,35.8c0,0,0,7.4,6.1,13.7c2.9,3.1,10.8,8.3,21.1,4.9
			C228.2,259.6,233,254,234.8,247.7L234.8,247.7z"/>
		<path class="st1" d="M204.4,141.5c8.1,0,14.8-6.7,14.8-14.6c0-7.9-6.7-14.8-14.8-14.8s-14.6,6.7-14.6,14.8
			S196.5,141.5,204.4,141.5"/>
	</g>
</g>
</svg>
