<?xml version="1.0" encoding="utf-8"?>
<!-- Generator: Adobe Illustrator 28.1.0, SVG Export Plug-In . SVG Version: 6.00 Build 0)  -->
<svg version="1.1" id="Layer_1" xmlns="http://www.w3.org/2000/svg" xmlns:xlink="http://www.w3.org/1999/xlink" x="0px" y="0px"
	 viewBox="0 0 499.2 499.2" style="enable-background:new 0 0 499.2 499.2;" xml:space="preserve">
<style type="text/css">
	.st0{fill:#FFFFFF;}
	.st1{fill:#771215;}
</style>
<rect class="st0" width="499.2" height="499.2"/>
<g>
	<path class="st1" d="M195.6,222c8.7,0,17,2.9,17,8.9s-0.2,19.4-0.2,24.8c0,8.1-0.5,25.9-0.5,34.8c0,5,4.9,5.6,4.9,5.6
		c-1.7,5.5-7,6.4-9.6,5.9c-3.3-0.8-7-3.2-6.9-9.8c0.1-4.3,0.1-16.9,0.4-20l0.2-2l-0.3-0.1c0,0-4.4,7.6-16.5,7.6s-19.4-10.7-19.4-23
		C164.7,235.7,174.9,222,195.6,222L195.6,222z M201.2,253c0.1-2.8,0.1-6.8,0.1-10.1c0-8.5-0.5-16.1-7.2-16.1
		c-11.1,0-16.8,12.5-16.8,24.2c0,9.5,4.1,20,11.2,20S200.9,265.1,201.2,253L201.2,253z"/>
	<path class="st1" d="M223.6,250.8c0-21.3-2.2-26.9-2.6-27.3c1.8-0.5,3.5-0.9,5.1-0.9c4.8,0,7.7,1.6,7.7,5.9c0,1.6,0.1,4.7,0.1,4.7
		l0.4,0.1c3.6-9.4,10.9-10.8,14.5-10.8c6.1,0,9.1,3.9,9.6,6.2s0.2,5.1-2,8l-0.5,0.2c-1.5-2.2-4.8-5.2-9-5.2
		c-5.9,0-10.8,3.2-12.2,8.9c-0.7,2.7-0.3,6.4-0.3,10.8c0,8.1-0.3,13.7,0.3,16.8c0.7,3.5,4.6,4.3,4.7,4.1c-1.7,5.6-7.3,6.4-9.4,5.9
		c-3.9-0.9-6.9-3.8-6.9-8.2C223.1,263.7,223.6,256.6,223.6,250.8L223.6,250.8z"/>
	<path class="st1" d="M286.1,243.6c0.2,0,0.4-0.2,0.4-0.4v-0.6c0-8.8-2-13.8-10.1-13.8c-2,0-4.8,0.8-7.3,2.1
		c-3.1,1.7-2.6,0.1-1.5-2.3c3.7-3.3,8.6-6.7,13.3-6.7c14.9,0,16.9,8.9,16.9,18.5c0,5.6-0.3,12.6-0.3,18.4v1.3
		c-0.2,5.6,0.3,11.2,5.4,11.8c2,0.3,3.5-0.6,4-1c0.1-0.1,0.3-0.1,0.5,0l0.2,0.1c0,0-3.6,6.8-12.7,6.8c-3.3,0-8.2-2.6-8.3-8.2
		l-0.4-0.2c-2.4,4.4-7.7,8.1-14.3,8.1c-8.8,0-14-6.4-14-14.1C257.9,248.5,274.7,243.9,286.1,243.6L286.1,243.6z M276.8,270.2
		c3.6,0,9.4-3.3,9.4-7.2s0.3-9.5,0.3-14.7c0-0.2-0.2-0.4-0.5-0.4c-4.7,0.8-16.3,2.9-16.3,13.7C269.8,267.9,273.1,270.2,276.8,270.2
		L276.8,270.2z"/>
	<path class="st1" d="M319.8,275.3v-48h-7.4v-4.1h7.4v-2.8c0-8,1.5-14.5,5.7-18.8c3.1-3.2,7.4-4.6,11.4-4.6c3.3,0,6.2,0.9,7.7,1.7
		l-1.6,4.1c-1.4-0.8-3.4-1.5-6.6-1.5c-9.6,0-11.6,8.9-11.6,18.9v2.9h13.9v4.1h-13.9v48.1H319.8L319.8,275.3z"/>
	<path class="st1" d="M387.3,262.6c0,4.6,0.2,8.7,0.4,12.7H383l-0.3-9.2h-0.2c-2.6,4.8-8.5,10.4-17.7,10.4c-6.5,0-17.5-3.3-17.5-23
		v-30.3h5v29.3c0,11.3,3.5,19.4,13.8,19.4c7.5,0,13-5.3,15.2-10.5c0.5-1.6,1.1-3.7,1.1-5.8v-32.4h5L387.3,262.6L387.3,262.6z"/>
	<path class="st1" d="M400.3,235.7c0-4.8-0.2-8.4-0.4-12.5h4.7l0.4,9.4h0.2c2.8-5.9,9.2-10.6,17.7-10.6c4.9,0,18,2.5,18,22v31.3
		h-5.1v-30.8c0-9.4-3.7-18-14.3-18c-7.3,0-13.4,5.2-15.5,11.9c-0.4,1.3-0.8,3-0.8,4.7v32.2h-5L400.3,235.7L400.3,235.7z"/>
	<path class="st1" d="M489.9,243.8c0-1.4-0.2-3.4-0.5-4.8c-1.8-6.9-7.8-12.7-16.2-12.7c-11.3,0-18.4,9.9-18.4,23.4
		c0,11.7,5.8,22.4,18.1,22.4c7.4,0,14.3-4.9,16.6-13.5c0.3-1.4,0.5-2.7,0.5-4.3L489.9,243.8L489.9,243.8z M495,198.3v64.8
		c0,3.9,0.2,8.4,0.4,12.1h-4.6l-0.3-9.9h-0.2c-2.7,5.7-8.8,11.1-18.4,11.1c-12.7,0-22.2-10.7-22.2-26.2
		c-0.1-17.3,10.5-28.2,23.2-28.2c8.9,0,14.5,4.7,16.9,9.1h0.2v-32.8H495L495,198.3z"/>
	<path class="st1" d="M161.3,273.9c2.2-1.9-0.3-2.7-1.6-3.4c0,0-0.2,0-0.3,0c-2.3,0-4.2-1.3-5-3.3c-0.8-2.2-0.4-5.4-0.4-8
		c0-8.3,3.1-22.8,2.6-29.7c-0.4-5.3-4.7-7.3-7.8-7.3c-1.5,0-4.3,0.3-6.2,0.8c-0.3,0.1-0.4,0.4-0.2,0.7c1.1,1.5,3.4,7.2,2.7,24.6
		c-0.3,8.4-1.8,12-1.8,18.4c0,0,0,3.8,3.1,7c1.5,1.6,5.6,4.3,10.9,2.6C158.8,275.8,160.1,274.9,161.3,273.9L161.3,273.9z"/>
	<path class="st1" d="M148.6,214.6c4.1,0,7.6-3.5,7.6-7.5s-3.5-7.6-7.6-7.6s-7.5,3.5-7.5,7.6C141.1,211.2,144.5,214.6,148.6,214.6"
		/>
	<path class="st1" d="M3,247.5c7.4,0,9.2-5.7,9.2-10.5c0-4.1-0.4-8-0.8-12c-0.4-4.1-0.8-8.1-0.8-12.4c0-11.4,7-15.5,14.3-15.5h1v4.5
		h-1.8c-5.9,0.8-8.1,3.9-8.1,10.5c0,3.8,0.4,7.6,0.8,11.2c0.4,3.7,0.8,7.2,0.8,10.9c0.2,11.4-3.4,14-8.4,15.3v0.3
		c5,1.3,8.7,3.9,8.4,15.2c0,3.6-0.4,7.2-0.8,10.8c-0.4,3.7-0.8,7.4-0.8,11.3c0,6.6,2.2,9.7,8.1,10.5h1.8v4.5h-1
		c-7.4,0-14.3-4.1-14.3-15.5c0-4.2,0.4-8.3,0.8-12.4c0.4-3.9,0.8-8,0.8-12c0-4.9-1.8-10.5-9.2-10.5L3,247.5L3,247.5z"/>
	<path class="st1" d="M110.2,251.8c-7.4,0-9.2,5.7-9.2,10.5c0,3.9,0.4,8,0.8,12c0.4,4.1,0.8,8.2,0.8,12.4c0,11.4-7,15.5-14.3,15.5
		h-1.1v-4.5H89c5.9-0.8,8.2-3.9,8.2-10.5c0-3.9-0.4-7.6-0.8-11.3c-0.4-3.6-0.8-7.2-0.8-10.8c-0.3-11.3,3.4-13.9,8.4-15.2v-0.3
		c-5-1.3-8.7-3.9-8.4-15.2c0-3.7,0.4-7.2,0.8-10.9c0.4-3.5,0.8-7.4,0.8-11.2c0-6.6-2.2-9.7-8.2-10.5h-1.8v-4.6h1.1
		c7.4,0,14.3,4.1,14.3,15.5c0,4.2-0.4,8.3-0.8,12.4c-0.4,3.9-0.8,7.9-0.8,12c0,4.9,1.8,10.5,9.2,10.5
		C110.2,247.6,110.2,251.8,110.2,251.8z"/>
	<path class="st1" d="M85.3,216.5c0.1,0.5-0.5,0.8-0.8,0.4c-2-2.8-5.2-4.7-8.9-4.7c-6.6,0-10.8,5.2-10.8,10.9l0.4,7.6
		c0,0.7,0.4,1.6,4.8,1.6c3.6,0,9-1,9.6-1.2c0.4-0.1,0.8,0.2,0.8,0.6c0.1,6-3.1,6.8-9.3,6.9c-1.3,0-2.7,0.2-4,1.7
		c-2.6,3-1.8,13.5-1.6,19c0.3,8.2,0.9,16.2,0.9,16.2c0.3,5.6-0.1,9.5-2.2,12.7c-2.5,3.7-7.1,6.2-11.2,6c-2.8-0.1-5.2-0.8-7.3-2.2
		c-0.4-0.2-0.2-0.8,0.3-0.8c3.7,0.2,8.7-1.3,11-7.1c2.4-6,1.6-13.5,0.8-30.8c-0.2-4.9-0.1-11.7-0.1-13.7c0-0.8,0.3-1.8-3.2-2.1
		c-4.1-0.3-8-3-7.9-4.2c0.1-0.7,3.1-0.1,7.1-0.6c2.3-0.3,3.3-2.9,3.3-5.6c-0.1-6.1,0.3-10,2.7-14c2.7-4.6,7.6-6.8,12.1-6.8
		C78,206.2,83.5,210.7,85.3,216.5L85.3,216.5z"/>
	<path class="st1" d="M50,277.7c0.1-0.4-0.4-0.7-0.7-0.4c-0.9,1.1-2.3,1.7-3.4,1.6c-2,0-3.7-1.1-4.3-2.9c-0.7-1.9-0.7-4.5-0.7-6.8
		c0-7.2,3-19.9,2.6-25.8c-0.3-4.6-4.1-6.3-6.7-6.3c-1.3,0-3.7,0.3-5.4,0.7c-0.2,0.1-0.4,0.4-0.2,0.6c1,1.3,3.3,6.4,2.7,21.4
		c-0.3,7.3-1.8,10.3-1.8,15.9c0,0,0,3.3,2.7,6.1c1.3,1.4,4.8,3.7,9.4,2.2C47.1,283,49.2,280.5,50,277.7L50,277.7z"/>
	<path class="st1" d="M36.5,230.5c3.6,0,6.6-3,6.6-6.5s-3-6.6-6.6-6.6s-6.5,3-6.5,6.6C30,227.6,33,230.5,36.5,230.5"/>
</g>
</svg>
