<?xml version="1.0" encoding="utf-8"?>
<!-- Generator: Adobe Illustrator 28.0.0, SVG Export Plug-In . SVG Version: 6.00 Build 0)  -->
<svg version="1.1" id="Layer_1" xmlns="http://www.w3.org/2000/svg" xmlns:xlink="http://www.w3.org/1999/xlink" x="0px" y="0px"
	 viewBox="0 0 66.6 66" style="enable-background:new 0 0 66.6 66;" xml:space="preserve">
<style type="text/css">
	.st0{fill:#FFD25C;}
</style>
<path class="st0" d="M21,0C9.4,0,0,9.4,0,21v24c0,11.6,9.4,21,21,21s21-9.4,21-21V21C42,9.4,32.6,0,21,0z M37,45c0,8.8-7.2,16-16,16
	S5,53.8,5,45V21c0-8.8,7.2-16,16-16s16,7.2,16,16V45z"/>
<path class="st0" d="M21,13.4c-1.4,0-2.5,1.1-2.5,2.5v7.3c0,1.4,1.1,2.5,2.5,2.5s2.5-1.1,2.5-2.5v-7.3C23.5,14.6,22.4,13.4,21,13.4z
	"/>
<path class="st0" d="M64,44.9l-3.4,3.4V14c0-0.8-0.7-1.5-1.5-1.5s-1.5,0.7-1.5,1.5v34.4L54.2,45c-0.6-0.6-1.5-0.6-2.1,0
	s-0.6,1.5,0,2.1l6,6c0.1,0.1,0.3,0.3,0.5,0.3l0,0c0.2,0.1,0.4,0.1,0.5,0.1s0.4,0,0.5-0.1l0,0c0.2-0.1,0.3-0.2,0.5-0.3l6-6
	c0.6-0.6,0.6-1.5,0-2.1C65.5,44.4,64.6,44.4,64,44.9z"/>
</svg>
