<?xml version="1.0" encoding="utf-8"?>
<!-- Generator: Adobe Illustrator 28.0.0, SVG Export Plug-In . SVG Version: 6.00 Build 0)  -->
<svg version="1.1" id="Layer_1" xmlns="http://www.w3.org/2000/svg" xmlns:xlink="http://www.w3.org/1999/xlink" x="0px" y="0px"
	 viewBox="0 0 160 121" style="enable-background:new 0 0 160 121;" xml:space="preserve">
<style type="text/css">
	.st0{clip-path:url(#SVGID_00000132052936929005713160000009196388792223382678_);}
	.st1{clip-path:url(#SVGID_00000080206027218452698290000017957069003197971849_);}
</style>
<g>
	<defs>
		<rect id="SVGID_1_" x="0.6" y="0.5" width="76.8" height="120"/>
	</defs>
	<clipPath id="SVGID_00000112628021789076754790000009990784478609769119_">
		<use xlink:href="#SVGID_1_"  style="overflow:visible;"/>
	</clipPath>
	<g style="clip-path:url(#SVGID_00000112628021789076754790000009990784478609769119_);">
		<path d="M70.1,79.9c0-0.1,0-0.1,0-0.2V31.4c0-17-13.9-30.9-30.9-30.9h-0.6c-17,0-30.9,13.9-30.9,30.9v48.3c0,0.1,0,0.1,0,0.2
			C3.1,83.3,0.1,88.8,0.1,95v23.1c0,1.3,1.1,2.4,2.4,2.4h73c1.3,0,2.4-1.1,2.4-2.4V95C77.9,88.8,74.8,83.3,70.1,79.9z M12.6,31.4
			C12.6,17,24.3,5.3,38.7,5.3h0.6c14.4,0,26.1,11.7,26.1,26.1v46c-1.9-0.7-4-1.1-6.1-1.1H59c-4.1,0-7.6-2.7-8.6-6.7l-0.7-2.7
			c0,0,0,0,0-0.1c6.4-3.9,10.7-11.1,10.7-19.5V34.8c0-2.1-0.3-4.1-0.8-6.2c-0.3-1-1.2-1.8-2.3-1.8h-3.9v-4.8c0-1.3-1.1-2.4-2.4-2.4
			s-2.4,1.1-2.4,2.4v4.8H39v-7.2c0-1.3-1.2-2.4-2.5-2.4c-5.7,0-10.6,4.1-11.7,9.6h-4.5c-1.1,0-2,0.7-2.3,1.8c-0.5,2-0.8,4.1-0.8,6.1
			v12.6c0,8.4,4.4,15.8,11,19.6l-0.7,2.6c-1,3.9-4.5,6.7-8.6,6.7h-0.3c-2.2,0-4.2,0.4-6.1,1.1V31.4z M36.6,31.7h18.8
			c0.2,1,0.3,2.1,0.3,3.1v12.6c0,9.8-7.4,17.7-16.6,17.7h-0.4c-9.2,0-16.6-7.9-16.6-17.7V34.8c0-1,0.1-2.1,0.3-3.1H27
			c1.3,0,2.4-1.2,2.4-2.5c0-3.1,2-5.7,4.8-6.7v6.8C34.2,30.6,35.3,31.7,36.6,31.7z M32.2,70.8l0.2-0.9h6.2H39h6.5l0.2,0.9
			c1,3.8,3.5,6.9,6.8,8.7c-2,5.7-7.4,9.7-13.6,9.7c-6.2,0-11.6-4-13.6-9.7C28.7,77.8,31.2,74.7,32.2,70.8z M73.1,115.7h-9.2V98.4
			c0-1.3-1.1-2.4-2.4-2.4S59,97.1,59,98.4v17.3H18.9V98.4c0-1.3-1.1-2.4-2.4-2.4s-2.4,1.1-2.4,2.4v17.3H4.9V95
			c0-7.7,6.2-13.9,13.9-13.9H19c0.6,0,1.2-0.1,1.8-0.2c2.6,7.7,9.9,13.1,18.2,13.1S54.6,88.7,57.2,81c0.6,0.1,1.2,0.2,1.8,0.2h0.3
			c7.6,0,13.9,6.2,13.9,13.9V115.7z"/>
		<path d="M30.6,36.6c-1.6,0-2.8,1.3-2.8,2.8c0,1.6,1.3,2.8,2.8,2.8c1.6,0,2.8-1.3,2.8-2.8C33.4,37.9,32.1,36.6,30.6,36.6z"/>
		<path d="M47.4,42.2c1.6,0,2.8-1.3,2.8-2.8c0-1.6-1.3-2.8-2.8-2.8c-1.6,0-2.8,1.3-2.8,2.8C44.6,41,45.9,42.2,47.4,42.2z"/>
		<path d="M39,56.3c3.1,0,5.6-2.5,5.6-5.6H33.4C33.4,53.8,35.9,56.3,39,56.3z"/>
		<path d="M43.2,21.9c0,0.1-0.1,0.2-0.1,0.3l0.3-0.2C43.4,21.9,43.3,21.9,43.2,21.9z"/>
	</g>
</g>
<g>
	<defs>
		<rect id="SVGID_00000053530127975089015010000004299877199210889866_" x="82.6" y="0.5" width="76.8" height="120"/>
	</defs>
	<clipPath id="SVGID_00000099629661315435414890000010386913117413030558_">
		<use xlink:href="#SVGID_00000053530127975089015010000004299877199210889866_"  style="overflow:visible;"/>
	</clipPath>
	<g style="clip-path:url(#SVGID_00000099629661315435414890000010386913117413030558_);">
		<path d="M84.5,120.6h73.1c1.3,0,2.4-1.1,2.4-2.4V95.1c0-10.3-8.4-18.7-18.7-18.7H141c-4.1,0-7.6-2.7-8.6-6.7l-0.7-2.7
			c0,0,0,0,0-0.1c5.8-3.5,9.8-9.8,10.6-17c0.1,0,0.2,0.1,0.3,0.1c4.4,0,8-3.6,8-8c0-4.4-3.6-8-8-8c-0.1,0-0.1,0-0.2,0v-2.4h2.6
			c3.9,0,7.2-3.2,7.2-7.2c0-3.1-2.1-5.8-4.9-6.8c-0.9-9.6-9.1-17.2-18.9-17.2h-14.7c-9.8,0-17.9,7.5-18.9,17.2
			c-2.8,1-4.9,3.6-4.9,6.8c0,3.9,3.2,7.2,7.2,7.2h2.3v2.8c-0.2-0.1-0.5-0.1-0.7-0.1c-4.4,0-8,3.6-8,8s3.6,8,8,8
			c0.3,0,0.6-0.1,0.9-0.2c0.8,7.3,5,13.5,10.8,17l-0.7,2.6c-1,3.9-4.5,6.7-8.6,6.7h-0.3c-10.3,0-18.7,8.4-18.7,18.7v23.1
			C82.1,119.5,83.1,120.6,84.5,120.6z M86.9,110.8H97v5H86.9V110.8z M107.3,79.7l4.4,12.7c0.3,0.8,1,1.5,1.9,1.6c0.1,0,0.2,0,0.4,0
			c0.8,0,1.5-0.4,1.9-1l2.7-3.7v26.4h-16.8v-7.4v-12V81.2C103.8,81.1,105.6,80.6,107.3,79.7z M112,76.6l5.6,6l-2.9,3.9l-3.2-9.1
			L112,76.6z M130.4,77.4l-3.2,9.1l-2.9-3.9l5.6-6L130.4,77.4z M126.1,93c0.5,0.6,1.2,1,1.9,1c0.1,0,0.2,0,0.4,0
			c0.9-0.1,1.6-0.7,1.9-1.6l4.4-12.7c1.7,0.9,3.5,1.4,5.5,1.5v15.2v12v7.4h-16.8V89.4L126.1,93z M145,98.8h9.6v7.2H145V98.8z
			 M97,106h-9.6v-7.2H97V106z M145,115.8v-5h10.1v5H145z M155.1,94H145V81.8C150.5,83.3,154.6,88.2,155.1,94z M142.6,38.8
			c1.8,0,3.2,1.4,3.2,3.2c0,1.8-1.4,3.2-3.2,3.2c-0.1,0-0.1,0-0.2,0v-6.5C142.5,38.7,142.5,38.8,142.6,38.8z M113.6,5.2h14.7
			c7,0,12.9,5.1,14,12H99.6C100.6,10.4,106.5,5.2,113.6,5.2z M97,26.8c-1.3,0-2.4-1.1-2.4-2.4c0-1.3,1.1-2.4,2.4-2.4h0h28.2
			c0,0.1-0.1,0.1-0.1,0.2l0.3-0.2c0,0-0.1,0-0.1-0.1H145h0c1.3,0,2.4,1.1,2.4,2.4c0,1.3-1.1,2.4-2.4,2.4H97z M95.3,42.3
			c0-1.8,1.4-3.2,3.2-3.2c0.3,0,0.5-0.1,0.7-0.1v6.7c-0.2-0.1-0.5-0.1-0.7-0.1C96.7,45.5,95.3,44.1,95.3,42.3z M104,47.5V31.6h33.6
			v15.9c0,9.8-7.5,17.7-16.6,17.7h-0.4C111.5,65.2,104,57.3,104,47.5z M121,70h6.5l0.2,0.9c0.1,0.2,0.2,0.5,0.2,0.7l-7,7.5l-7-7.5
			c0.1-0.2,0.2-0.5,0.2-0.7l0.2-0.9h6.2H121z M97,81.8V94H86.9C87.4,88.2,91.5,83.3,97,81.8z"/>
		<path d="M112.6,36.7c-1.6,0-2.8,1.3-2.8,2.8c0,1.6,1.3,2.8,2.8,2.8s2.8-1.3,2.8-2.8C115.4,38,114.1,36.7,112.6,36.7z"/>
		<path d="M129.4,42.3c1.6,0,2.8-1.3,2.8-2.8c0-1.6-1.3-2.8-2.8-2.8s-2.8,1.3-2.8,2.8C126.6,41.1,127.9,42.3,129.4,42.3z"/>
		<path d="M126.6,50.8h-11.2c0,3.1,2.5,5.6,5.6,5.6S126.6,53.9,126.6,50.8z"/>
	</g>
</g>
</svg>
