<svg width="148" height="152" viewBox="0 0 148 152" fill="none" xmlns="http://www.w3.org/2000/svg">
<path fill-rule="evenodd" clip-rule="evenodd" d="M2.35996 49.0148C12.5004 20.0038 40.2614 0.48848 74.031 0.48848C107.803 0.48848 135.353 20.0038 145.405 49.0148H140.186V66.049H123.887V49.0148H114.574V91.7841H123.887V74.2597H140.186V91.7841H147.466C137.575 133.747 93.3 155.67 52.075 144.323C49.8653 143.722 49.3051 143.973 40.6676 147.836C38.6115 148.756 36.0978 149.88 32.9951 151.247C32.0867 151.643 31.0951 151.812 30.1067 151.737C29.1183 151.662 28.1632 151.347 27.3246 150.819C26.4861 150.29 25.7896 149.565 25.2958 148.705C24.8021 147.846 24.5261 146.878 24.492 145.888C24.4134 143.321 24.3664 141.176 24.3267 139.371C24.1482 131.232 24.1212 130.003 22.0369 128.129C11.4591 118.688 3.80693 106.217 0.324615 91.7841H20.9202C22.5133 91.7841 23.9839 91.4777 25.3319 90.865C26.68 90.2114 27.8442 89.3331 28.8245 88.2302C29.8049 87.1272 30.5606 85.8405 31.0917 84.3699C31.6636 82.8585 31.9495 81.2654 31.9495 79.5905C31.9495 77.7523 31.6227 76.2 30.9691 74.9337C30.3564 73.6674 29.5803 72.6461 28.6407 71.87C27.7012 71.053 26.6595 70.4607 25.5157 70.093C24.4128 69.7254 23.3507 69.5416 22.3295 69.5416V69.1739C23.4324 69.1331 24.4537 68.9493 25.3932 68.6225C26.3736 68.2548 27.211 67.7034 27.9054 66.9681C28.6407 66.2328 29.2126 65.2932 29.6211 64.1495C30.0705 63.0057 30.2951 61.6168 30.2951 59.9828C30.2951 56.674 29.2943 54.0188 27.2927 52.0172C25.3319 50.0156 22.5746 49.0148 19.0207 49.0148H2.35996ZM18.2854 83.941H7.56244V74.1371H18.2854C19.5109 74.1371 20.4708 74.4844 21.1653 75.1788C21.9006 75.8324 22.2682 76.7719 22.2682 77.9974V80.0807C22.2682 81.3062 21.9006 82.2662 21.1653 82.9606C20.4708 83.6142 19.5109 83.941 18.2854 83.941ZM16.8148 66.5391H7.56244V56.8578H16.8148C18.0403 56.8578 19.0003 57.2051 19.6947 57.8995C20.3891 58.5939 20.7364 59.5539 20.7364 60.7794V62.6176C20.7364 63.8431 20.3891 64.803 19.6947 65.4975C19.0003 66.1919 18.0403 66.5391 16.8148 66.5391ZM39.1181 49.0148V91.7841H64.7307V83.5121H48.4318V49.0148H39.1181ZM98.9752 91.7841L95.9115 81.6126H81.6347L78.571 91.7841H69.1348L83.2278 49.0148H94.7473L108.657 91.7841H98.9752ZM88.865 57.4706H88.5586L83.8405 73.7082H93.6444L88.865 57.4706Z" fill="black"/>
</svg>
